<svg width="612" height="517" viewBox="0 0 612 517" fill="none" xmlns="http://www.w3.org/2000/svg">
<path d="M70.1197 506.755C70.1197 506.755 37.6198 437.531 44.6787 435.536C51.7377 433.542 66.5378 444.563 66.5378 444.563C66.5378 444.563 23.1084 328.183 34.3528 319.156C45.5972 310.129 66.5902 356.327 66.5902 356.327C66.5902 356.327 44.167 285.042 46.8043 257.922C49.4415 230.801 77.9265 256.925 77.9265 256.925C77.9265 256.925 55.1097 159.609 76.2995 154.583C97.4894 149.558 96.7809 265.939 96.7809 265.939C96.7809 265.939 103.735 182.662 112.224 205.741C120.713 228.82 102.869 306.062 102.869 306.062C102.869 306.062 114.507 279.978 120.975 304.054C127.444 328.13 108.117 425.446 108.117 425.446C108.117 425.446 124.544 409.4 126.079 429.461C127.614 449.523 92.0706 511.728 92.0706 511.728L71.9566 513.775L70.1197 506.755Z" fill="#7E57C2"/>
<path opacity="0.6" d="M70.1197 506.755C70.1197 506.755 37.6198 437.531 44.6787 435.536C51.7377 433.542 66.5378 444.563 66.5378 444.563C66.5378 444.563 23.1084 328.183 34.3528 319.156C45.5972 310.129 66.5902 356.327 66.5902 356.327C66.5902 356.327 44.167 285.042 46.8043 257.922C49.4415 230.801 77.9265 256.925 77.9265 256.925C77.9265 256.925 55.1097 159.609 76.2995 154.583C97.4894 149.558 96.7809 265.939 96.7809 265.939C96.7809 265.939 103.735 182.662 112.224 205.741C120.713 228.82 102.869 306.062 102.869 306.062C102.869 306.062 114.507 279.978 120.975 304.054C127.444 328.13 108.117 425.446 108.117 425.446C108.117 425.446 124.544 409.4 126.079 429.461C127.614 449.523 92.0706 511.728 92.0706 511.728L71.9566 513.775L70.1197 506.755Z" fill="white"/>
<path d="M77.0474 509.839C77.0474 509.839 49.9664 461.686 54.9785 452.646C59.9906 443.605 75.04 464.69 75.04 464.69C75.04 464.69 40.9262 379.406 45.9514 371.389C50.9767 363.373 67.0232 398.484 67.0232 398.484C67.0232 398.484 61.0271 281.04 71.025 285.042C81.023 289.044 82.0202 345.24 82.0202 345.24C82.0202 345.24 76.0109 211.816 85.0379 215.831C94.0649 219.846 93.0678 368.319 93.0678 368.319C93.0678 368.319 111.122 311.126 114.061 337.21C117 363.294 90.9947 433.529 90.9947 433.529C90.9947 433.529 116.134 378.343 119.191 407.497C122.248 436.652 99.077 490.709 99.077 490.709C99.077 490.709 108.104 468.64 108.104 480.671C108.104 492.703 101.084 507.766 101.084 507.766" stroke="#263238" stroke-width="0.303438" stroke-linecap="round" stroke-linejoin="round"/>
<path d="M43.2224 452.711L25.9424 509.655H72.7439L90.5486 453.013L43.2224 452.711Z" fill="#263238" stroke="#263238" stroke-width="0.303438" stroke-linecap="round" stroke-linejoin="round"/>
<path d="M152.347 509.563H54.821L43.2224 452.711H140.748L152.347 509.563Z" fill="white" stroke="#263238" stroke-width="0.303438" stroke-linecap="round" stroke-linejoin="round"/>
<path d="M142.296 499.945H60.9483L54.8735 470.201H136.222L142.296 499.945Z" stroke="#263238" stroke-width="0.303438" stroke-linecap="round" stroke-linejoin="round"/>
<path d="M61.8668 470.319L67.8892 499.814" stroke="#263238" stroke-width="0.303438" stroke-linecap="round" stroke-linejoin="round"/>
<path d="M69.3325 470.319L75.3548 499.814" stroke="#263238" stroke-width="0.303438" stroke-linecap="round" stroke-linejoin="round"/>
<path d="M76.7982 470.319L82.8205 499.814" stroke="#263238" stroke-width="0.303438" stroke-linecap="round" stroke-linejoin="round"/>
<path d="M84.2507 470.319L90.2731 499.814" stroke="#263238" stroke-width="0.303438" stroke-linecap="round" stroke-linejoin="round"/>
<path d="M91.7163 470.319L97.7387 499.814" stroke="#263238" stroke-width="0.303438" stroke-linecap="round" stroke-linejoin="round"/>
<path d="M99.1819 470.319L105.204 499.814" stroke="#263238" stroke-width="0.303438" stroke-linecap="round" stroke-linejoin="round"/>
<path d="M106.635 470.319L112.657 499.814" stroke="#263238" stroke-width="0.303438" stroke-linecap="round" stroke-linejoin="round"/>
<path d="M114.1 470.319L120.123 499.814" stroke="#263238" stroke-width="0.303438" stroke-linecap="round" stroke-linejoin="round"/>
<path d="M121.553 470.319L127.575 499.814" stroke="#263238" stroke-width="0.303438" stroke-linecap="round" stroke-linejoin="round"/>
<path d="M129.018 470.319L135.041 499.814" stroke="#263238" stroke-width="0.303438" stroke-linecap="round" stroke-linejoin="round"/>
<path d="M56.2643 476.079H137.153" stroke="#263238" stroke-width="0.303438" stroke-linecap="round" stroke-linejoin="round"/>
<path d="M57.4714 482.01H138.36" stroke="#263238" stroke-width="0.303438" stroke-linecap="round" stroke-linejoin="round"/>
<path d="M58.6917 487.953H139.567" stroke="#263238" stroke-width="0.303438" stroke-linecap="round" stroke-linejoin="round"/>
<path d="M59.8987 493.884H140.788" stroke="#263238" stroke-width="0.303438" stroke-linecap="round" stroke-linejoin="round"/>
<path d="M90.3125 465.058H54.1913L53.614 462.171H89.722L90.3125 465.058Z" fill="#263238"/>
<path d="M583.23 364.199H465.59C460.054 364.33 454.747 366.436 450.628 370.137C446.509 373.837 443.849 378.889 443.127 384.379L428.694 511.951H566.461L583.23 364.199Z" fill="white" stroke="#263238" stroke-width="0.303438" stroke-linecap="round" stroke-linejoin="round"/>
<path d="M583.846 364.199C579.247 364.308 574.838 366.057 571.416 369.133C567.994 372.208 565.785 376.406 565.189 380.967L550.349 511.951H583.859L598.712 380.967C599.018 378.856 598.86 376.703 598.248 374.659C597.636 372.615 596.586 370.729 595.171 369.133C593.756 367.536 592.009 366.268 590.053 365.416C588.097 364.564 585.979 364.149 583.846 364.199Z" fill="#263238" stroke="#263238" stroke-width="0.303438" stroke-linecap="round" stroke-linejoin="round"/>
<path d="M427.474 325.874C419.206 331.777 410.271 336.683 400.852 340.49C384.15 347.444 377.432 349.543 377.432 349.543L382.063 509.353H503.325C503.325 509.353 487.777 409.151 487.777 375.522C487.777 341.894 489.167 335.334 489.167 335.334L449.281 325.126L427.474 325.874Z" fill="#7E57C2" stroke="#263238" stroke-width="0.303438" stroke-linecap="round" stroke-linejoin="round"/>
<path d="M414.249 332.604C410.468 359.747 408.225 387.082 407.531 414.477C406.835 455.532 414.721 510.258 414.721 510.258H325.881C336.928 489.359 344.829 466.944 349.328 443.736C355.888 410.502 361.136 354.162 362.527 353.466C363.918 352.771 411.008 335.334 414.249 332.604Z" fill="#263238" stroke="#263238" stroke-width="0.303438" stroke-linecap="round" stroke-linejoin="round"/>
<path d="M373.902 510.272C373.902 510.272 364.849 449.037 365.308 434.657C365.768 420.277 368.051 371.573 368.051 371.573" stroke="#616161" stroke-width="0.303438" stroke-linecap="round" stroke-linejoin="round"/>
<path d="M464.12 328.432C464.12 328.432 452.758 380.613 451.826 423.531C450.894 466.449 447.89 510.508 447.89 510.508H519.725C519.725 510.508 520.657 471.303 519.725 457.854C518.794 444.406 518.794 447.187 518.794 447.187L546.636 454.378C546.636 454.378 528.766 368.319 525.525 358.82C522.284 349.32 523.898 346.289 521.812 344.663C519.725 343.036 464.12 328.432 464.12 328.432Z" fill="#263238" stroke="#263238" stroke-width="0.303438" stroke-linecap="round" stroke-linejoin="round"/>
<path d="M334.37 474.793C336.242 477.664 338.444 480.306 340.93 482.666C344.118 485.395 350.954 483.978 354.589 487.704C358.223 491.43 354.248 502.806 349.655 506.781C341.783 513.565 345.955 492.978 345.955 492.978C343.179 494.881 340.113 496.321 336.876 497.243C332.415 498.266 320.934 494.776 317.09 494.619C313.246 494.461 307.905 493.726 305.859 489.449C303.812 485.172 316.513 480.015 322.155 477.968C326.139 476.6 330.223 475.539 334.37 474.793Z" fill="white" stroke="#263238" stroke-width="0.303438" stroke-linecap="round" stroke-linejoin="round"/>
<path d="M310.07 480.829C308.857 480.505 307.576 480.544 306.384 480.94C305.193 481.337 304.143 482.073 303.366 483.059C300.742 486.51 295.493 502.097 297.028 505.102C298.563 508.107 302.539 503.895 304.428 498.948C305.234 496.565 306.308 494.28 307.63 492.139C307.63 492.139 309.703 493.149 311.159 490.446C312.616 487.743 314.085 483.689 310.07 480.829Z" fill="white" stroke="#263238" stroke-width="0.303438" stroke-linecap="round" stroke-linejoin="round"/>
<path d="M317.497 478.113C316.226 477.381 314.74 477.112 313.293 477.351C311.846 477.591 310.527 478.323 309.559 479.425C305.872 483.361 308.404 499.906 310.359 504.971C312.314 510.035 316.014 509.406 316.565 506.283C317.116 503.16 317.746 487.586 317.943 483.978C318.106 482.012 317.955 480.032 317.497 478.113Z" fill="white" stroke="#263238" stroke-width="0.303438" stroke-linecap="round" stroke-linejoin="round"/>
<path d="M325.369 476.328C324.114 475.538 322.614 475.236 321.151 475.478C319.688 475.719 318.365 476.489 317.431 477.64C313.77 481.8 316.473 499.303 318.481 504.682C320.488 510.062 324.188 509.432 324.713 506.086C325.238 502.74 325.71 486.3 325.868 482.469C326.002 480.409 325.834 478.34 325.369 476.328Z" fill="white" stroke="#263238" stroke-width="0.303438" stroke-linecap="round" stroke-linejoin="round"/>
<path d="M336.889 478.454C336.889 478.454 333.832 471.618 328.846 472.746C323.86 473.875 322.286 480.619 323.204 490.853C324.122 501.087 326.038 509.222 328.82 509.51C331.601 509.799 334.632 503.619 335.183 495.629C335.734 487.638 336.561 482.862 336.561 482.862" fill="white"/>
<path d="M336.889 478.454C336.889 478.454 333.832 471.618 328.846 472.746C323.86 473.875 322.286 480.619 323.204 490.853C324.122 501.087 326.038 509.222 328.82 509.51C331.601 509.799 334.632 503.619 335.183 495.629C335.734 487.638 336.561 482.862 336.561 482.862" stroke="#263238" stroke-width="0.303438" stroke-linecap="round" stroke-linejoin="round"/>
<path d="M400.996 406.933H370.071V454.404H400.996V406.933Z" fill="#7E57C2" stroke="#263238" stroke-width="0.303438" stroke-linecap="round" stroke-linejoin="round"/>
<path d="M387.692 393.104H381.998V415.068H387.692V393.104Z" fill="white" stroke="#263238" stroke-width="0.303438" stroke-linecap="round" stroke-linejoin="round"/>
<path d="M390.946 420.224H377.655V437.583H390.946V420.224Z" fill="white" stroke="#263238" stroke-width="0.303438" stroke-linecap="round" stroke-linejoin="round"/>
<path d="M375.49 442.74H393.662" stroke="#263238" stroke-width="0.303438" stroke-linecap="round" stroke-linejoin="round"/>
<path d="M372.774 446.531H396.102" stroke="#263238" stroke-width="0.303438" stroke-linecap="round" stroke-linejoin="round"/>
<path d="M424.233 319.156C424.233 319.156 414.248 325.874 412.425 331.214C410.601 336.554 402.912 359.279 399.894 367.86C396.877 376.441 379.715 383.867 382.037 385.494C384.36 387.121 406.861 389.194 406.861 389.194C406.861 389.194 411.965 409.15 413.12 414.254C414.275 419.358 421.242 434.893 421.242 434.893C421.242 434.893 441.881 410.069 445.134 403.404C447.37 398.896 449.926 394.555 452.784 390.414C452.784 390.414 461.601 392.5 467.217 393.432C472.832 394.363 488.091 395.741 487.396 393.196C486.701 390.65 479.051 379.511 476.034 368.608C473.016 357.704 474.866 333.812 471.166 324.535C467.466 315.259 459.357 313.868 456.549 313.173C453.742 312.477 428.406 315.207 424.233 319.156Z" fill="#7E57C2" stroke="#263238" stroke-width="0.303438" stroke-linecap="round" stroke-linejoin="round"/>
<path d="M420.979 311.966C420.979 311.966 423.997 328.891 423.603 342.576C423.21 356.261 418.263 386.885 418.499 402.656C418.735 413.132 419.585 423.585 421.045 433.962C421.045 433.962 443.783 402.656 452.128 377.136C460.472 351.616 462.795 329.823 462.795 328.196C462.795 326.569 463.254 288.768 463.254 288.768C463.254 288.768 439.073 314.052 420.979 311.966Z" fill="white" stroke="#263238" stroke-width="0.303438" stroke-linecap="round" stroke-linejoin="round"/>
<path d="M463.005 304.815C463.097 296.313 463.188 288.768 463.188 288.768C463.188 288.768 439.073 314.052 420.979 311.966C420.979 311.966 421.832 316.729 422.554 323.25C424.92 324.871 427.548 326.074 430.321 326.805C438.692 328.485 448.073 323.801 454.437 315.758C456.786 312.792 459.895 308.751 463.005 304.815Z" fill="#263238" stroke="#263238" stroke-width="0.303438" stroke-linecap="round" stroke-linejoin="round"/>
<path d="M479.55 227.994C492.296 227.994 502.629 217.766 502.629 205.15C502.629 192.535 492.296 182.307 479.55 182.307C466.804 182.307 456.471 192.535 456.471 205.15C456.471 217.766 466.804 227.994 479.55 227.994Z" fill="#263238" stroke="#263238" stroke-width="0.303438" stroke-linecap="round" stroke-linejoin="round"/>
<path d="M386.092 245.064C386.092 245.064 373.706 241.705 371.659 235.013C369.612 228.322 377.025 204.836 401.141 192.804C425.257 180.772 447.378 187.438 457.087 190.114C466.797 192.791 473.843 197.829 480.206 215.581C486.57 233.334 486.898 247.071 484.89 253.763C483.697 257.764 482.241 261.682 480.534 265.492C480.534 265.492 468.148 266.805 464.789 261.806C461.43 256.807 462.782 231.628 448.375 225.632C433.969 219.636 406.507 223.008 399.829 228.978C393.15 234.948 386.092 245.064 386.092 245.064Z" fill="#263238" stroke="#263238" stroke-width="0.303438" stroke-linecap="round" stroke-linejoin="round"/>
<path d="M384.084 240.708C384.084 240.708 387.102 259.798 387.102 270.177C387.102 280.555 395.473 294.975 399.829 299.042C404.185 303.109 418.591 316.794 426.962 318.474C435.333 320.153 444.715 315.456 451.078 307.413C457.442 299.37 469.841 283.297 469.841 283.297C472.605 283.605 475.391 282.937 477.715 281.408C480.039 279.88 481.755 277.587 482.568 274.926C485.927 265.204 484.247 254.156 478.553 252.818C472.858 251.48 468.843 258.171 468.843 258.171C468.843 258.171 464.146 240.091 458.124 231.038L449.412 217.917L460.525 204.022C460.646 203.871 460.736 203.697 460.787 203.51C460.838 203.323 460.851 203.128 460.824 202.936C460.797 202.744 460.731 202.56 460.63 202.395C460.529 202.23 460.395 202.087 460.236 201.975C459.938 201.761 459.568 201.67 459.204 201.722C458.84 201.773 458.509 201.962 458.281 202.251L447.404 216.251C447.404 216.251 425.965 212.564 407.203 221.945C388.44 231.326 384.084 240.708 384.084 240.708Z" fill="white" stroke="#263238" stroke-width="0.303438" stroke-linecap="round" stroke-linejoin="round"/>
<path d="M452.915 259.562L449.897 263.59" stroke="#263238" stroke-width="0.303438" stroke-linecap="round" stroke-linejoin="round"/>
<path d="M411.559 282.576C411.559 282.576 412.228 284.583 416.584 285.593C418.616 286.066 420.742 285.938 422.704 285.226C424.665 284.513 426.377 283.246 427.631 281.578" stroke="#263238" stroke-width="0.303438" stroke-linecap="round" stroke-linejoin="round"/>
<path d="M416.597 293.348C420.727 294.279 425.029 294.121 429.08 292.888C433.131 291.655 436.791 289.39 439.702 286.315C439.702 286.315 436.698 299.042 430.662 301.391C424.627 303.739 424.299 297.363 424.299 297.363L416.597 293.348Z" stroke="#263238" stroke-width="0.303438" stroke-linecap="round" stroke-linejoin="round"/>
<path d="M428.642 267.841C431.417 265.228 434.796 263.34 438.476 262.347C442.157 261.354 446.026 261.285 449.74 262.147" stroke="#263238" stroke-width="0.606876" stroke-linecap="round" stroke-linejoin="round"/>
<path d="M406.861 267.172C406.861 267.172 399.501 259.798 391.786 263.813" stroke="#263238" stroke-width="0.606876" stroke-linecap="round" stroke-linejoin="round"/>
<path d="M389.45 262.147L393.124 265.834" stroke="#263238" stroke-width="0.303438" stroke-linecap="round" stroke-linejoin="round"/>
<path d="M426.293 249.748C426.293 249.748 436.278 238.241 450.711 249.078" stroke="#263238" stroke-width="0.303438" stroke-linecap="round" stroke-linejoin="round"/>
<path d="M406.192 249.407C406.192 249.407 397.152 242.374 388.099 250.417" stroke="#263238" stroke-width="0.303438" stroke-linecap="round" stroke-linejoin="round"/>
<path d="M436.527 266.043C436.54 266.37 436.454 266.694 436.281 266.971C436.107 267.248 435.854 267.467 435.554 267.598C435.254 267.729 434.922 267.767 434.6 267.706C434.278 267.646 433.983 267.49 433.751 267.258C433.52 267.027 433.364 266.731 433.303 266.409C433.242 266.088 433.28 265.755 433.411 265.455C433.542 265.156 433.761 264.902 434.038 264.729C434.316 264.555 434.639 264.469 434.966 264.482C435.375 264.498 435.763 264.668 436.052 264.957C436.341 265.247 436.511 265.634 436.527 266.043Z" fill="#263238"/>
<path d="M398.228 264.639C398.231 264.962 398.137 265.278 397.96 265.547C397.783 265.816 397.53 266.027 397.233 266.152C396.936 266.277 396.608 266.311 396.292 266.25C395.975 266.189 395.684 266.035 395.455 265.808C395.227 265.581 395.07 265.291 395.006 264.975C394.943 264.659 394.974 264.331 395.097 264.033C395.219 263.735 395.428 263.48 395.696 263.301C395.964 263.121 396.279 263.026 396.601 263.026C397.03 263.026 397.442 263.195 397.747 263.498C398.052 263.8 398.225 264.21 398.228 264.639Z" fill="#263238"/>
<path d="M477.385 231.969C477.385 231.969 478.54 247.045 475.758 258.407L480.167 259.798C480.167 259.798 483.644 242.4 482.017 232.665L477.385 231.969Z" fill="#7E57C2" stroke="#263238" stroke-width="0.303438" stroke-linecap="round" stroke-linejoin="round"/>
<path d="M447.417 187.87C452.268 190.291 456.59 193.648 460.135 197.749C463.68 201.851 466.377 206.614 468.069 211.763C473.396 228.925 472.701 234.265 475.942 236.115C479.183 237.965 485.454 239.133 485.677 234.961C485.9 230.788 484.457 212.17 475.181 200.624C468.227 191.833 453.217 188.107 447.417 187.87Z" fill="#7E57C2" stroke="#263238" stroke-width="0.303438" stroke-linecap="round" stroke-linejoin="round"/>
<path d="M479.222 255.088C472.543 253.041 465.209 257.712 462.821 265.466C460.617 272.643 463.425 279.965 469.119 282.667C464.938 293.291 458.72 302.994 450.816 311.231C449.277 311.041 447.723 311.435 446.46 312.333C444.072 313.947 443.022 316.584 444.137 318.238C445.252 319.891 448.073 319.917 450.475 318.316C452.876 316.716 453.728 314.38 452.967 312.779C461.05 304.343 467.39 294.396 471.625 283.507C478.002 284.819 484.746 280.253 486.989 272.866C489.377 265.099 485.9 257.135 479.222 255.088Z" fill="#7E57C2" stroke="#263238" stroke-width="0.303438" stroke-linecap="round" stroke-linejoin="round"/>
<path d="M484.89 270.255C483.762 275.215 479.288 278.443 474.892 277.445C470.497 276.448 467.846 271.607 468.975 266.647C470.103 261.687 474.577 258.46 478.973 259.444C483.368 260.428 486.018 265.283 484.89 270.255Z" fill="#7E57C2" stroke="#263238" stroke-width="0.303438" stroke-linecap="round" stroke-linejoin="round"/>
<path d="M483.604 352.089C483.604 352.089 477.11 335.859 475.732 332.841C474.354 329.823 485.704 311.966 487.541 309.407C489.377 306.849 492.867 301.535 492.867 300.367C492.867 299.199 479.655 286.21 476.86 284.124C474.066 282.038 469.447 286.748 469.447 286.748C469.447 286.748 457.389 302.755 457.389 304.605C457.389 306.455 463.175 312.254 463.175 312.254C463.175 312.254 454.135 325.244 455.303 330.348C456.471 335.452 461.102 339.86 461.102 339.86L467.597 364.908L483.604 352.089Z" fill="white" stroke="#263238" stroke-width="0.303438" stroke-linecap="round" stroke-linejoin="round"/>
<path d="M463.188 312.189C463.188 312.189 471.061 305.93 470.379 304.08C470.108 303.531 469.674 303.079 469.136 302.788C468.597 302.496 467.982 302.379 467.374 302.453" stroke="#263238" stroke-width="0.303438" stroke-linecap="round" stroke-linejoin="round"/>
<path d="M468.765 288.768C469.46 288.768 489.863 302.217 489.404 304.513C488.998 306.208 488.376 307.844 487.554 309.381" stroke="#263238" stroke-width="0.303438" stroke-linecap="round" stroke-linejoin="round"/>
<path d="M471.087 286.682C471.087 286.682 490.335 298.74 490.768 300.826C490.854 301.512 490.773 302.208 490.531 302.854C490.288 303.501 489.893 304.079 489.377 304.539" stroke="#263238" stroke-width="0.303438" stroke-linecap="round" stroke-linejoin="round"/>
<path d="M473.173 284.596C473.173 284.596 493.353 298.281 492.854 300.341C492.301 302.03 491.438 303.6 490.309 304.973" stroke="#263238" stroke-width="0.303438" stroke-linecap="round" stroke-linejoin="round"/>
<path d="M486.386 350.239L455.303 368.135C455.303 368.135 495.662 464.152 503.088 477.142C510.515 490.131 530.458 493.149 540.902 489.672C551.346 486.195 556.437 465.32 552.96 456.503C549.483 447.686 524.423 409.151 512.378 389.889C500.333 370.628 486.386 350.239 486.386 350.239Z" fill="#263238" stroke="#263238" stroke-width="0.303438" stroke-linecap="round" stroke-linejoin="round"/>
<path d="M469.959 400.937C469.959 400.937 504.072 466.54 512.811 479.661" stroke="#616161" stroke-width="0.303438" stroke-linecap="round" stroke-linejoin="round"/>
<path d="M489.194 358.019L537.307 431.495" stroke="#616161" stroke-width="0.303438" stroke-linecap="round" stroke-linejoin="round"/>
<path d="M352.765 262.986V220.751C352.765 219.122 352.118 217.561 350.967 216.409C349.815 215.257 348.253 214.61 346.625 214.61H243.614C241.986 214.61 240.424 215.257 239.272 216.409C238.121 217.561 237.474 219.122 237.474 220.751V262.986C237.474 264.615 238.121 266.177 239.272 267.328C240.424 268.48 241.986 269.127 243.614 269.127H332.074L352.214 288.506L348.186 268.904C349.495 268.56 350.653 267.793 351.481 266.723C352.309 265.653 352.76 264.339 352.765 262.986Z" fill="white" stroke="#263238" stroke-width="0.303438" stroke-linecap="round" stroke-linejoin="round"/>
<path d="M274.776 245.641C277.319 245.641 279.381 243.579 279.381 241.035C279.381 238.492 277.319 236.43 274.776 236.43C272.232 236.43 270.17 238.492 270.17 241.035C270.17 243.579 272.232 245.641 274.776 245.641Z" fill="#263238"/>
<path d="M295.113 245.641C297.656 245.641 299.718 243.579 299.718 241.035C299.718 238.492 297.656 236.43 295.113 236.43C292.569 236.43 290.508 238.492 290.508 241.035C290.508 243.579 292.569 245.641 295.113 245.641Z" fill="#263238"/>
<path d="M315.463 245.641C318.006 245.641 320.068 243.579 320.068 241.035C320.068 238.492 318.006 236.43 315.463 236.43C312.92 236.43 310.858 238.492 310.858 241.035C310.858 243.579 312.92 245.641 315.463 245.641Z" fill="#263238"/>
<path d="M254.203 262.015V252.569L244.27 250.364C243.729 248.446 242.968 246.596 242 244.854L247.445 236.273L240.78 229.594L232.199 235.052C230.465 234.077 228.619 233.314 226.702 232.783L224.484 222.85H215.037L212.833 232.783C210.911 233.312 209.06 234.074 207.323 235.052L198.794 229.594L192.116 236.273L197.482 244.801C196.504 246.539 195.742 248.389 195.212 250.312L185.28 252.516V261.963L195.212 264.18C195.74 266.116 196.502 267.98 197.482 269.73L192.024 278.311L198.702 284.99L207.283 279.531C209.023 280.508 210.873 281.275 212.794 281.814L214.998 291.734H224.445L226.662 281.814C228.578 281.272 230.424 280.506 232.16 279.531L240.741 284.99L247.419 278.311L242 269.73C242.965 267.991 243.727 266.146 244.27 264.233L254.203 262.015ZM219.787 269.494C217.374 269.494 215.015 268.779 213.008 267.438C211.001 266.097 209.437 264.191 208.514 261.962C207.59 259.732 207.349 257.278 207.819 254.911C208.29 252.544 209.452 250.37 211.159 248.664C212.865 246.957 215.04 245.795 217.407 245.324C219.774 244.853 222.227 245.095 224.457 246.019C226.686 246.942 228.592 248.506 229.933 250.513C231.274 252.519 231.989 254.879 231.989 257.292C231.989 258.894 231.674 260.481 231.061 261.962C230.447 263.442 229.548 264.787 228.415 265.92C227.282 267.053 225.937 267.952 224.457 268.565C222.976 269.179 221.39 269.494 219.787 269.494Z" fill="#263238" stroke="#263238" stroke-width="0.303438" stroke-linecap="round" stroke-linejoin="round"/>
<path d="M170.939 510.153H387.955V501.402H170.939V510.153Z" fill="white" stroke="#263238" stroke-width="0.303438" stroke-linecap="round" stroke-linejoin="round"/>
<path d="M137.612 510.153H326.76V501.402H137.612V510.153Z" fill="white" stroke="#263238" stroke-width="0.303438" stroke-linecap="round" stroke-linejoin="round"/>
<path d="M133.952 485.828H314.912L295.401 347.68H114.441L133.952 485.828Z" fill="white" stroke="#263238" stroke-width="0.303438" stroke-linecap="round" stroke-linejoin="round"/>
<path d="M126.46 485.828H307.42L287.91 347.68H106.949L126.46 485.828Z" fill="#263238" stroke="#263238" stroke-width="0.303438" stroke-linecap="round" stroke-linejoin="round"/>
<path d="M181.908 421.615L163.749 510.153H210.445L228.604 421.615H181.908ZM213.581 447.856C213.505 448.228 213.303 448.562 213.009 448.801C212.714 449.04 212.346 449.17 211.967 449.169L185.516 448.906C185.268 448.903 185.025 448.844 184.803 448.734C184.581 448.624 184.386 448.466 184.234 448.27C184.082 448.075 183.975 447.848 183.922 447.606C183.869 447.364 183.871 447.113 183.928 446.872L186.316 436.94C186.392 436.568 186.594 436.235 186.889 435.995C187.183 435.756 187.551 435.626 187.93 435.628L214.395 435.877C214.641 435.882 214.883 435.943 215.104 436.053C215.324 436.164 215.517 436.323 215.668 436.518C215.818 436.713 215.924 436.939 215.976 437.18C216.028 437.421 216.026 437.671 215.969 437.911L213.581 447.856Z" fill="white" stroke="#263238" stroke-width="0.303438" stroke-linecap="round" stroke-linejoin="round"/>
<path d="M0.999939 516.504L611.767 516.504V510.153L0.999939 510.153V516.504Z" fill="#263238" stroke="#263238" stroke-width="0.303438" stroke-linecap="round" stroke-linejoin="round"/>
<path d="M438.719 90.6726L434.861 79.4807H396.116L399.619 145.084H489.706V90.6726H438.719Z" stroke="#263238" stroke-width="0.303438" stroke-linecap="round" stroke-linejoin="round"/>
<path d="M489.705 145.084L497.394 84.9783H436.383" stroke="#263238" stroke-width="0.303438" stroke-linecap="round" stroke-linejoin="round"/>
<path d="M229.077 123.178C234.794 98.8029 219.669 74.4088 195.295 68.6917C170.92 62.9747 146.526 78.0997 140.809 102.474C135.092 126.849 150.217 151.243 174.591 156.96C198.966 162.677 223.36 147.552 229.077 123.178Z" stroke="#263238" stroke-width="0.303438" stroke-linecap="round" stroke-linejoin="round"/>
<path d="M220.485 121.347C225.177 101.726 213.075 82.0167 193.455 77.3244C173.834 72.632 154.125 84.7337 149.432 104.354C144.74 123.975 156.842 143.684 176.462 148.377C196.083 153.069 215.792 140.967 220.485 121.347Z" stroke="#263238" stroke-width="0.303438" stroke-linecap="round" stroke-linejoin="round"/>
<path d="M189.793 112.834C189.793 113.791 189.509 114.727 188.977 115.523C188.445 116.32 187.689 116.94 186.805 117.307C185.92 117.673 184.946 117.769 184.007 117.582C183.068 117.395 182.205 116.934 181.528 116.257C180.851 115.58 180.39 114.717 180.203 113.778C180.017 112.839 180.112 111.865 180.479 110.981C180.845 110.096 181.466 109.34 182.262 108.808C183.058 108.276 183.994 107.992 184.952 107.992C186.236 107.992 187.467 108.502 188.375 109.41C189.283 110.318 189.793 111.55 189.793 112.834V112.834Z" stroke="#263238" stroke-width="0.303438" stroke-linecap="round" stroke-linejoin="round"/>
<path d="M184.807 79.0479V88.088" stroke="#263238" stroke-width="0.303438" stroke-linecap="round" stroke-linejoin="round"/>
<path d="M184.807 137.763V146.79" stroke="#263238" stroke-width="0.303438" stroke-linecap="round" stroke-linejoin="round"/>
<path d="M160.862 88.967L167.239 95.3568" stroke="#263238" stroke-width="0.303438" stroke-linecap="round" stroke-linejoin="round"/>
<path d="M202.376 130.481L208.753 136.87" stroke="#263238" stroke-width="0.303438" stroke-linecap="round" stroke-linejoin="round"/>
<path d="M150.943 112.925H159.97" stroke="#263238" stroke-width="0.303438" stroke-linecap="round" stroke-linejoin="round"/>
<path d="M209.645 112.925H218.672" stroke="#263238" stroke-width="0.303438" stroke-linecap="round" stroke-linejoin="round"/>
<path d="M160.862 136.87L167.239 130.481" stroke="#263238" stroke-width="0.303438" stroke-linecap="round" stroke-linejoin="round"/>
<path d="M202.376 95.3568L208.753 88.967" stroke="#263238" stroke-width="0.303438" stroke-linecap="round" stroke-linejoin="round"/>
<path d="M180.11 112.833H166.74" stroke="#263238" stroke-width="0.303438" stroke-linecap="round" stroke-linejoin="round"/>
<path d="M184.952 107.992V90.3446" stroke="#263238" stroke-width="0.303438" stroke-linecap="round" stroke-linejoin="round"/>
<path d="M362.907 79.4807H258.821V145.963H362.907V79.4807Z" stroke="#263238" stroke-width="0.303438" stroke-linecap="round" stroke-linejoin="round"/>
<path d="M258.821 79.4807L310.858 112.715L362.907 79.4807" stroke="#263238" stroke-width="0.303438" stroke-linecap="round" stroke-linejoin="round"/>
<path d="M258.821 145.963L298.183 110.091" stroke="#263238" stroke-width="0.303438" stroke-linecap="round" stroke-linejoin="round"/>
<path d="M362.409 145.963L323.047 110.091" stroke="#263238" stroke-width="0.303438" stroke-linecap="round" stroke-linejoin="round"/>
</svg>
