<svg width="594" height="531" viewBox="0 0 594 531" fill="none" xmlns="http://www.w3.org/2000/svg">
<path d="M562.913 266.787C562.913 266.787 562.913 259.352 552.505 249.048C542.097 238.744 535.496 232.767 535.496 232.767C535.496 232.767 530.321 249.777 539.956 260.14C547.029 267.419 554.698 274.093 562.883 280.094L562.913 266.787Z" fill="#7E57C2" fill-opacity="0.4"/>
<path d="M547.896 312.968C547.896 312.968 547.896 305.534 537.488 295.23C527.08 284.926 520.508 278.949 520.508 278.949C520.508 278.949 515.319 295.959 524.969 306.322C532.042 313.601 539.711 320.275 547.896 326.276V312.968Z" fill="#7E57C2" fill-opacity="0.4"/>
<path d="M562.259 279.38C562.259 279.38 563.047 272.035 574.436 262.832C585.826 253.628 593.067 248.454 593.067 248.454C593.067 248.454 596.412 265.909 585.766 275.217C577.964 281.709 569.634 287.538 560.861 292.643L562.259 279.38Z" fill="#7E57C2" fill-opacity="0.4"/>
<path d="M544.119 333.918C544.119 333.918 545.606 326.692 557.962 318.737C570.317 310.783 577.99 306.396 577.99 306.396C577.99 306.396 579.476 324.12 567.924 332.223C559.482 337.861 550.585 342.785 541.324 346.943L544.119 333.918Z" fill="#7E57C2" fill-opacity="0.4"/>
<path d="M547.524 393.392C547.524 393.392 547.524 385.958 557.932 375.639C568.34 365.321 574.927 359.373 574.927 359.373C574.927 359.373 580.116 376.383 570.466 386.731C563.396 394.017 555.727 400.697 547.539 406.7L547.524 393.392Z" fill="#7E57C2" fill-opacity="0.4"/>
<path d="M547.361 407.904C547.361 407.904 548.401 400.589 539.629 388.872C530.857 377.156 525.102 370.346 525.102 370.346C525.102 370.346 517.564 386.449 525.608 398.061C531.571 406.274 538.211 413.973 545.458 421.078L547.361 407.904Z" fill="#7E57C2" fill-opacity="0.4"/>
<path d="M537.146 450.919C537.146 450.919 537.146 443.485 547.554 433.181C557.962 422.877 564.564 416.9 564.564 416.9C564.564 416.9 569.738 433.909 560.103 444.273C553.028 451.554 545.359 458.233 537.176 464.241L537.146 450.919Z" fill="#7E57C2" fill-opacity="0.4"/>
<path d="M544.06 489.919C544.06 489.919 542.186 482.767 549.576 470.129C556.966 457.491 561.917 450.086 561.917 450.086C561.917 450.086 571.225 465.222 564.549 477.682C559.554 486.516 553.83 494.916 547.435 502.795L544.06 489.919Z" fill="#7E57C2" fill-opacity="0.4"/>
<path d="M563.85 264.898C563.329 272.597 562.386 280.261 561.025 287.855C556.921 308.998 546.691 322.648 542.602 341.739C538.514 360.83 550.26 385.438 547.063 409.971C543.866 434.504 534.38 448.138 537.101 464.509C539.822 480.879 554.155 525.217 554.155 525.217" stroke="#090231" stroke-linecap="round" stroke-linejoin="round"/>
<path d="M562.169 284.302L573.321 275.738" stroke="#090231" stroke-linecap="round" stroke-linejoin="round"/>
<path d="M562.69 274.444L558.006 266.132" stroke="#090231" stroke-linecap="round" stroke-linejoin="round"/>
<path d="M543.227 340.862C543.227 340.862 552.564 333.859 562.17 326.856" stroke="#090231" stroke-linecap="round" stroke-linejoin="round"/>
<path d="M547.896 326.276C547.896 326.276 540.105 311.021 531.288 300.91" stroke="#090231" stroke-linecap="round" stroke-linejoin="round"/>
<path d="M547.896 403.919C553.222 394.075 559.954 385.06 567.879 377.156" stroke="#090231" stroke-linecap="round" stroke-linejoin="round"/>
<path d="M546.082 414.298C543.248 407.623 539.861 401.197 535.956 395.087C530.515 387.044 529.727 386.003 529.727 386.003" stroke="#090231" stroke-linecap="round" stroke-linejoin="round"/>
<path d="M537.146 464.509C539.517 458.648 542.33 452.977 545.562 447.544C548.795 442.494 552.441 437.72 556.46 433.27" stroke="#090231" stroke-linecap="round" stroke-linejoin="round"/>
<path d="M547.435 502.795C546.893 497.192 547.858 491.545 550.23 486.44C554.126 478.916 558.527 469.059 560.341 465.163" stroke="#090231" stroke-linecap="round" stroke-linejoin="round"/>
<path d="M478.43 365.588C478.43 365.588 477.627 360.949 482.994 353.322C488.362 345.694 491.916 341.278 491.916 341.278C491.916 341.278 497.001 351.389 492.094 358.912C488.45 364.249 484.367 369.272 479.887 373.929L478.43 365.588Z" fill="#7E57C2" fill-opacity="0.4"/>
<path d="M492.867 392.917C492.867 392.917 492.064 388.278 497.432 380.65C502.799 373.022 506.353 368.606 506.353 368.606C506.353 368.606 511.438 378.717 506.531 386.255C502.885 391.585 498.802 396.604 494.324 401.258L492.867 392.917Z" fill="#7E57C2" fill-opacity="0.4"/>
<path d="M480.199 373.409C480.199 373.409 478.921 368.948 470.773 364.354C462.625 359.76 457.54 357.351 457.54 357.351C457.54 357.351 457.331 368.666 464.974 373.335C470.569 376.556 476.423 379.306 482.474 381.557L480.199 373.409Z" fill="#7E57C2" fill-opacity="0.4"/>
<path d="M497.506 405.644C497.506 405.644 495.752 401.273 487.187 397.615C478.623 393.957 473.271 392.054 473.271 392.054C473.271 392.054 474.252 403.325 482.4 407.161C488.304 409.777 494.417 411.895 500.673 413.495L497.506 405.644Z" fill="#7E57C2" fill-opacity="0.4"/>
<path d="M501.818 443.306C501.818 443.306 501.03 438.667 493.403 433.3C485.775 427.932 480.973 424.943 480.973 424.943C480.973 424.943 479.575 436.169 486.727 441.611C491.951 445.416 497.487 448.773 503.276 451.647L501.818 443.306Z" fill="#7E57C2" fill-opacity="0.4"/>
<path d="M503.513 452.391C503.513 452.391 502.026 447.93 506.293 439.604C510.561 431.278 513.386 426.416 513.386 426.416C513.386 426.416 519.853 435.693 516.077 443.856C513.232 449.651 509.904 455.197 506.13 460.435L503.513 452.391Z" fill="#7E57C2" fill-opacity="0.4"/>
<path d="M516.508 489.785C516.508 489.785 517.044 485.116 524.344 479.377C531.645 473.638 536.239 470.322 536.239 470.322C536.239 470.322 538.276 481.459 531.451 487.302C526.453 491.392 521.121 495.058 515.512 498.26L516.508 489.785Z" fill="#7E57C2" fill-opacity="0.4"/>
<path d="M514.561 478.247C514.561 478.247 513.758 473.608 506.145 468.241C498.532 462.873 493.745 459.885 493.745 459.885C493.745 459.885 492.347 471.11 499.499 476.567C504.727 480.365 510.263 483.722 516.047 486.603L514.561 478.247Z" fill="#7E57C2" fill-opacity="0.4"/>
<path d="M514.56 503.464C514.56 503.464 514.947 498.766 508.94 491.644C502.933 484.522 499.038 480.418 499.038 480.418C499.038 480.418 494.83 490.915 500.376 498.008C504.441 503.002 508.917 507.647 513.757 511.895L514.56 503.464Z" fill="#7E57C2" fill-opacity="0.4"/>
<path d="M477.642 364.488C478.806 369.261 480.23 373.966 481.909 378.583C486.771 391.4 494.667 398.849 499.306 410.372C503.945 421.895 499.306 438.623 503.885 453.655C508.465 468.687 516.048 476.21 516.048 486.767C516.048 497.324 511.944 526.689 511.944 526.689" stroke="#090231" stroke-linecap="round" stroke-linejoin="round"/>
<path d="M480.809 376.472L472.884 372.324" stroke="#090231" stroke-linecap="round" stroke-linejoin="round"/>
<path d="M479.411 370.346L481.433 364.637" stroke="#090231" stroke-linecap="round" stroke-linejoin="round"/>
<path d="M498.815 409.896C498.815 409.896 492.198 406.521 485.433 403.161" stroke="#090231" stroke-linecap="round" stroke-linejoin="round"/>
<path d="M494.31 401.258C496.26 395.132 498.826 389.218 501.967 383.609" stroke="#090231" stroke-linecap="round" stroke-linejoin="round"/>
<path d="M502.74 449.937C498.328 444.355 493.13 439.441 487.307 435.351" stroke="#090231" stroke-linecap="round" stroke-linejoin="round"/>
<path d="M505 456.242C506.058 451.755 507.486 447.364 509.267 443.113C511.81 437.478 512.241 436.734 512.241 436.734" stroke="#090231" stroke-linecap="round" stroke-linejoin="round"/>
<path d="M515.69 494.781C518.269 491.586 521.125 488.626 524.225 485.934C526.197 484.482 528.047 482.871 529.756 481.117" stroke="#090231" stroke-linecap="round" stroke-linejoin="round"/>
<path d="M516.047 486.767C513.923 483.34 511.542 480.08 508.925 477.013C506.348 474.2 503.543 471.604 500.54 469.252" stroke="#090231" stroke-linecap="round" stroke-linejoin="round"/>
<path d="M513.757 511.895C513.491 508.319 512.275 504.88 510.234 501.933C506.977 497.636 503.141 491.926 501.58 489.681" stroke="#090231" stroke-linecap="round" stroke-linejoin="round"/>
<path d="M56.1179 300.821L49.6055 282.22L56.1179 290.115L51.0031 262.207L58.9132 282.22L61.7085 243.131L66.3623 280.347L71.4771 272.912V282.22L77.5286 269.656L74.2724 291.513L79.8481 287.796L71.0162 299.884L56.1179 300.821Z" fill="#7E57C2" fill-opacity="0.4"/>
<path d="M76.592 296.167H52.4009L56.7574 345.01H72.2355L76.592 296.167Z" fill="#090231" stroke="#090231" stroke-linecap="round" stroke-linejoin="round"/>
<path d="M121.971 344.46H39.5544V519.017H121.971V344.46Z" fill="white" stroke="#090231" stroke-linecap="round" stroke-linejoin="round"/>
<path d="M126.476 344.46H80.7551V519.017H126.476V344.46Z" fill="white" stroke="#090231" stroke-linecap="round" stroke-linejoin="round"/>
<path d="M121.331 344.46H80.7551V519.017H121.331V344.46Z" fill="#090231" stroke="#090231" stroke-linecap="round" stroke-linejoin="round"/>
<path d="M116.767 478.426H80.7551V514.17H116.767V478.426Z" fill="#7E57C2" fill-opacity="0.4" stroke="#090231" stroke-linecap="round" stroke-linejoin="round"/>
<path d="M116.767 480.359H80.7551V484.938H116.767V480.359Z" fill="white" stroke="#090231" stroke-linecap="round" stroke-linejoin="round"/>
<path d="M116.767 506.676H80.7551V511.256H116.767V506.676Z" fill="white" stroke="#090231" stroke-linecap="round" stroke-linejoin="round"/>
<path d="M87.5798 479.169V524.37" stroke="#090231" stroke-linecap="round" stroke-linejoin="round"/>
<path d="M100.144 479.169V524.37" stroke="#090231" stroke-linecap="round" stroke-linejoin="round"/>
<path d="M111.176 479.169V524.37" stroke="#090231" stroke-linecap="round" stroke-linejoin="round"/>
<path d="M116.767 350.943H80.7551V403.503H116.767V350.943Z" fill="#7E57C2" fill-opacity="0.4" stroke="#090231" stroke-linecap="round" stroke-linejoin="round"/>
<path d="M116.767 353.143H80.7551V358.347H116.767V353.143Z" fill="white" stroke="#090231" stroke-linecap="round" stroke-linejoin="round"/>
<path d="M116.767 386.835H80.7551V392.039H116.767V386.835Z" fill="white" stroke="#090231" stroke-linecap="round" stroke-linejoin="round"/>
<path d="M87.5798 351.775V403.146" stroke="#090231" stroke-linecap="round" stroke-linejoin="round"/>
<path d="M100.144 351.775V403.146" stroke="#090231" stroke-linecap="round" stroke-linejoin="round"/>
<path d="M111.176 351.775V403.146" stroke="#090231" stroke-linecap="round" stroke-linejoin="round"/>
<path d="M116.767 414.283H80.7551V466.843H116.767V414.283Z" fill="#7E57C2" fill-opacity="0.4" stroke="#090231" stroke-linecap="round" stroke-linejoin="round"/>
<path d="M116.767 416.483H80.7551V421.687H116.767V416.483Z" fill="white" stroke="#090231" stroke-linecap="round" stroke-linejoin="round"/>
<path d="M116.767 450.175H80.7551V455.379H116.767V450.175Z" fill="white" stroke="#090231" stroke-linecap="round" stroke-linejoin="round"/>
<path d="M87.5798 415.13V466.486" stroke="#090231" stroke-linecap="round" stroke-linejoin="round"/>
<path d="M100.144 415.13V466.486" stroke="#090231" stroke-linecap="round" stroke-linejoin="round"/>
<path d="M111.176 415.13V466.486" stroke="#090231" stroke-linecap="round" stroke-linejoin="round"/>
<path d="M121.956 402.775H80.7551V408.752H121.956V402.775Z" fill="white" stroke="#090231" stroke-linecap="round" stroke-linejoin="round"/>
<path d="M121.956 466.516H80.7551V472.493H121.956V466.516Z" fill="white" stroke="#090231" stroke-linecap="round" stroke-linejoin="round"/>
<path d="M121.956 344.46V519.002" stroke="#090231" stroke-linecap="round" stroke-linejoin="round"/>
<path d="M74.9417 344.46V519.002H80.7553V350.943H121.242V344.386L74.9417 344.46Z" fill="white" stroke="#090231" stroke-linecap="round" stroke-linejoin="round"/>
<path d="M80.7551 350.943V344.46" stroke="#090231" stroke-linecap="round" stroke-linejoin="round"/>
<path d="M121.644 264.274C117.317 255.932 115.503 249.955 115.503 248.573C115.503 245.837 121.451 244.201 121.451 244.201C130.729 239.295 174.368 246.387 194.009 249.658C205.004 251.575 216.127 252.668 227.285 252.929C227.285 252.929 230.006 250.758 233.232 248.022C236.459 245.287 251.774 227.296 257.78 225.72C263.787 224.144 269.229 227.905 269.229 227.905C269.229 227.905 279.057 233.853 277.407 234.998C275.757 236.142 251.774 256.81 245.767 260.631C239.76 264.452 227.226 262.817 216.312 265.002C206.915 266.876 168.852 269.195 160.124 269.909C153.569 271.464 146.69 270.891 140.482 268.273" fill="white"/>
<path d="M269.333 227.846C269.333 227.846 263.876 224.025 257.884 225.66C251.892 227.296 236.608 245.301 233.336 247.963C230.065 250.624 227.389 252.87 227.389 252.87C216.231 252.609 205.108 251.515 194.113 249.598C174.472 246.327 130.833 239.19 121.555 244.142C121.555 244.142 115.607 245.777 115.607 248.513C115.814 250.043 116.208 251.541 116.782 252.974L117.6 253.271C117.6 253.271 128.498 252.126 152.02 252.691C175.542 253.256 229.946 256.483 233.441 257.746C234.927 258.311 245.469 255.933 257.156 251.799C266.077 244.528 276.559 235.444 277.615 234.804C279.161 233.838 269.333 227.846 269.333 227.846Z" fill="#7E57C2" fill-opacity="0.4"/>
<path opacity="0.5" d="M269.333 227.846C269.333 227.846 263.876 224.025 257.884 225.66C251.892 227.296 236.608 245.301 233.336 247.963C230.065 250.624 227.389 252.87 227.389 252.87C216.231 252.609 205.108 251.515 194.113 249.598C174.472 246.327 130.833 239.19 121.555 244.142C121.555 244.142 115.607 245.777 115.607 248.513C115.814 250.043 116.208 251.541 116.782 252.974L117.6 253.271C117.6 253.271 128.498 252.126 152.02 252.691C175.542 253.256 229.946 256.483 233.441 257.746C234.927 258.311 245.469 255.933 257.156 251.799C266.077 244.528 276.559 235.444 277.615 234.804C279.161 233.838 269.333 227.846 269.333 227.846Z" fill="white"/>
<path d="M121.644 264.274C117.317 255.932 115.503 249.955 115.503 248.573C115.503 245.837 121.451 244.201 121.451 244.201C130.729 239.295 174.368 246.387 194.009 249.658C205.004 251.575 216.127 252.668 227.285 252.929C227.285 252.929 230.006 250.758 233.232 248.022C236.459 245.287 251.774 227.296 257.78 225.72C263.787 224.144 269.229 227.905 269.229 227.905C269.229 227.905 279.057 233.853 277.407 234.998C275.756 236.142 251.774 256.81 245.767 260.631C239.76 264.452 227.226 262.817 216.312 265.002C206.915 266.876 168.852 269.195 160.124 269.909C153.569 271.464 146.69 270.891 140.482 268.273" stroke="#090231" stroke-linecap="round" stroke-linejoin="round"/>
<path d="M337.104 312.775C338.091 310.902 339.571 309.334 341.385 308.241C343.198 307.148 345.276 306.572 347.393 306.575H446.566C446.566 306.575 453.733 306.575 451.592 320.194C449.451 333.814 420.041 416.974 412.934 442.117C405.827 467.259 404.325 520.251 404.325 520.251H285.376C285.376 520.251 294.803 393.526 337.104 312.775Z" fill="white"/>
<path opacity="0.16" d="M381.769 306.575H347.393C345.276 306.572 343.198 307.148 341.385 308.241C339.571 309.334 338.091 310.902 337.104 312.775C294.803 393.526 285.272 520.206 285.272 520.206H338.621L351.78 470.233L406.645 481.548C407.031 477.355 407.477 473.088 407.998 468.88L406.793 455.498C406.793 455.498 395.553 443.678 392.014 440.719C388.475 437.76 390.824 432.422 390.23 409.361C389.635 386.3 368.938 369.722 361.236 355.522C353.534 341.323 365.384 332.446 376.03 318.247C379.822 313.117 381.368 309.34 381.769 306.575Z" fill="black"/>
<path d="M337.104 312.775C338.091 310.902 339.571 309.334 341.385 308.241C343.198 307.148 345.276 306.572 347.393 306.575H446.567C446.567 306.575 453.733 306.575 451.592 320.194C449.451 333.814 420.041 416.974 412.934 442.117C405.827 467.259 404.325 520.251 404.325 520.251H285.376C285.376 520.251 294.803 393.526 337.104 312.775Z" stroke="#090231" stroke-linecap="round" stroke-linejoin="round"/>
<path d="M429.363 330.231C419.342 353.619 398.139 446.206 394.69 520.206H404.265C404.265 520.206 405.752 467.155 412.874 442.072C419.996 416.989 449.436 333.814 451.532 320.15C453.629 306.486 446.507 306.53 446.507 306.53C446.507 306.53 437.407 311.482 429.363 330.231Z" fill="#090231" stroke="#090231" stroke-linecap="round" stroke-linejoin="round"/>
<path d="M255.149 283.484C255.149 283.484 239.328 274.206 233.336 257.851C227.344 241.495 280.247 215.297 303.219 213.661C326.19 212.026 332.673 218.018 346.337 241.48C360.002 264.943 369.25 297.118 362.158 312.939C355.065 328.759 343.066 332.58 351.75 345.649C360.433 358.719 385.025 395.831 383.39 413.286C381.754 430.742 364.849 445.997 340.271 447.663C315.693 449.328 282.982 434.563 255.714 410.491C228.445 386.419 235.522 351.017 245.306 339.568C255.089 328.119 269.854 323.748 270.939 312.299C272.024 300.85 255.149 283.484 255.149 283.484Z" fill="#090231" stroke="#090231" stroke-linecap="round" stroke-linejoin="round"/>
<path d="M322.578 257.598C330.978 273.24 341.49 294.189 344.776 306.842C350.516 328.997 320.987 342.943 329.179 353.604" stroke="white" stroke-linecap="round" stroke-linejoin="round"/>
<path d="M311.129 237.109C311.129 237.109 314.4 242.685 318.92 250.892" stroke="white" stroke-linecap="round" stroke-linejoin="round"/>
<path d="M355.199 276.466C356.168 279.398 356.797 282.431 357.073 285.506" stroke="white" stroke-linecap="round" stroke-linejoin="round"/>
<path d="M316.809 228.976C316.809 228.976 342.65 248.067 352.969 270.92" stroke="white" stroke-linecap="round" stroke-linejoin="round"/>
<path d="M280.946 243.294C262.494 248.468 235.953 256.869 238.109 261.716" stroke="white" stroke-linecap="round" stroke-linejoin="round"/>
<path d="M298 238.745C298 238.745 294.06 239.726 288.187 241.302" stroke="white" stroke-linecap="round" stroke-linejoin="round"/>
<path d="M275.177 229.11C285.746 225.779 296.816 224.319 307.888 224.798" stroke="white" stroke-linecap="round" stroke-linejoin="round"/>
<path d="M267.653 232.187C269.324 231.317 271.053 230.562 272.827 229.927" stroke="white" stroke-linecap="round" stroke-linejoin="round"/>
<path d="M115.503 248.573C115.496 248.676 115.496 248.781 115.503 248.885C115.496 248.781 115.496 248.676 115.503 248.573ZM121.644 264.274C119.14 259.688 117.145 254.842 115.696 249.821C117.138 254.844 119.133 259.691 121.644 264.274ZM115.533 248.974C115.533 249.063 115.533 249.167 115.533 249.301C115.563 249.167 115.548 249.063 115.533 248.974ZM115.607 249.39C115.626 249.536 115.655 249.68 115.696 249.821C115.655 249.68 115.626 249.536 115.607 249.39ZM121.644 264.259C127.205 274.791 134.123 284.549 142.222 293.282C161.863 314.559 218.602 370.212 223.999 374.033C229.396 377.855 227.82 388.753 223.999 399.667C220.178 410.58 205.993 426.43 206.543 443.856C207.093 461.282 212.491 488.046 212 493.502C211.509 498.959 197.86 517.515 197.86 517.515H338.606C338.606 517.515 321.061 495.212 321.061 487.585C321.061 479.957 345.148 382.226 346.233 375.134C347.319 368.041 342.962 363.135 334.234 362.585C325.507 362.034 292.231 354.942 290.595 349.485C288.96 344.029 299.323 323.302 299.323 323.302L266.612 324.937C266.612 324.937 264.977 339.122 262.791 341.858C260.605 344.594 257.334 339.122 249.692 335.316C242.049 331.509 227.389 328.223 221.873 323.852C216.357 319.481 164.049 270.325 164.049 270.325" fill="white"/>
<path d="M230.229 328.06C232.95 332.818 235.671 337.115 235.671 337.115C235.671 337.115 244.845 342.274 247.134 342.274C249.424 342.274 263.192 349.708 263.192 349.708C263.192 349.708 274.671 346.839 270.627 337.085C269.351 334.588 267.74 332.277 265.839 330.216C265.155 334.542 264.055 340.207 262.761 341.828C260.575 344.549 257.304 339.092 249.662 335.286C244.711 332.818 236.697 330.558 230.229 328.06Z" fill="#7E57C2" fill-opacity="0.4"/>
<path d="M202.216 305.98C185.37 290.383 164.049 270.385 164.049 270.385L151.648 268.6L150.162 269.433C150.162 269.433 185.162 300.404 192.611 303.854C195.625 305.239 198.9 305.964 202.216 305.98Z" fill="#7E57C2" fill-opacity="0.4"/>
<path d="M219.866 322.127L218.527 320.938C219.211 322.068 219.598 322.782 219.598 322.782L219.866 322.127Z" fill="#7E57C2" fill-opacity="0.4"/>
<g opacity="0.5">
<path d="M230.229 328.06C232.95 332.818 235.671 337.115 235.671 337.115C235.671 337.115 244.845 342.274 247.134 342.274C249.424 342.274 263.192 349.708 263.192 349.708C263.192 349.708 274.671 346.839 270.627 337.085C269.351 334.588 267.74 332.277 265.839 330.216C265.155 334.542 264.055 340.207 262.761 341.828C260.575 344.549 257.304 339.092 249.662 335.286C244.711 332.818 236.697 330.558 230.229 328.06Z" fill="white"/>
<path d="M202.216 305.98C185.37 290.383 164.049 270.385 164.049 270.385L151.648 268.6L150.162 269.433C150.162 269.433 185.162 300.404 192.611 303.854C195.625 305.239 198.9 305.964 202.216 305.98Z" fill="white"/>
<path d="M219.866 322.127L218.527 320.938C219.211 322.068 219.598 322.782 219.598 322.782L219.866 322.127Z" fill="white"/>
</g>
<path d="M121.644 264.259C127.205 274.791 134.123 284.549 142.222 293.282C161.863 314.559 218.602 370.212 223.999 374.033C229.396 377.855 227.82 388.753 223.999 399.667C220.178 410.58 205.993 426.43 206.543 443.856C207.093 461.282 212.491 488.046 212 493.502C211.509 498.959 197.86 517.515 197.86 517.515H338.606C338.606 517.515 321.061 495.212 321.061 487.585C321.061 479.957 345.148 382.226 346.233 375.134C347.319 368.041 342.962 363.135 334.234 362.585C325.507 362.034 292.231 354.942 290.595 349.485C288.96 344.029 299.323 323.302 299.323 323.302L266.612 324.937C266.612 324.937 264.977 339.122 262.791 341.858C260.605 344.594 257.334 339.122 249.692 335.316C242.049 331.509 227.389 328.223 221.873 323.852C216.357 319.481 164.049 270.325 164.049 270.325M115.503 248.573C115.496 248.676 115.496 248.781 115.503 248.885C115.496 248.781 115.496 248.676 115.503 248.573V248.573ZM121.644 264.274C119.14 259.688 117.145 254.842 115.696 249.821C117.138 254.844 119.133 259.691 121.644 264.274V264.274ZM115.533 248.974C115.533 249.063 115.533 249.167 115.533 249.301C115.563 249.167 115.548 249.063 115.533 248.974V248.974ZM115.607 249.39C115.626 249.536 115.655 249.68 115.696 249.821C115.655 249.68 115.626 249.536 115.607 249.39Z" stroke="#090231" stroke-linecap="round" stroke-linejoin="round"/>
<path d="M164.049 270.385C164.049 270.385 146.623 270.712 136.899 262.698" stroke="#090231" stroke-linecap="round" stroke-linejoin="round"/>
<path d="M290.61 349.486C288.975 344.044 299.338 323.302 299.338 323.302L266.627 324.938C266.627 324.938 264.992 339.122 262.806 341.858C260.62 344.594 257.349 339.122 249.707 335.316C249.127 335.018 248.488 334.736 247.833 334.453L245.856 365.544C245.856 365.544 248.726 395.652 283.131 389.928C297.063 387.609 311.932 375.178 324.763 361.202C311.56 358.778 291.859 353.664 290.61 349.486Z" fill="white"/>
<path d="M289.688 327.42C289.688 327.42 287.711 338.512 286.12 350.779C284.529 363.046 283.354 372.175 283.354 372.175L290.61 349.485L298.788 325.443C298.788 325.443 290.878 325.443 289.688 327.42Z" fill="#7E57C2" fill-opacity="0.4"/>
<path opacity="0.5" d="M289.688 327.42C289.688 327.42 287.711 338.512 286.12 350.779C284.529 363.046 283.354 372.175 283.354 372.175L290.61 349.485L298.788 325.443C298.788 325.443 290.878 325.443 289.688 327.42Z" fill="white"/>
<path d="M290.61 349.486C288.975 344.044 299.338 323.302 299.338 323.302L266.627 324.938C266.627 324.938 264.992 339.122 262.806 341.858C260.62 344.594 257.349 339.122 249.707 335.316C249.127 335.018 248.488 334.736 247.833 334.453L245.856 365.544C245.856 365.544 248.726 395.652 283.131 389.928C297.063 387.609 311.932 375.178 324.763 361.202C311.56 358.778 291.859 353.664 290.61 349.486Z" stroke="#090231" stroke-linecap="round" stroke-linejoin="round"/>
<path d="M262.791 341.858C260.605 344.579 257.334 339.122 249.692 335.316C244.874 332.892 237.202 330.692 230.853 328.313C229.054 324.045 226.675 318.485 225.144 315.124C222.423 309.177 218.052 312.939 218.052 312.939C215.771 310.345 213.928 307.397 212.595 304.211C209.874 298.263 205.503 298.754 199.511 297.669C193.518 296.583 180.955 285.119 180.955 285.119C180.955 285.119 175.081 280.659 172.658 278.443C169.833 284.004 163.068 293.788 148.437 299.899C171.766 324.268 219.092 370.569 224.059 374.048C229.515 377.855 227.88 388.768 224.059 399.682C220.237 410.595 206.053 426.445 206.603 443.871C207.153 461.297 212.55 488.06 212.06 493.517C211.569 498.379 200.685 513.62 198.321 516.891L203.867 517.515H232.742C232.578 502.884 232.593 443.172 242.6 419.383C254.063 392.039 262.791 341.858 262.791 341.858Z" fill="#7E57C2" fill-opacity="0.4"/>
<path opacity="0.16" d="M249.692 335.316C244.874 332.892 237.202 330.692 230.853 328.313C229.054 324.045 226.675 318.485 225.144 315.124C222.423 309.177 218.052 312.939 218.052 312.939C215.771 310.345 213.928 307.397 212.595 304.211C209.874 298.263 205.502 298.754 199.51 297.669C193.518 296.583 180.955 285.119 180.955 285.119C180.955 285.119 175.081 280.659 172.658 278.443C171.449 280.805 170.009 283.041 168.361 285.119C178.115 293.372 188.879 302.114 192.641 303.854C200.075 307.288 201.815 304.419 207.51 307.868C213.204 311.318 219.553 322.737 219.553 322.737C219.553 322.737 223.003 313.548 225.872 319.867C228.742 326.186 235.626 337.07 235.626 337.07C235.626 337.07 244.8 342.23 247.09 342.23C248.889 342.23 257.706 346.809 261.453 348.787C262.286 344.43 262.746 341.813 262.746 341.813C260.605 344.579 257.334 339.122 249.692 335.316Z" fill="black"/>
<path d="M262.791 341.858C260.605 344.579 257.334 339.122 249.692 335.316C244.874 332.892 237.202 330.692 230.853 328.313C229.054 324.045 226.675 318.485 225.144 315.124C222.423 309.177 218.052 312.939 218.052 312.939C215.771 310.345 213.928 307.397 212.595 304.211C209.874 298.263 205.503 298.754 199.511 297.669C193.518 296.583 180.955 285.119 180.955 285.119C180.955 285.119 175.081 280.659 172.658 278.443C169.833 284.004 163.068 293.788 148.437 299.899C171.766 324.268 219.092 370.569 224.059 374.048C229.515 377.855 227.88 388.768 224.059 399.682C220.237 410.595 206.053 426.445 206.603 443.871C207.153 461.297 212.55 488.06 212.06 493.517C211.569 498.379 200.685 513.62 198.321 516.891L203.867 517.515H232.742C232.578 502.884 232.593 443.172 242.6 419.383C254.063 392.039 262.791 341.858 262.791 341.858Z" stroke="#090231" stroke-linecap="round" stroke-linejoin="round"/>
<path d="M263.178 339.955C263.178 339.955 256.398 337.873 252.22 341.531C248.042 345.189 241.812 363.953 238.139 384.308C235.876 396.157 237.438 408.42 242.6 419.323C242.6 419.323 251.179 396.827 253.781 385.869C256.383 374.911 263.178 339.955 263.178 339.955Z" fill="#7E57C2" fill-opacity="0.4"/>
<path opacity="0.16" d="M250.167 343.27C250.167 343.27 255.074 342.081 257.096 342.765C258.799 343.495 260.391 344.461 261.824 345.634L263.177 339.955C261.148 338.918 258.846 338.538 256.591 338.869C253.216 339.553 250.167 343.27 250.167 343.27Z" fill="black"/>
<path d="M263.178 339.955C263.178 339.955 256.398 337.873 252.22 341.531C248.042 345.189 241.812 363.953 238.139 384.308C235.876 396.157 237.438 408.42 242.6 419.323C242.6 419.323 251.179 396.827 253.781 385.869C256.383 374.911 263.178 339.955 263.178 339.955Z" stroke="#090231" stroke-linecap="round" stroke-linejoin="round"/>
<path d="M217.516 341.739L226.244 377.201L206.603 332.461" stroke="#090231" stroke-linecap="round" stroke-linejoin="round"/>
<path d="M275.013 517.515H338.621C338.621 517.515 321.076 495.212 321.076 487.585C321.076 479.957 345.163 382.226 346.248 375.134C347.334 368.041 342.977 363.135 334.25 362.585C325.522 362.035 292.246 354.942 290.61 349.485C290.61 349.485 278.061 393.675 273.705 423.68C269.958 449.417 273.839 502.825 275.013 517.515Z" fill="#7E57C2" fill-opacity="0.4"/>
<path opacity="0.16" d="M334.249 362.585C327.097 362.139 303.471 357.291 294.268 352.563L297.613 360.295C303.674 363.511 310.193 365.777 316.942 367.015C328.019 368.993 338.323 368.606 345.059 378.509L345.386 379C345.802 377.096 346.085 375.758 346.174 375.134C347.348 368.041 342.977 363.135 334.249 362.585Z" fill="black"/>
<path d="M275.013 517.515H338.621C338.621 517.515 321.076 495.212 321.076 487.585C321.076 479.957 345.163 382.226 346.248 375.134C347.334 368.041 342.977 363.135 334.25 362.585C325.522 362.035 292.246 354.942 290.61 349.485C290.61 349.485 278.061 393.675 273.705 423.68C269.958 449.417 273.839 502.825 275.013 517.515Z" stroke="#090231" stroke-linecap="round" stroke-linejoin="round"/>
<path d="M290.61 349.485C290.61 349.485 273.779 403.012 273.705 423.68C273.705 423.68 297.613 394.73 300.736 374.39C303.858 354.05 290.61 349.485 290.61 349.485Z" fill="#7E57C2" fill-opacity="0.4"/>
<path opacity="0.16" d="M287.711 356.325C290.24 356.24 292.752 356.773 295.029 357.876C297.306 358.98 299.28 360.621 300.78 362.659C300.78 362.659 297.48 352.95 290.61 349.485L287.711 356.325Z" fill="black"/>
<path d="M290.61 349.485C290.61 349.485 273.779 403.012 273.705 423.68C273.705 423.68 297.613 394.73 300.736 374.39C303.858 354.05 290.61 349.485 290.61 349.485Z" stroke="#090231" stroke-linecap="round" stroke-linejoin="round"/>
<path d="M470.297 507.449C470.297 507.449 482.623 507.955 490.696 509.114C496.081 509.844 501.501 510.276 506.933 510.408C506.933 510.408 502.472 501.398 497.714 498.855C492.956 496.313 484.333 491.763 477.106 492.774C469.88 493.785 459.547 501.07 460.409 503.39C461.271 505.709 465.122 506.75 470.297 507.449Z" fill="white"/>
<path d="M470.297 507.449C470.297 507.449 482.623 507.955 490.696 509.114C496.081 509.844 501.501 510.276 506.933 510.408C506.933 510.408 502.472 501.398 497.714 498.855C492.956 496.313 484.333 491.763 477.106 492.774C469.88 493.785 459.547 501.07 460.409 503.39C461.271 505.709 465.122 506.75 470.297 507.449Z" fill="#7E57C2" fill-opacity="0.4"/>
<path opacity="0.5" d="M470.297 507.449C470.297 507.449 482.623 507.955 490.696 509.114C496.081 509.844 501.501 510.276 506.933 510.408C506.933 510.408 502.472 501.398 497.714 498.855C492.956 496.313 484.333 491.763 477.106 492.774C469.88 493.785 459.547 501.07 460.409 503.39C461.271 505.709 465.122 506.75 470.297 507.449Z" fill="white"/>
<path d="M470.297 507.449C470.297 507.449 482.623 507.955 490.696 509.114C496.081 509.844 501.501 510.276 506.933 510.408C506.933 510.408 502.472 501.398 497.714 498.855C492.956 496.313 484.333 491.763 477.106 492.774C469.88 493.785 459.547 501.07 460.409 503.39C461.271 505.709 465.122 506.75 470.297 507.449Z" stroke="#090231" stroke-linecap="round" stroke-linejoin="round"/>
<path d="M490.771 503.762C490.771 503.762 500.539 498.691 502.978 498.766C505.416 498.84 521.623 509.798 520.82 511.553C520.275 512.366 519.487 512.988 518.57 513.33C517.652 513.671 516.649 513.715 515.705 513.456C513.906 512.608 502.992 507.969 502.992 507.969L495.856 509.65L490.771 503.762Z" fill="white"/>
<path d="M490.771 503.762C490.771 503.762 500.539 498.691 502.978 498.766C505.416 498.84 521.623 509.798 520.82 511.553C520.017 513.307 516.181 514.735 515.705 513.456C515.229 512.177 502.992 507.969 502.992 507.969L495.856 509.65L490.771 503.762Z" fill="#7E57C2" fill-opacity="0.4"/>
<path opacity="0.5" d="M490.771 503.762C490.771 503.762 500.539 498.691 502.978 498.766C505.416 498.84 521.623 509.798 520.82 511.553C520.017 513.307 516.181 514.735 515.705 513.456C515.229 512.177 502.992 507.969 502.992 507.969L495.856 509.65L490.771 503.762Z" fill="white"/>
<path d="M490.771 503.762C490.771 503.762 500.539 498.691 502.978 498.766C505.416 498.84 521.623 509.798 520.82 511.553C520.275 512.366 519.487 512.988 518.57 513.33C517.652 513.671 516.649 513.715 515.705 513.456C513.906 512.608 502.992 507.969 502.992 507.969L495.856 509.65L490.771 503.762Z" stroke="#090231" stroke-linecap="round" stroke-linejoin="round"/>
<path d="M483.797 495.42C483.797 495.42 496.822 495.004 499.409 496.312C501.996 497.621 513.683 517.664 511.929 519.121C510.174 520.578 505.327 520.147 505.476 518.526C505.624 516.905 494.711 506.17 494.711 506.17L486.221 504.312L483.797 495.42Z" fill="white"/>
<path d="M483.797 495.42C483.797 495.42 496.822 495.004 499.409 496.312C501.996 497.621 513.683 517.664 511.929 519.121C510.174 520.578 505.327 520.147 505.476 518.526C505.624 516.905 494.711 506.17 494.711 506.17L486.221 504.312L483.797 495.42Z" fill="#7E57C2" fill-opacity="0.4"/>
<path opacity="0.5" d="M483.797 495.42C483.797 495.42 496.822 495.004 499.409 496.312C501.996 497.621 513.683 517.664 511.929 519.121C510.174 520.578 505.327 520.147 505.476 518.526C505.624 516.905 494.711 506.17 494.711 506.17L486.221 504.312L483.797 495.42Z" fill="white"/>
<path d="M483.797 495.42C483.797 495.42 496.822 495.004 499.409 496.312C501.996 497.621 513.683 517.664 511.929 519.121C510.174 520.578 505.327 520.147 505.476 518.526C505.624 516.905 494.711 506.17 494.711 506.17L486.221 504.312L483.797 495.42Z" stroke="#090231" stroke-linecap="round" stroke-linejoin="round"/>
<path d="M476.081 492.729C476.081 492.729 489.269 492.298 491.886 493.636C494.503 494.974 506.338 515.24 504.554 516.727C502.77 518.214 497.893 517.753 498.041 516.117C498.19 514.482 487.143 503.613 487.143 503.613L478.549 501.725L476.081 492.729Z" fill="white"/>
<path d="M476.081 492.729C476.081 492.729 489.269 492.298 491.886 493.636C494.503 494.974 506.338 515.24 504.554 516.727C502.77 518.214 497.893 517.753 498.041 516.117C498.19 514.482 487.143 503.613 487.143 503.613L478.549 501.725L476.081 492.729Z" fill="#7E57C2" fill-opacity="0.4"/>
<path opacity="0.5" d="M476.081 492.729C476.081 492.729 489.269 492.298 491.886 493.636C494.503 494.974 506.338 515.24 504.554 516.727C502.77 518.214 497.893 517.753 498.041 516.117C498.19 514.482 487.143 503.613 487.143 503.613L478.549 501.725L476.081 492.729Z" fill="white"/>
<path d="M476.081 492.729C476.081 492.729 489.269 492.298 491.886 493.636C494.503 494.974 506.338 515.24 504.554 516.727C502.77 518.214 497.893 517.753 498.041 516.117C498.19 514.482 487.143 503.613 487.143 503.613L478.549 501.725L476.081 492.729Z" stroke="#090231" stroke-linecap="round" stroke-linejoin="round"/>
<path d="M326.131 417.167C335.676 431.872 354.842 469.133 360.433 473.326C369.16 479.868 427.505 495.748 433.125 500.089C438.745 504.431 438.359 508.787 443.682 510.378C449.005 511.969 468.958 516.534 476.571 517.247C484.184 517.961 480.779 513.248 480.779 513.248L467.798 504.327L479.113 501.531C479.113 501.531 490.458 515.181 492.584 515.924C494.711 516.668 498.457 515.924 498.22 514.244C497.803 511.553 485.7 489.532 481.403 488.596C477.106 487.659 451.027 491.272 451.027 491.272C451.027 491.272 396.325 454.383 395.344 453.075C395.344 453.075 392.073 443.797 389.397 439.976C386.72 436.154 385.025 437.255 385.025 437.255C385.025 437.255 386.125 432.333 384.49 430.698L375.762 421.97L375.45 422.386C373.963 419.412 372.476 416.022 370.841 412.157C366.276 401.407 350.114 371.238 347.393 366.882C345.356 363.626 328.287 361.291 319.633 360.31" fill="#7E57C2" fill-opacity="0.4"/>
<path opacity="0.16" d="M364.135 418.104C371.272 424.438 368.893 424.438 367.302 429.999C365.711 435.56 368.492 428.021 375.227 428.423C381.962 428.824 379.985 437.522 379.182 439.113C378.379 440.704 387.508 442.682 385.918 446.235C384.327 449.789 375.227 454.948 370.082 460.108C364.938 465.267 383.539 451.781 389.873 451.395C391.805 451.261 393.396 451.514 394.735 451.484C393.331 447.505 391.527 443.68 389.352 440.065C386.616 436.244 384.981 437.344 384.981 437.344C384.981 437.344 386.081 432.422 384.446 430.787L375.718 422.059L375.405 422.475C373.919 419.502 372.432 416.112 370.796 412.246C366.232 401.496 350.069 371.327 347.348 366.971C345.311 363.715 328.242 361.38 319.589 360.399L320.377 367.283L320.57 367.432C320.57 367.432 331.261 369.409 334.829 369.811C338.398 370.212 342.754 373.364 342.353 375.758C341.951 378.152 331.662 388.828 334.829 389.631C337.996 390.433 341.565 381.706 345.133 382.895C348.701 384.085 356.954 411.77 364.135 418.104Z" fill="black"/>
<path d="M326.131 417.167C335.676 431.872 354.842 469.133 360.433 473.326C369.16 479.868 427.505 495.748 433.125 500.089C438.745 504.431 438.359 508.787 443.682 510.378C449.005 511.969 468.958 516.534 476.571 517.247C484.184 517.961 480.779 513.248 480.779 513.248L467.798 504.327L479.113 501.531C479.113 501.531 490.458 515.181 492.584 515.924C494.711 516.668 498.457 515.924 498.22 514.244C497.803 511.553 485.7 489.532 481.403 488.596C477.106 487.659 451.027 491.272 451.027 491.272C451.027 491.272 396.325 454.383 395.344 453.075C395.344 453.075 392.073 443.797 389.397 439.976C386.72 436.154 385.025 437.255 385.025 437.255C385.025 437.255 386.125 432.333 384.49 430.698L375.762 421.97L375.45 422.386C373.963 419.412 372.476 416.022 370.841 412.157C366.276 401.407 350.114 371.238 347.393 366.882C345.356 363.626 328.287 361.291 319.633 360.31" stroke="#090231" stroke-linecap="round" stroke-linejoin="round"/>
<path d="M326.28 396.99C325.878 398.329 325.536 399.667 325.269 401.035" stroke="#090231" stroke-linecap="round" stroke-linejoin="round"/>
<path d="M340.732 372.383C336.06 377.709 332.12 383.634 329.016 390.002" stroke="#090231" stroke-linecap="round" stroke-linejoin="round"/>
<path d="M362.574 456.807C366.588 450.859 372.982 443.321 380.029 441.165" stroke="#090231" stroke-linecap="round" stroke-linejoin="round"/>
<path d="M358.128 464.122C358.128 464.122 358.842 462.724 360.121 460.613" stroke="#090231" stroke-linecap="round" stroke-linejoin="round"/>
<path d="M358.128 454.725C358.128 454.725 365.429 436.467 372.729 431.768C380.03 427.07 375.852 436.467 375.852 436.467" stroke="#090231" stroke-linecap="round" stroke-linejoin="round"/>
<path d="M433.125 500.104C438.76 504.46 438.359 508.802 443.682 510.393C449.005 511.984 468.959 516.549 476.571 517.262C484.184 517.976 480.779 513.263 480.779 513.263L467.799 504.342L479.114 501.546C479.114 501.546 490.458 515.196 492.585 515.939C494.711 516.682 498.755 516.95 498.22 514.259C497.179 509.055 485.701 489.547 481.403 488.611C477.106 487.674 451.027 491.287 451.027 491.287C451.027 491.287 401.202 457.089 395.746 453.387C374.588 455.424 364.522 466.501 360.284 473.147L360.433 473.266C369.161 479.868 427.505 495.748 433.125 500.104Z" fill="white"/>
<path d="M498.205 514.318C495.499 507.702 485.686 489.607 481.389 488.67C477.092 487.733 451.012 491.346 451.012 491.346C451.012 491.346 401.188 457.149 395.731 453.447C390.178 453.929 384.729 455.248 379.569 457.357C387.434 461.818 439.861 491.555 446.477 492.878C453.495 494.365 476.913 490.514 481.032 493.279C483.649 495.034 491.44 507.39 496.703 516.162C498.205 515.939 498.755 515.657 498.205 514.318Z" fill="#7E57C2" fill-opacity="0.4"/>
<path opacity="0.5" d="M498.205 514.318C493.982 504.847 485.686 489.607 481.389 488.67C477.092 487.733 451.012 491.346 451.012 491.346C451.012 491.346 401.188 457.149 395.731 453.447C390.178 453.929 384.729 455.248 379.569 457.357C387.434 461.818 439.861 491.555 446.477 492.878C453.495 494.365 476.913 490.514 481.032 493.279C483.649 495.034 491.44 507.39 496.703 516.162C498.205 515.939 498.8 515.642 498.205 514.318Z" fill="white"/>
<path d="M433.125 500.104C438.76 504.46 438.359 508.802 443.682 510.393C449.005 511.984 468.959 516.549 476.571 517.262C484.184 517.976 480.779 513.263 480.779 513.263L467.799 504.342L479.114 501.546C479.114 501.546 490.458 515.196 492.585 515.939C494.711 516.682 498.755 516.95 498.22 514.259C497.179 509.055 485.701 489.547 481.403 488.611C477.106 487.674 451.027 491.287 451.027 491.287C451.027 491.287 401.202 457.089 395.746 453.387C374.588 455.424 364.522 466.501 360.284 473.147L360.433 473.266C369.161 479.868 427.505 495.748 433.125 500.104Z" stroke="#090231" stroke-linecap="round" stroke-linejoin="round"/>
<path d="M301.717 240.469L256.933 259.159C256.39 267.03 254.441 274.74 251.179 281.923C245.886 293.119 248.978 314.306 254.063 325.74C259.148 337.174 281.555 332.699 289.748 331.272C295.304 330.215 300.746 328.626 305.999 326.528C308.391 327.45 310.978 327.748 313.517 327.395C316.055 327.041 318.462 326.047 320.511 324.506C320.511 324.506 296.543 257.226 301.717 240.469Z" fill="white"/>
<path d="M301.717 240.469L256.933 259.159C256.39 267.03 254.441 274.74 251.179 281.923C245.886 293.119 248.978 314.306 254.063 325.74C254.914 327.579 256.284 329.129 258.003 330.201V329.339C258.003 329.339 249.692 308.746 251.268 296.866C252.844 284.986 259.594 279.023 260.382 271.515C261.17 264.006 260.769 260.438 275.831 254.892C290.893 249.346 297.212 244.201 298.788 249.732C300.364 255.263 306.713 291.721 311.069 300.434C315.426 309.147 315.024 318.276 308.304 322.217C301.511 326.294 294.233 329.501 286.64 331.762L289.807 331.212C295.364 330.155 300.806 328.567 306.059 326.469C308.45 327.391 311.037 327.689 313.576 327.335C316.115 326.981 318.522 325.987 320.57 324.447C320.57 324.447 296.543 257.226 301.717 240.469Z" fill="#7E57C2" fill-opacity="0.4"/>
<path opacity="0.5" d="M301.717 240.469L256.933 259.159C256.39 267.03 254.441 274.74 251.179 281.923C245.886 293.119 248.978 314.306 254.063 325.74C254.914 327.579 256.284 329.129 258.003 330.201V329.339C258.003 329.339 249.692 308.746 251.268 296.866C252.844 284.986 259.594 279.023 260.382 271.515C261.17 264.006 260.769 260.438 275.831 254.892C290.893 249.346 297.212 244.201 298.788 249.732C300.364 255.263 306.713 291.721 311.069 300.434C315.426 309.147 315.024 318.276 308.304 322.217C301.511 326.294 294.233 329.501 286.64 331.762L289.807 331.212C295.364 330.155 300.806 328.567 306.059 326.469C308.45 327.391 311.037 327.689 313.576 327.335C316.115 326.981 318.522 325.987 320.57 324.447C320.57 324.447 296.543 257.226 301.717 240.469Z" fill="white"/>
<path d="M301.717 240.469L256.933 259.159C256.39 267.03 254.441 274.74 251.179 281.923C245.886 293.119 248.978 314.306 254.063 325.74C259.148 337.174 281.555 332.699 289.748 331.272C295.304 330.215 300.746 328.626 305.999 326.528C308.391 327.45 310.978 327.748 313.517 327.395C316.055 327.041 318.462 326.047 320.511 324.506C320.511 324.506 296.543 257.226 301.717 240.469Z" stroke="#090231" stroke-linecap="round" stroke-linejoin="round"/>
<path d="M279.087 269.775C279.208 272.408 278.882 275.043 278.12 277.566C276.931 280.54 265.705 292.227 266.047 293.491C266.389 294.754 267.4 298.813 269.393 299.2" stroke="#090231" stroke-linecap="round" stroke-linejoin="round"/>
<path d="M291.532 280.228C293.093 277.105 298.223 280.153 298.148 287.186" stroke="#090231" stroke-linecap="round" stroke-linejoin="round"/>
<path d="M266.107 271.039C266.107 271.039 270.478 269.121 274.389 276.198" stroke="#090231" stroke-linecap="round" stroke-linejoin="round"/>
<path d="M285.317 290.532C290.368 290.786 295.171 292.801 298.892 296.226" stroke="#090231" stroke-width="0.5" stroke-linecap="round" stroke-linejoin="round"/>
<path d="M260.829 281.239C263.44 281.587 265.992 282.293 268.412 283.335" stroke="#090231" stroke-width="0.5" stroke-linecap="round" stroke-linejoin="round"/>
<path d="M278.596 263.174C277.442 262.563 276.161 262.229 274.856 262.198C273.55 262.167 272.255 262.44 271.073 262.995C267.073 264.913 264.62 267.025 264.888 264.571C265.155 262.118 269.854 259.412 271.266 259.055C272.679 258.698 278.998 257.717 278.596 263.174Z" fill="#090231"/>
<path d="M289.807 257.628C293.975 261 297.287 265.31 299.472 270.206C302.445 277.641 304.795 269.522 302.445 264.66C300.096 259.798 293.301 254.624 289.807 257.628Z" fill="#090231"/>
<path d="M321.165 337.219C321.165 340.683 319.202 343.493 316.793 343.493C314.385 343.493 312.437 340.683 312.437 337.219C312.437 333.755 314.385 324.938 316.793 324.938C319.202 324.938 321.165 333.755 321.165 337.219Z" fill="#7E57C2" fill-opacity="0.4" stroke="#090231" stroke-linecap="round" stroke-linejoin="round"/>
<path d="M291.918 278.875C291.747 279.329 291.613 279.797 291.517 280.272C291.086 282.473 290.655 287.067 291.517 287.261C292.379 287.454 294.491 283.157 294.862 280.956C294.946 280.525 294.996 280.087 295.011 279.648C293.996 279.33 292.964 279.072 291.918 278.875Z" fill="#090231"/>
<path d="M266.553 270.608C266.421 270.996 266.316 271.394 266.241 271.797C265.795 273.998 265.809 278.83 266.746 279.009C267.683 279.187 269.214 274.667 269.645 272.466C269.753 271.933 269.813 271.39 269.824 270.846C268.76 270.553 267.648 270.472 266.553 270.608Z" fill="#090231"/>
<path d="M291.532 280.302L293.019 277.536C295.376 277.996 297.512 279.231 299.085 281.045" stroke="#090231" stroke-width="0.75" stroke-linecap="round" stroke-linejoin="round"/>
<path d="M266.553 270.608L268.04 268.868C268.04 268.868 268.679 268.556 272.188 270.147" stroke="#090231" stroke-width="0.75" stroke-linecap="round" stroke-linejoin="round"/>
<path d="M260.917 310.931C260.917 310.931 263.415 306.337 266.761 306.337C270.106 306.337 272.604 313.846 272.604 313.846" stroke="#090231" stroke-linecap="round" stroke-linejoin="round"/>
<path d="M153.254 509.07C150.021 508.909 146.846 508.153 143.887 506.84C143.475 506.687 143.097 506.452 142.779 506.149C142.46 505.846 142.206 505.481 142.033 505.077C141.859 504.673 141.77 504.238 141.77 503.798C141.77 503.358 141.86 502.923 142.034 502.519C142.207 502.115 142.461 501.75 142.781 501.448C143.1 501.145 143.477 500.91 143.89 500.758C144.302 500.606 144.742 500.539 145.181 500.562C145.62 500.585 146.05 500.698 146.445 500.892C149.418 502.156 153.269 502.944 154.295 502.498C156.183 500.387 159.083 487.629 155.336 481.474C154.488 480.106 153.7 479.853 153.18 479.794C151.054 479.496 147.902 481.682 146.787 482.767C146.476 483.06 146.111 483.289 145.712 483.441C145.313 483.593 144.888 483.664 144.462 483.652C144.035 483.64 143.615 483.543 143.226 483.368C142.836 483.194 142.485 482.944 142.192 482.634C141.899 482.323 141.67 481.958 141.519 481.559C141.367 481.16 141.295 480.735 141.308 480.309C141.32 479.882 141.416 479.462 141.591 479.073C141.766 478.683 142.015 478.332 142.326 478.039C142.906 477.474 148.273 472.642 153.998 473.415C155.418 473.622 156.77 474.154 157.951 474.969C159.132 475.784 160.11 476.86 160.808 478.113C166.324 487.109 162.547 504.223 158.31 507.613C156.837 508.654 155.056 509.168 153.254 509.07Z" fill="white"/>
<path d="M157.611 480.492C157.221 479.569 156.61 478.755 155.833 478.123C155.055 477.49 154.134 477.058 153.15 476.864C149.433 476.27 145.939 480.002 145.553 480.418C145.197 480.846 144.978 481.371 144.922 481.924C144.866 482.478 144.977 483.035 145.24 483.526C145.825 483.408 146.366 483.13 146.802 482.723C147.917 481.682 151.069 479.496 153.195 479.749C153.715 479.749 154.503 480.061 155.351 481.429C159.098 487.525 156.198 500.342 154.31 502.453C153.284 502.899 149.448 502.111 146.46 500.847C146.092 500.693 145.699 500.607 145.3 500.595C145.327 501.002 145.455 501.397 145.673 501.742C145.892 502.087 146.192 502.373 146.549 502.572C148.429 503.576 150.503 504.165 152.63 504.297C153.844 504.355 155.033 503.939 155.946 503.137C158.741 500.565 161.209 487.406 157.611 480.492Z" fill="#7E57C2" fill-opacity="0.4"/>
<path opacity="0.5" d="M157.611 480.492C157.221 479.569 156.61 478.755 155.833 478.123C155.055 477.49 154.134 477.058 153.15 476.864C149.433 476.27 145.939 480.002 145.553 480.418C145.197 480.846 144.978 481.371 144.922 481.924C144.866 482.478 144.977 483.035 145.24 483.526C145.825 483.408 146.366 483.13 146.802 482.723C147.917 481.682 151.069 479.496 153.195 479.749C153.715 479.749 154.503 480.061 155.351 481.429C159.098 487.525 156.198 500.342 154.31 502.453C153.284 502.899 149.448 502.111 146.46 500.847C146.092 500.693 145.699 500.607 145.3 500.595C145.327 501.002 145.455 501.397 145.673 501.742C145.892 502.087 146.192 502.373 146.549 502.572C148.429 503.576 150.503 504.165 152.63 504.297C153.844 504.355 155.033 503.939 155.946 503.137C158.741 500.565 161.209 487.406 157.611 480.492Z" fill="white"/>
<path d="M153.254 509.07C150.021 508.909 146.846 508.153 143.887 506.84C143.475 506.687 143.097 506.452 142.779 506.149C142.46 505.846 142.206 505.481 142.033 505.077C141.859 504.673 141.77 504.238 141.77 503.798C141.77 503.358 141.86 502.923 142.034 502.519C142.207 502.115 142.461 501.75 142.781 501.448C143.1 501.145 143.477 500.91 143.89 500.758C144.302 500.606 144.742 500.539 145.181 500.562C145.62 500.585 146.05 500.698 146.445 500.892C149.418 502.156 153.269 502.944 154.295 502.498C156.183 500.387 159.083 487.629 155.336 481.474C154.488 480.106 153.7 479.853 153.18 479.794C151.054 479.496 147.902 481.682 146.787 482.767C146.476 483.06 146.111 483.289 145.712 483.441C145.313 483.593 144.888 483.664 144.462 483.652C144.035 483.64 143.615 483.543 143.226 483.368C142.836 483.194 142.485 482.944 142.192 482.634C141.899 482.323 141.67 481.958 141.519 481.559C141.367 481.16 141.295 480.735 141.308 480.309C141.32 479.882 141.416 479.462 141.591 479.073C141.766 478.683 142.015 478.332 142.326 478.039C142.906 477.474 148.273 472.642 153.998 473.415C155.418 473.622 156.77 474.154 157.951 474.969C159.132 475.784 160.11 476.86 160.808 478.113C166.324 487.109 162.547 504.223 158.31 507.613C156.837 508.654 155.056 509.168 153.254 509.07V509.07Z" stroke="#090231" stroke-linecap="round" stroke-linejoin="round"/>
<path d="M147.575 470.709H111.816V518.169H147.575V470.709Z" fill="white"/>
<path d="M126.461 470.709H111.816V518.169H126.461V470.709Z" fill="#7E57C2" fill-opacity="0.4"/>
<path opacity="0.5" d="M126.461 470.709H111.816V518.169H126.461V470.709Z" fill="white"/>
<path d="M147.575 470.709H111.816V518.169H147.575V470.709Z" stroke="#090231" stroke-linecap="round" stroke-linejoin="round"/>
<path d="M344.078 517.515H191.318L186.337 433.537C186.199 432.723 186.24 431.889 186.456 431.092C186.672 430.295 187.058 429.554 187.588 428.921C188.119 428.288 188.78 427.777 189.526 427.424C190.273 427.071 191.087 426.884 191.913 426.876H343.423C344.254 426.876 345.075 427.056 345.829 427.405C346.583 427.755 347.251 428.264 347.788 428.898C348.324 429.533 348.716 430.276 348.936 431.078C349.155 431.879 349.197 432.718 349.059 433.537L344.078 517.515Z" fill="#090231" stroke="#090231" stroke-linecap="round" stroke-linejoin="round"/>
<path d="M198.842 428.884H342.323C343.134 428.875 343.936 429.044 344.675 429.379C345.413 429.713 346.069 430.205 346.598 430.82C347.126 431.434 347.514 432.157 347.733 432.937C347.953 433.718 347.999 434.536 347.869 435.337" stroke="white" stroke-linecap="round" stroke-linejoin="round"/>
<path d="M187.452 434.013C187.572 432.608 188.217 431.3 189.259 430.349C190.3 429.398 191.662 428.875 193.072 428.884" stroke="white" stroke-linecap="round" stroke-linejoin="round"/>
<path d="M344.717 509.337H190.679V517.515H344.717V509.337Z" fill="white" stroke="#090231" stroke-linecap="round" stroke-linejoin="round"/>
<path d="M267.147 479.065C273.175 479.065 278.061 476.136 278.061 472.523C278.061 468.91 273.175 465.981 267.147 465.981C261.12 465.981 256.234 468.91 256.234 472.523C256.234 476.136 261.12 479.065 267.147 479.065Z" fill="white" stroke="#090231" stroke-linecap="round" stroke-linejoin="round"/>
<path d="M577.053 516.549H3.33472V530.48H577.053V516.549Z" fill="#090231"/>
<path d="M428.293 0H152.288C142.984 0 135.442 7.54225 135.442 16.8461V175.211C135.442 184.515 142.984 192.057 152.288 192.057H428.293C437.597 192.057 445.139 184.515 445.139 175.211V16.8461C445.139 7.54225 437.597 0 428.293 0Z" fill="#7E57C2" fill-opacity="0.4"/>
<path d="M297.573 110.37C322.61 106.346 339.644 82.7881 335.62 57.7517C331.597 32.7153 308.039 15.6811 283.003 19.7047C257.966 23.7283 240.932 47.2861 244.956 72.3225C248.979 97.3589 272.537 114.393 297.573 110.37Z" fill="#090231"/>
<path d="M289.941 73.525L274.641 93.1664C274.121 93.984 273.406 94.6594 272.56 95.1318C271.714 95.6041 270.763 95.8587 269.794 95.8724C268.465 95.8906 267.182 95.3829 266.226 94.4599C265.739 94.0138 265.355 93.4682 265.098 92.8601C264.842 92.252 264.719 91.5958 264.739 90.9361C264.787 89.4587 265.308 88.0358 266.226 86.8769L283.667 65.3027L267.311 43.7135C266.551 42.7003 266.134 41.471 266.122 40.2045C266.118 39.4492 266.27 38.7013 266.57 38.0078C266.869 37.3143 267.309 36.6903 267.861 36.1752C268.38 35.6335 269.003 35.2027 269.693 34.9088C270.383 34.6149 271.126 34.464 271.876 34.4653C272.836 34.4808 273.778 34.7366 274.614 35.2093C275.45 35.682 276.155 36.3565 276.663 37.1714L291.443 56.6343L306.311 37.4985C306.843 36.6057 307.586 35.8578 308.476 35.3209C309.365 34.7841 310.374 34.4749 311.411 34.4207C312.055 34.4191 312.693 34.5503 313.284 34.8061C313.875 35.0619 314.406 35.4369 314.846 35.9075C315.314 36.3487 315.688 36.8809 315.944 37.4715C316.199 38.062 316.332 38.6986 316.333 39.3422C316.317 40.4938 315.92 41.6076 315.203 42.5092L297.702 64.9012L314.608 87.204C315.407 88.201 315.852 89.4355 315.872 90.713C315.877 91.4518 315.721 92.1827 315.415 92.8553C315.11 93.5279 314.662 94.1262 314.103 94.6086C313.012 95.6577 311.557 96.2438 310.043 96.2441C309.078 96.2322 308.131 95.9781 307.29 95.5054C306.448 95.0326 305.738 94.3562 305.226 93.5381L289.941 73.525Z" fill="white"/>
<path d="M377.77 158.796H202.752C199.203 158.796 195.799 157.386 193.29 154.877C190.78 152.367 189.37 148.964 189.37 145.415C189.37 141.865 190.78 138.462 193.29 135.952C195.799 133.443 199.203 132.033 202.752 132.033H377.77C381.319 132.033 384.722 133.443 387.232 135.952C389.741 138.462 391.151 141.865 391.151 145.415C391.151 148.964 389.741 152.367 387.232 154.877C384.722 157.386 381.319 158.796 377.77 158.796Z" fill="white"/>
<path d="M226.735 149.726C226.618 149.726 226.502 149.703 226.395 149.657C226.288 149.611 226.191 149.543 226.11 149.459C226.022 149.371 225.953 149.267 225.907 149.152C225.861 149.037 225.839 148.914 225.843 148.79C225.842 148.58 225.899 148.375 226.006 148.195L227.344 146.113H224.609C224.482 146.12 224.356 146.099 224.238 146.053C224.12 146.007 224.013 145.936 223.925 145.846C223.772 145.668 223.688 145.441 223.688 145.206C223.688 144.972 223.772 144.745 223.925 144.567C224.013 144.476 224.12 144.406 224.238 144.36C224.356 144.313 224.482 144.293 224.609 144.299L227.3 144.374L226.11 142.441C225.991 142.243 225.924 142.018 225.917 141.787C225.914 141.663 225.935 141.539 225.982 141.424C226.028 141.309 226.097 141.205 226.185 141.117C226.268 141.032 226.367 140.965 226.477 140.919C226.587 140.873 226.705 140.85 226.824 140.85C226.99 140.847 227.154 140.894 227.294 140.984C227.434 141.074 227.545 141.203 227.612 141.355L228.92 143.69L230.169 141.459C230.248 141.286 230.373 141.137 230.53 141.03C230.687 140.922 230.871 140.86 231.062 140.85C231.178 140.85 231.294 140.874 231.401 140.92C231.509 140.966 231.605 141.033 231.686 141.117C231.773 141.199 231.842 141.298 231.888 141.409C231.934 141.519 231.957 141.637 231.954 141.757C231.952 141.968 231.89 142.174 231.775 142.352L230.467 144.448L233.188 144.374C233.314 144.366 233.441 144.386 233.559 144.432C233.677 144.479 233.784 144.55 233.872 144.641C234.025 144.819 234.109 145.046 234.109 145.281C234.109 145.515 234.025 145.742 233.872 145.92C233.784 146.011 233.677 146.083 233.559 146.129C233.441 146.175 233.314 146.195 233.188 146.188H230.437L231.656 148.091C231.794 148.321 231.871 148.582 231.879 148.849C231.884 148.97 231.863 149.09 231.82 149.202C231.776 149.315 231.711 149.417 231.627 149.503C231.548 149.587 231.454 149.654 231.349 149.7C231.244 149.746 231.131 149.77 231.017 149.771C230.833 149.766 230.654 149.71 230.501 149.607C230.348 149.504 230.228 149.36 230.155 149.191L228.92 147.005L227.686 149.191C227.597 149.363 227.459 149.506 227.29 149.601C227.121 149.696 226.928 149.739 226.735 149.726Z" fill="black"/>
<path d="M240.384 149.726C240.267 149.726 240.152 149.703 240.044 149.657C239.937 149.611 239.84 149.543 239.76 149.459C239.672 149.371 239.603 149.267 239.557 149.152C239.511 149.037 239.489 148.914 239.492 148.79C239.492 148.58 239.548 148.375 239.656 148.195L240.994 146.113H238.258C238.131 146.12 238.005 146.099 237.887 146.053C237.769 146.007 237.662 145.936 237.574 145.846C237.421 145.668 237.337 145.441 237.337 145.206C237.337 144.972 237.421 144.745 237.574 144.567C237.662 144.476 237.769 144.406 237.887 144.36C238.005 144.313 238.131 144.293 238.258 144.299L240.949 144.374L239.685 142.366C239.566 142.168 239.5 141.943 239.492 141.712C239.489 141.588 239.511 141.465 239.557 141.35C239.603 141.235 239.672 141.13 239.76 141.043C239.843 140.958 239.942 140.891 240.052 140.845C240.162 140.799 240.28 140.775 240.399 140.775C240.566 140.773 240.729 140.82 240.869 140.91C241.009 140.999 241.12 141.129 241.187 141.281L242.496 143.615L243.744 141.385C243.823 141.212 243.948 141.063 244.105 140.955C244.263 140.848 244.446 140.786 244.637 140.775C244.753 140.775 244.869 140.799 244.976 140.845C245.084 140.891 245.181 140.959 245.261 141.043C245.348 141.125 245.417 141.224 245.463 141.334C245.509 141.444 245.532 141.563 245.529 141.682C245.527 141.894 245.465 142.1 245.35 142.277L244.042 144.374L246.763 144.299C246.889 144.292 247.016 144.312 247.134 144.358C247.252 144.404 247.359 144.476 247.447 144.567C247.6 144.745 247.684 144.972 247.684 145.206C247.684 145.441 247.6 145.668 247.447 145.846C247.359 145.937 247.252 146.008 247.134 146.055C247.016 146.101 246.889 146.121 246.763 146.113H244.012L245.231 148.016C245.369 148.246 245.446 148.507 245.454 148.775C245.459 148.895 245.438 149.015 245.395 149.128C245.351 149.24 245.286 149.343 245.202 149.429C245.123 149.512 245.029 149.579 244.924 149.625C244.819 149.671 244.706 149.695 244.592 149.697C244.407 149.694 244.228 149.638 244.075 149.535C243.922 149.432 243.802 149.287 243.73 149.117L242.496 146.931L241.261 149.117C241.188 149.291 241.067 149.441 240.911 149.549C240.756 149.657 240.573 149.719 240.384 149.726Z" fill="black"/>
<path d="M254.033 149.726C253.917 149.726 253.801 149.703 253.694 149.657C253.586 149.611 253.489 149.543 253.409 149.459C253.321 149.371 253.252 149.267 253.206 149.152C253.16 149.037 253.138 148.914 253.141 148.79C253.141 148.58 253.198 148.375 253.305 148.195L254.643 146.113H251.907C251.781 146.12 251.654 146.099 251.536 146.053C251.418 146.007 251.312 145.936 251.223 145.846C251.07 145.668 250.986 145.441 250.986 145.206C250.986 144.972 251.07 144.745 251.223 144.567C251.312 144.476 251.418 144.406 251.536 144.36C251.654 144.313 251.781 144.293 251.907 144.299L254.598 144.374L253.335 142.366C253.215 142.168 253.149 141.943 253.141 141.712C253.138 141.588 253.16 141.465 253.206 141.35C253.252 141.235 253.321 141.13 253.409 141.043C253.492 140.958 253.592 140.891 253.701 140.845C253.811 140.799 253.929 140.775 254.048 140.775C254.215 140.773 254.378 140.82 254.518 140.91C254.659 140.999 254.769 141.129 254.836 141.281L256.145 143.615L257.394 141.385C257.472 141.212 257.597 141.063 257.754 140.955C257.912 140.848 258.095 140.786 258.286 140.775C258.403 140.775 258.518 140.799 258.625 140.845C258.733 140.891 258.83 140.959 258.91 141.043C258.997 141.125 259.066 141.224 259.112 141.334C259.159 141.444 259.181 141.563 259.178 141.682C259.176 141.894 259.114 142.1 258.999 142.277L257.691 144.374L260.412 144.299C260.539 144.292 260.665 144.312 260.783 144.358C260.901 144.404 261.008 144.476 261.096 144.567C261.249 144.745 261.333 144.972 261.333 145.206C261.333 145.441 261.249 145.668 261.096 145.846C261.008 145.937 260.901 146.008 260.783 146.055C260.665 146.101 260.539 146.121 260.412 146.113H257.661L258.88 148.016C259.018 148.246 259.095 148.507 259.104 148.775C259.108 148.895 259.088 149.015 259.044 149.128C259.001 149.24 258.935 149.343 258.851 149.429C258.772 149.512 258.678 149.579 258.573 149.625C258.469 149.671 258.356 149.695 258.241 149.697C258.057 149.694 257.877 149.638 257.724 149.535C257.571 149.432 257.451 149.287 257.379 149.117L256.145 146.931L254.911 149.117C254.837 149.291 254.716 149.441 254.561 149.549C254.405 149.657 254.222 149.719 254.033 149.726Z" fill="black"/>
<path d="M267.742 149.726C267.626 149.726 267.51 149.703 267.403 149.657C267.295 149.611 267.198 149.543 267.118 149.459C267.03 149.371 266.961 149.267 266.915 149.152C266.869 149.037 266.847 148.914 266.85 148.79C266.85 148.58 266.907 148.375 267.014 148.195L268.352 146.113H265.616C265.49 146.12 265.363 146.099 265.245 146.053C265.127 146.007 265.021 145.936 264.932 145.846C264.779 145.668 264.695 145.441 264.695 145.206C264.695 144.972 264.779 144.745 264.932 144.567C265.021 144.476 265.127 144.406 265.245 144.36C265.363 144.313 265.49 144.293 265.616 144.299L268.307 144.374L267.044 142.366C266.924 142.168 266.858 141.943 266.85 141.712C266.847 141.588 266.869 141.465 266.915 141.35C266.961 141.235 267.03 141.13 267.118 141.043C267.201 140.958 267.301 140.891 267.41 140.845C267.52 140.799 267.638 140.775 267.757 140.775C267.924 140.773 268.087 140.82 268.227 140.91C268.368 140.999 268.478 141.129 268.545 141.281L269.854 143.615L271.103 141.385C271.181 141.212 271.306 141.063 271.463 140.955C271.621 140.848 271.804 140.786 271.995 140.775C272.112 140.775 272.227 140.799 272.334 140.845C272.442 140.891 272.539 140.959 272.619 141.043C272.706 141.125 272.775 141.224 272.821 141.334C272.868 141.444 272.89 141.563 272.887 141.682C272.885 141.894 272.823 142.1 272.708 142.277L271.4 144.374L274.121 144.299C274.248 144.292 274.374 144.312 274.492 144.358C274.61 144.404 274.717 144.476 274.805 144.567C274.958 144.745 275.042 144.972 275.042 145.206C275.042 145.441 274.958 145.668 274.805 145.846C274.717 145.937 274.61 146.008 274.492 146.055C274.374 146.101 274.248 146.121 274.121 146.113H271.37L272.589 148.016C272.727 148.246 272.804 148.507 272.813 148.775C272.817 148.895 272.797 149.015 272.753 149.128C272.71 149.24 272.644 149.343 272.56 149.429C272.481 149.512 272.387 149.579 272.282 149.625C272.178 149.671 272.065 149.695 271.95 149.697C271.766 149.692 271.587 149.635 271.434 149.532C271.282 149.43 271.161 149.286 271.088 149.117L269.854 146.931L268.62 149.117C268.546 149.291 268.425 149.441 268.27 149.549C268.114 149.657 267.931 149.719 267.742 149.726Z" fill="black"/>
<path d="M281.332 149.726C281.215 149.726 281.1 149.703 280.992 149.657C280.885 149.611 280.788 149.543 280.708 149.459C280.62 149.371 280.551 149.267 280.505 149.152C280.459 149.037 280.437 148.914 280.44 148.79C280.447 148.581 280.503 148.378 280.604 148.195L281.942 146.113H279.206C279.08 146.12 278.953 146.099 278.835 146.053C278.717 146.007 278.61 145.936 278.522 145.846C278.369 145.668 278.285 145.441 278.285 145.206C278.285 144.972 278.369 144.745 278.522 144.567C278.61 144.476 278.717 144.406 278.835 144.36C278.953 144.313 279.08 144.293 279.206 144.299L281.897 144.374L280.633 142.366C280.514 142.168 280.448 141.943 280.44 141.712C280.437 141.588 280.459 141.465 280.505 141.35C280.551 141.235 280.62 141.13 280.708 141.043C280.791 140.958 280.891 140.891 281 140.845C281.11 140.799 281.228 140.775 281.347 140.775C281.514 140.773 281.677 140.82 281.817 140.91C281.957 140.999 282.068 141.129 282.135 141.281L283.444 143.615L284.692 141.385C284.771 141.212 284.896 141.063 285.053 140.955C285.211 140.848 285.394 140.786 285.585 140.775C285.702 140.774 285.818 140.797 285.925 140.843C286.033 140.889 286.13 140.957 286.209 141.043C286.296 141.125 286.365 141.224 286.411 141.334C286.457 141.444 286.48 141.563 286.477 141.682C286.475 141.894 286.413 142.1 286.298 142.277L284.99 144.374L287.711 144.299C287.837 144.292 287.964 144.312 288.082 144.358C288.2 144.404 288.307 144.476 288.395 144.567C288.548 144.745 288.632 144.972 288.632 145.206C288.632 145.441 288.548 145.668 288.395 145.846C288.307 145.937 288.2 146.008 288.082 146.055C287.964 146.101 287.837 146.121 287.711 146.113H284.96L286.179 148.016C286.317 148.246 286.394 148.507 286.402 148.775C286.407 148.895 286.386 149.015 286.343 149.128C286.3 149.24 286.234 149.343 286.15 149.429C286.071 149.512 285.977 149.579 285.872 149.625C285.767 149.671 285.654 149.695 285.54 149.697C285.356 149.692 285.177 149.635 285.024 149.532C284.871 149.43 284.751 149.286 284.678 149.117L283.444 146.931L282.209 149.117C282.136 149.291 282.015 149.441 281.859 149.549C281.704 149.657 281.521 149.719 281.332 149.726Z" fill="black"/>
<path d="M294.982 149.726C294.865 149.726 294.749 149.703 294.642 149.657C294.535 149.611 294.438 149.543 294.357 149.459C294.269 149.371 294.2 149.267 294.154 149.152C294.108 149.037 294.086 148.914 294.089 148.79C294.096 148.581 294.152 148.378 294.253 148.195L295.591 146.113H292.87C292.741 146.121 292.612 146.101 292.492 146.055C292.371 146.009 292.262 145.937 292.171 145.846C292.019 145.668 291.935 145.441 291.935 145.206C291.935 144.972 292.019 144.745 292.171 144.567C292.262 144.475 292.371 144.404 292.492 144.358C292.612 144.312 292.741 144.292 292.87 144.299L295.547 144.374L294.283 142.366C294.164 142.168 294.097 141.943 294.089 141.712C294.086 141.588 294.108 141.465 294.154 141.35C294.2 141.235 294.269 141.13 294.357 141.043C294.44 140.958 294.54 140.891 294.65 140.845C294.76 140.799 294.877 140.775 294.996 140.775C295.163 140.773 295.326 140.82 295.467 140.91C295.607 140.999 295.717 141.129 295.784 141.281L297.093 143.615L298.342 141.385C298.421 141.212 298.545 141.063 298.703 140.955C298.86 140.848 299.044 140.786 299.234 140.775C299.351 140.774 299.467 140.797 299.575 140.843C299.682 140.889 299.779 140.957 299.858 141.043C299.946 141.125 300.014 141.224 300.061 141.334C300.107 141.444 300.129 141.563 300.126 141.682C300.124 141.894 300.062 142.1 299.948 142.277L298.639 144.374L301.36 144.299C301.487 144.292 301.613 144.312 301.732 144.358C301.85 144.404 301.956 144.476 302.044 144.567C302.197 144.745 302.281 144.972 302.281 145.206C302.281 145.441 302.197 145.668 302.044 145.846C301.956 145.937 301.85 146.008 301.732 146.055C301.613 146.101 301.487 146.121 301.36 146.113H298.609L299.829 148.016C299.966 148.246 300.043 148.507 300.052 148.775C300.056 148.895 300.036 149.015 299.992 149.128C299.949 149.24 299.883 149.343 299.799 149.429C299.721 149.512 299.626 149.579 299.522 149.625C299.417 149.671 299.304 149.695 299.189 149.697C299.005 149.692 298.826 149.635 298.674 149.532C298.521 149.43 298.401 149.286 298.327 149.117L297.093 146.931L295.859 149.117C295.786 149.291 295.664 149.441 295.509 149.549C295.353 149.657 295.171 149.719 294.982 149.726Z" fill="black"/>
<path d="M308.631 149.726C308.514 149.726 308.399 149.703 308.291 149.657C308.184 149.611 308.087 149.543 308.006 149.459C307.919 149.371 307.849 149.267 307.803 149.152C307.757 149.037 307.735 148.914 307.739 148.79C307.739 148.58 307.795 148.375 307.902 148.195L309.241 146.113H306.505C306.378 146.12 306.252 146.099 306.134 146.053C306.016 146.007 305.909 145.936 305.821 145.846C305.668 145.668 305.584 145.441 305.584 145.206C305.584 144.972 305.668 144.745 305.821 144.567C305.909 144.476 306.016 144.406 306.134 144.36C306.252 144.313 306.378 144.293 306.505 144.299L309.196 144.374L307.888 142.441C307.768 142.243 307.702 142.018 307.694 141.787C307.691 141.663 307.713 141.539 307.759 141.424C307.805 141.309 307.874 141.205 307.962 141.117C308.045 141.032 308.145 140.965 308.254 140.919C308.364 140.873 308.482 140.85 308.601 140.85C308.768 140.847 308.931 140.894 309.071 140.984C309.212 141.074 309.322 141.203 309.389 141.355L310.698 143.69L311.947 141.459C312.025 141.286 312.15 141.137 312.307 141.03C312.465 140.922 312.649 140.86 312.839 140.85C312.956 140.848 313.072 140.871 313.18 140.917C313.287 140.963 313.384 141.031 313.463 141.117C313.55 141.199 313.619 141.298 313.665 141.409C313.712 141.519 313.734 141.637 313.731 141.757C313.729 141.968 313.667 142.174 313.552 142.352L312.244 144.448L314.965 144.374C315.092 144.366 315.218 144.386 315.336 144.432C315.454 144.479 315.561 144.55 315.649 144.641C315.802 144.819 315.886 145.046 315.886 145.281C315.886 145.515 315.802 145.742 315.649 145.92C315.561 146.011 315.454 146.083 315.336 146.129C315.218 146.175 315.092 146.195 314.965 146.188H312.214L313.434 148.091C313.571 148.321 313.648 148.582 313.657 148.849C313.661 148.97 313.641 149.09 313.597 149.202C313.554 149.315 313.488 149.417 313.404 149.503C313.325 149.587 313.231 149.654 313.126 149.7C313.022 149.746 312.909 149.77 312.794 149.771C312.61 149.766 312.431 149.71 312.278 149.607C312.126 149.504 312.005 149.36 311.932 149.191L310.698 147.005L309.464 149.191C309.384 149.345 309.265 149.476 309.118 149.569C308.972 149.663 308.804 149.717 308.631 149.726Z" fill="black"/>
<path d="M322.28 149.726C322.164 149.726 322.048 149.703 321.941 149.657C321.833 149.611 321.736 149.543 321.656 149.459C321.568 149.371 321.499 149.267 321.453 149.152C321.407 149.037 321.385 148.914 321.388 148.79C321.395 148.581 321.451 148.378 321.552 148.195L322.89 146.113H320.169C320.042 146.123 319.915 146.104 319.797 146.058C319.678 146.011 319.572 145.939 319.485 145.846C319.323 145.672 319.233 145.444 319.233 145.206C319.233 144.969 319.323 144.741 319.485 144.567C319.572 144.474 319.678 144.402 319.797 144.355C319.915 144.309 320.042 144.29 320.169 144.299L322.845 144.374L321.581 142.367C321.462 142.169 321.396 141.943 321.388 141.712C321.384 141.591 321.405 141.47 321.449 141.356C321.492 141.243 321.558 141.139 321.643 141.052C321.728 140.964 321.829 140.895 321.941 140.847C322.053 140.8 322.174 140.775 322.295 140.776C322.462 140.773 322.625 140.82 322.765 140.91C322.906 141 323.016 141.129 323.083 141.281L324.392 143.615L325.641 141.385C325.719 141.212 325.844 141.063 326.001 140.956C326.159 140.848 326.342 140.786 326.533 140.776C326.65 140.772 326.767 140.794 326.875 140.84C326.983 140.886 327.079 140.956 327.157 141.043C327.244 141.125 327.313 141.224 327.359 141.334C327.406 141.444 327.428 141.563 327.425 141.683C327.423 141.894 327.361 142.1 327.246 142.277L325.938 144.374L328.659 144.299C328.786 144.292 328.912 144.312 329.03 144.358C329.148 144.404 329.255 144.476 329.343 144.567C329.496 144.745 329.58 144.972 329.58 145.206C329.58 145.441 329.496 145.668 329.343 145.846C329.255 145.937 329.148 146.008 329.03 146.055C328.912 146.101 328.786 146.121 328.659 146.113H325.908L327.127 148.017C327.265 148.246 327.342 148.507 327.35 148.775C327.354 148.892 327.335 149.009 327.294 149.119C327.253 149.228 327.19 149.329 327.11 149.415C327.03 149.5 326.934 149.569 326.827 149.618C326.721 149.666 326.605 149.693 326.488 149.697C326.304 149.692 326.125 149.635 325.972 149.533C325.82 149.43 325.699 149.286 325.626 149.117L324.392 146.931L323.158 149.117C323.084 149.291 322.963 149.441 322.808 149.549C322.652 149.657 322.469 149.719 322.28 149.726Z" fill="black"/>
<path d="M335.93 149.726C335.813 149.726 335.697 149.703 335.59 149.657C335.483 149.611 335.386 149.543 335.305 149.459C335.217 149.371 335.148 149.267 335.102 149.152C335.056 149.037 335.034 148.914 335.038 148.79C335.045 148.581 335.101 148.378 335.201 148.195L336.539 146.113H333.804C333.679 146.121 333.555 146.1 333.439 146.054C333.323 146.008 333.219 145.937 333.134 145.846C332.972 145.672 332.882 145.444 332.882 145.206C332.882 144.969 332.972 144.741 333.134 144.567C333.219 144.476 333.323 144.405 333.439 144.359C333.555 144.312 333.679 144.292 333.804 144.299L336.495 144.374L335.231 142.367C335.112 142.169 335.045 141.943 335.038 141.712C335.034 141.591 335.054 141.47 335.098 141.356C335.142 141.243 335.208 141.139 335.293 141.052C335.377 140.964 335.478 140.895 335.591 140.847C335.703 140.8 335.823 140.775 335.945 140.776C336.111 140.773 336.275 140.82 336.415 140.91C336.555 141 336.665 141.129 336.733 141.281L338.041 143.615L339.29 141.385C339.369 141.212 339.494 141.063 339.651 140.956C339.808 140.848 339.992 140.786 340.182 140.776C340.299 140.772 340.416 140.794 340.524 140.84C340.632 140.886 340.728 140.956 340.807 141.043C340.894 141.125 340.963 141.224 341.009 141.334C341.055 141.444 341.077 141.563 341.074 141.683C341.072 141.894 341.01 142.1 340.896 142.277L339.587 144.374L342.308 144.299C342.435 144.292 342.562 144.312 342.68 144.358C342.798 144.404 342.904 144.476 342.992 144.567C343.145 144.745 343.229 144.972 343.229 145.206C343.229 145.441 343.145 145.668 342.992 145.846C342.904 145.937 342.798 146.008 342.68 146.055C342.562 146.101 342.435 146.121 342.308 146.113H339.558L340.777 148.017C340.914 148.246 340.991 148.507 341 148.775C341.004 148.892 340.985 149.009 340.944 149.119C340.902 149.228 340.84 149.329 340.76 149.415C340.68 149.5 340.584 149.569 340.477 149.618C340.37 149.666 340.255 149.693 340.138 149.697C339.954 149.692 339.775 149.635 339.622 149.533C339.469 149.43 339.349 149.286 339.275 149.117L338.041 146.931L336.807 149.117C336.734 149.291 336.612 149.441 336.457 149.549C336.302 149.657 336.119 149.719 335.93 149.726Z" fill="black"/>
<path d="M349.52 149.726C349.403 149.726 349.287 149.703 349.18 149.657C349.072 149.611 348.976 149.543 348.895 149.459C348.807 149.371 348.738 149.267 348.692 149.152C348.646 149.037 348.624 148.914 348.627 148.79C348.634 148.581 348.69 148.378 348.791 148.195L350.129 146.113H347.393C347.269 146.121 347.145 146.1 347.029 146.054C346.913 146.008 346.809 145.937 346.724 145.846C346.562 145.672 346.472 145.444 346.472 145.206C346.472 144.969 346.562 144.741 346.724 144.567C346.809 144.476 346.913 144.405 347.029 144.359C347.145 144.312 347.269 144.292 347.393 144.299L350.085 144.374L348.821 142.367C348.701 142.169 348.635 141.943 348.627 141.712C348.624 141.588 348.646 141.465 348.692 141.35C348.738 141.235 348.807 141.131 348.895 141.043C348.978 140.958 349.078 140.891 349.188 140.845C349.297 140.799 349.415 140.775 349.534 140.776C349.701 140.773 349.864 140.82 350.005 140.91C350.145 141 350.255 141.129 350.322 141.281L351.631 143.615L352.88 141.385C352.959 141.212 353.083 141.063 353.241 140.956C353.398 140.848 353.582 140.786 353.772 140.776C353.889 140.772 354.006 140.794 354.114 140.84C354.222 140.886 354.318 140.956 354.396 141.043C354.484 141.125 354.552 141.224 354.599 141.334C354.645 141.444 354.667 141.563 354.664 141.683C354.662 141.894 354.6 142.1 354.486 142.277L353.177 144.374L355.898 144.299C356.025 144.292 356.151 144.312 356.269 144.358C356.388 144.404 356.494 144.476 356.582 144.567C356.735 144.745 356.819 144.972 356.819 145.206C356.819 145.441 356.735 145.668 356.582 145.846C356.494 145.937 356.388 146.008 356.269 146.055C356.151 146.101 356.025 146.121 355.898 146.113H353.148L354.367 148.017C354.504 148.246 354.581 148.507 354.59 148.775C354.594 148.895 354.574 149.015 354.53 149.128C354.487 149.24 354.421 149.343 354.337 149.429C354.259 149.513 354.164 149.579 354.06 149.625C353.955 149.671 353.842 149.696 353.727 149.697C353.543 149.692 353.364 149.635 353.212 149.533C353.059 149.43 352.939 149.286 352.865 149.117L351.631 146.931L350.397 149.117C350.324 149.291 350.202 149.441 350.047 149.549C349.891 149.657 349.709 149.719 349.52 149.726Z" fill="black"/>
<path d="M396.296 182.616H414.48" stroke="white" stroke-width="3" stroke-linecap="round" stroke-linejoin="round"/>
<path d="M144.081 48.7242V169.502C144.081 172.999 145.47 176.354 147.943 178.827C150.417 181.3 153.771 182.69 157.269 182.69H379.034" stroke="white" stroke-width="3" stroke-linecap="round" stroke-linejoin="round"/>
<path d="M144.081 16.6974V34.8073" stroke="white" stroke-width="3" stroke-linecap="round" stroke-linejoin="round"/>
</svg>
