<svg width="26" height="34" viewBox="0 0 26 34" fill="none" xmlns="http://www.w3.org/2000/svg">
<path d="M1.71875 26.5H2.60938V13.8828C2.60938 8.64668 6.47988 4.31602 11.5156 3.59609V2.15625C11.5156 1.33613 12.1799 0.671875 13 0.671875C13.8201 0.671875 14.4844 1.33613 14.4844 2.15625V3.59609C19.5201 4.31602 23.3906 8.64668 23.3906 13.8828V26.5H24.2812C24.9381 26.5 25.4688 27.0307 25.4688 27.6875V28.875C25.4688 29.0383 25.3352 29.1719 25.1719 29.1719H17.1562C17.1562 31.4652 15.2934 33.3281 13 33.3281C10.7066 33.3281 8.84375 31.4652 8.84375 29.1719H0.828125C0.664844 29.1719 0.53125 29.0383 0.53125 28.875V27.6875C0.53125 27.0307 1.06191 26.5 1.71875 26.5ZM13 30.9531C13.9834 30.9531 14.7812 30.1553 14.7812 29.1719H11.2188C11.2188 30.1553 12.0166 30.9531 13 30.9531Z" fill="#090231"/>
</svg>
