<svg width="28" height="5" viewBox="0 0 28 5" fill="none" xmlns="http://www.w3.org/2000/svg">
<path d="M2.44444 0.999996C3.24219 0.999996 3.88889 1.6467 3.88889 2.44444C3.88889 3.24219 3.24219 3.88889 2.44444 3.88889C1.6467 3.88889 1 3.24219 1 2.44444C1 1.6467 1.6467 0.999996 2.44444 0.999996Z" stroke="#9747FF" stroke-width="2"/>
<path d="M14 0.999996C14.7977 0.999996 15.4444 1.6467 15.4444 2.44444C15.4444 3.24219 14.7977 3.88889 14 3.88889C13.2022 3.88889 12.5555 3.24219 12.5555 2.44444C12.5555 1.6467 13.2022 0.999996 14 0.999996Z" stroke="#9747FF" stroke-width="2"/>
<path d="M25.5555 0.999996C26.3533 0.999996 27 1.6467 27 2.44444C27 3.24219 26.3533 3.88889 25.5555 3.88889C24.7578 3.88889 24.1111 3.24219 24.1111 2.44444C24.1111 1.6467 24.7578 0.999996 25.5555 0.999996Z" stroke="#9747FF" stroke-width="2"/>
</svg>
