<svg width="42" height="42" viewBox="0 0 42 42" fill="none" xmlns="http://www.w3.org/2000/svg">
<path d="M24.5 14H8.16667C7.85725 14 7.5605 13.8771 7.34171 13.6583C7.12292 13.4395 7 13.1428 7 12.8333V8.16667C7 7.85725 7.12292 7.5605 7.34171 7.34171C7.5605 7.12292 7.85725 7 8.16667 7H24.5C24.8094 7 25.1062 7.12292 25.325 7.34171C25.5438 7.5605 25.6667 7.85725 25.6667 8.16667V12.8333C25.6667 13.1428 25.5438 13.4395 25.325 13.6583C25.1062 13.8771 24.8094 14 24.5 14ZM9.33333 11.6667H23.3333V9.26333H9.33333V11.6667Z" fill="white"/>
<path d="M24.5 16.4267H8.16667C7.85725 16.4267 7.5605 16.5496 7.34171 16.7684C7.12292 16.9872 7 17.2839 7 17.5933V22.1667C7 22.4761 7.12292 22.7728 7.34171 22.9916C7.5605 23.2104 7.85725 23.3333 8.16667 23.3333H21.42L25.6667 19.0167V17.5933C25.6667 17.2839 25.5438 16.9872 25.325 16.7684C25.1062 16.5496 24.8094 16.4267 24.5 16.4267ZM23.3333 21H9.33333V18.6667H23.3333V21Z" fill="white"/>
<path d="M12.9033 36.7617V36.6917L13.2767 35.07H4.66666V4.66668H28V16.625L30.3333 14.42V3.50001C30.3333 3.19059 30.2104 2.89384 29.9916 2.67505C29.7728 2.45626 29.4761 2.33334 29.1667 2.33334H3.49999C3.19058 2.33334 2.89383 2.45626 2.67504 2.67505C2.45624 2.89384 2.33333 3.19059 2.33333 3.50001V36.1667C2.33333 36.4761 2.45624 36.7728 2.67504 36.9916C2.89383 37.2104 3.19058 37.3333 3.49999 37.3333H12.8333C12.8429 37.1414 12.8663 36.9503 12.9033 36.7617Z" fill="white"/>
<path d="M25.6667 22.365L24.7567 23.2867C24.9824 23.2401 25.1894 23.1277 25.3513 22.9637C25.5133 22.7997 25.623 22.5913 25.6667 22.365Z" fill="white"/>
<path d="M7 31.43C7 31.7394 7.12292 32.0362 7.34171 32.2549C7.5605 32.4737 7.85725 32.5967 8.16667 32.5967H13.8133L14.1633 31.08L14.315 30.4383V30.38H9.33333V28H16.73L19.0633 25.6667H8.16667C7.85725 25.6667 7.5605 25.7896 7.34171 26.0084C7.12292 26.2272 7 26.5239 7 26.8333V31.43Z" fill="white"/>
<path d="M39.0717 19.4483L35.14 15.5167C34.9655 15.3417 34.7582 15.2029 34.53 15.1082C34.3018 15.0134 34.0571 14.9647 33.81 14.9647C33.5629 14.9647 33.3182 15.0134 33.09 15.1082C32.8618 15.2029 32.6545 15.3417 32.48 15.5167L16.485 31.605L15.1667 37.2167C15.1173 37.4588 15.1162 37.7082 15.1634 37.9507C15.2106 38.1933 15.3052 38.4241 15.4417 38.63C15.5783 38.8359 15.7541 39.0129 15.9592 39.1507C16.1642 39.2886 16.3944 39.3846 16.6367 39.4333C16.7569 39.4454 16.8781 39.4454 16.9983 39.4333C17.1413 39.4566 17.287 39.4566 17.43 39.4333L23.0883 38.185L39.0717 22.1667C39.2463 21.9932 39.3848 21.7869 39.4794 21.5596C39.574 21.3324 39.6226 21.0886 39.6226 20.8425C39.6226 20.5964 39.574 20.3526 39.4794 20.1254C39.3848 19.8981 39.2463 19.6918 39.0717 19.5183V19.4483ZM21.8983 36.0617L17.6283 37.0067L18.6667 32.7717L30.66 20.65L33.95 23.94L21.8983 36.0617ZM35.2683 22.6217L31.9783 19.3317L33.8333 17.5L37.1467 20.8133L35.2683 22.6217Z" fill="white"/>
</svg>
