<svg width="660" height="330" viewBox="0 0 660 330" fill="none" xmlns="http://www.w3.org/2000/svg">
<path d="M31 310.504H640" stroke="#CCCCCC" stroke-dasharray="4 2"/>
<path d="M31 234.661H640" stroke="#CCCCCC" stroke-dasharray="4 2"/>
<path d="M31 158.818H640" stroke="#CCCCCC" stroke-dasharray="4 2"/>
<path d="M31 82.9755H640" stroke="#CCCCCC" stroke-dasharray="4 2"/>
<path d="M31 7.13257H640" stroke="#CCCCCC" stroke-dasharray="4 2"/>
<path d="M31.5 6.65704V310.98" stroke="#CCCCCC" stroke-dasharray="4 2"/>
<path d="M132.833 6.65704V310.98" stroke="#CCCCCC" stroke-dasharray="4 2"/>
<path d="M234.167 6.65704V310.98" stroke="#CCCCCC" stroke-dasharray="4 2"/>
<path d="M335.5 6.65704V310.98" stroke="#CCCCCC" stroke-dasharray="4 2"/>
<path d="M436.833 6.65704V310.98" stroke="#CCCCCC" stroke-dasharray="4 2"/>
<path d="M538.167 6.65704V310.98" stroke="#CCCCCC" stroke-dasharray="4 2"/>
<path d="M639.5 6.65704V310.98" stroke="#CCCCCC" stroke-dasharray="4 2"/>
<path d="M20.3145 309.427V310.727C20.3145 311.427 20.252 312.016 20.127 312.497C20.002 312.977 19.8223 313.364 19.5879 313.657C19.3535 313.95 19.0703 314.163 18.7383 314.296C18.4102 314.425 18.0391 314.489 17.625 314.489C17.2969 314.489 16.9941 314.448 16.7168 314.366C16.4395 314.284 16.1895 314.153 15.9668 313.973C15.748 313.79 15.5605 313.552 15.4043 313.259C15.248 312.966 15.1289 312.61 15.0469 312.192C14.9648 311.774 14.9238 311.286 14.9238 310.727V309.427C14.9238 308.727 14.9863 308.141 15.1113 307.669C15.2402 307.196 15.4219 306.817 15.6562 306.532C15.8906 306.243 16.1719 306.036 16.5 305.911C16.832 305.786 17.2031 305.723 17.6133 305.723C17.9453 305.723 18.25 305.764 18.5273 305.846C18.8086 305.925 19.0586 306.052 19.2773 306.227C19.4961 306.399 19.6816 306.63 19.834 306.919C19.9902 307.204 20.1094 307.553 20.1914 307.968C20.2734 308.382 20.3145 308.868 20.3145 309.427ZM19.2246 310.903V309.245C19.2246 308.862 19.2012 308.526 19.1543 308.237C19.1113 307.944 19.0469 307.694 18.9609 307.487C18.875 307.28 18.7656 307.112 18.6328 306.983C18.5039 306.854 18.3535 306.76 18.1816 306.702C18.0137 306.639 17.8242 306.608 17.6133 306.608C17.3555 306.608 17.127 306.657 16.9277 306.755C16.7285 306.848 16.5605 306.999 16.4238 307.206C16.291 307.413 16.1895 307.684 16.1191 308.02C16.0488 308.356 16.0137 308.764 16.0137 309.245V310.903C16.0137 311.286 16.0352 311.624 16.0781 311.917C16.125 312.21 16.1934 312.464 16.2832 312.678C16.373 312.889 16.4824 313.063 16.6113 313.2C16.7402 313.337 16.8887 313.438 17.0566 313.505C17.2285 313.567 17.418 313.598 17.625 313.598C17.8906 313.598 18.123 313.548 18.3223 313.446C18.5215 313.344 18.6875 313.186 18.8203 312.971C18.957 312.753 19.0586 312.473 19.125 312.134C19.1914 311.79 19.2246 311.38 19.2246 310.903Z" fill="#333333"/>
<path d="M13.7988 237.638V238.529H8.21484V237.75L11.0098 234.638C11.3535 234.255 11.6191 233.931 11.8066 233.666C11.998 233.396 12.1309 233.156 12.2051 232.945C12.2832 232.73 12.3223 232.511 12.3223 232.289C12.3223 232.007 12.2637 231.753 12.1465 231.527C12.0332 231.296 11.8652 231.113 11.6426 230.976C11.4199 230.839 11.1504 230.771 10.834 230.771C10.4551 230.771 10.1387 230.845 9.88477 230.994C9.63477 231.138 9.44727 231.341 9.32227 231.603C9.19727 231.865 9.13477 232.166 9.13477 232.505H8.05078C8.05078 232.025 8.15625 231.585 8.36719 231.187C8.57812 230.789 8.89062 230.472 9.30469 230.238C9.71875 230 10.2285 229.88 10.834 229.88C11.373 229.88 11.834 229.976 12.2168 230.167C12.5996 230.355 12.8926 230.621 13.0957 230.964C13.3027 231.304 13.4062 231.703 13.4062 232.16C13.4062 232.41 13.3633 232.664 13.2773 232.921C13.1953 233.175 13.0801 233.429 12.9316 233.683C12.7871 233.937 12.6172 234.187 12.4219 234.433C12.2305 234.679 12.0254 234.921 11.8066 235.16L9.52148 237.638H13.7988ZM16.3301 234.468L15.4629 234.246L15.8906 229.998H20.2676V231H16.8105L16.5527 233.32C16.709 233.23 16.9062 233.146 17.1445 233.068C17.3867 232.99 17.6641 232.951 17.9766 232.951C18.3711 232.951 18.7246 233.019 19.0371 233.156C19.3496 233.289 19.6152 233.48 19.834 233.73C20.0566 233.98 20.2266 234.281 20.3438 234.632C20.4609 234.984 20.5195 235.376 20.5195 235.81C20.5195 236.22 20.4629 236.597 20.3496 236.941C20.2402 237.285 20.0742 237.585 19.8516 237.843C19.6289 238.097 19.3477 238.294 19.0078 238.435C18.6719 238.576 18.2754 238.646 17.8184 238.646C17.4746 238.646 17.1484 238.599 16.8398 238.505C16.5352 238.408 16.2617 238.261 16.0195 238.066C15.7812 237.867 15.5859 237.621 15.4336 237.328C15.2852 237.031 15.1914 236.683 15.1523 236.285H16.1836C16.2305 236.605 16.3242 236.875 16.4648 237.093C16.6055 237.312 16.7891 237.478 17.0156 237.591C17.2461 237.701 17.5137 237.755 17.8184 237.755C18.0762 237.755 18.3047 237.71 18.5039 237.621C18.7031 237.531 18.8711 237.402 19.0078 237.234C19.1445 237.066 19.248 236.863 19.3184 236.625C19.3926 236.386 19.4297 236.119 19.4297 235.822C19.4297 235.552 19.3926 235.302 19.3184 235.072C19.2441 234.841 19.1328 234.64 18.9844 234.468C18.8398 234.296 18.6621 234.164 18.4512 234.07C18.2402 233.972 17.998 233.923 17.7246 233.923C17.3613 233.923 17.0859 233.972 16.8984 234.07C16.7148 234.167 16.5254 234.3 16.3301 234.468Z" fill="#333333"/>
<path d="M9.58008 158.625L8.71289 158.403L9.14062 154.155H13.5176V155.157H10.0605L9.80273 157.477C9.95898 157.387 10.1562 157.303 10.3945 157.225C10.6367 157.147 10.9141 157.108 11.2266 157.108C11.6211 157.108 11.9746 157.176 12.2871 157.313C12.5996 157.446 12.8652 157.637 13.084 157.887C13.3066 158.137 13.4766 158.438 13.5938 158.789C13.7109 159.141 13.7695 159.534 13.7695 159.967C13.7695 160.377 13.7129 160.754 13.5996 161.098C13.4902 161.442 13.3242 161.743 13.1016 162C12.8789 162.254 12.5977 162.452 12.2578 162.592C11.9219 162.733 11.5254 162.803 11.0684 162.803C10.7246 162.803 10.3984 162.756 10.0898 162.662C9.78516 162.565 9.51172 162.418 9.26953 162.223C9.03125 162.024 8.83594 161.778 8.68359 161.485C8.53516 161.188 8.44141 160.84 8.40234 160.442H9.43359C9.48047 160.762 9.57422 161.032 9.71484 161.25C9.85547 161.469 10.0391 161.635 10.2656 161.748C10.4961 161.858 10.7637 161.912 11.0684 161.912C11.3262 161.912 11.5547 161.868 11.7539 161.778C11.9531 161.688 12.1211 161.559 12.2578 161.391C12.3945 161.223 12.498 161.02 12.5684 160.782C12.6426 160.543 12.6797 160.276 12.6797 159.979C12.6797 159.709 12.6426 159.459 12.5684 159.229C12.4941 158.998 12.3828 158.797 12.2344 158.625C12.0898 158.453 11.9121 158.321 11.7012 158.227C11.4902 158.129 11.248 158.08 10.9746 158.08C10.6113 158.08 10.3359 158.129 10.1484 158.227C9.96484 158.325 9.77539 158.457 9.58008 158.625ZM20.3145 157.741V159.041C20.3145 159.741 20.252 160.33 20.127 160.811C20.002 161.291 19.8223 161.678 19.5879 161.971C19.3535 162.264 19.0703 162.477 18.7383 162.61C18.4102 162.739 18.0391 162.803 17.625 162.803C17.2969 162.803 16.9941 162.762 16.7168 162.68C16.4395 162.598 16.1895 162.467 15.9668 162.287C15.748 162.104 15.5605 161.866 15.4043 161.573C15.248 161.28 15.1289 160.924 15.0469 160.506C14.9648 160.088 14.9238 159.6 14.9238 159.041V157.741C14.9238 157.041 14.9863 156.455 15.1113 155.983C15.2402 155.51 15.4219 155.131 15.6562 154.846C15.8906 154.557 16.1719 154.35 16.5 154.225C16.832 154.1 17.2031 154.037 17.6133 154.037C17.9453 154.037 18.25 154.078 18.5273 154.161C18.8086 154.239 19.0586 154.366 19.2773 154.541C19.4961 154.713 19.6816 154.944 19.834 155.233C19.9902 155.518 20.1094 155.868 20.1914 156.282C20.2734 156.696 20.3145 157.182 20.3145 157.741ZM19.2246 159.217V157.559C19.2246 157.176 19.2012 156.84 19.1543 156.551C19.1113 156.258 19.0469 156.008 18.9609 155.801C18.875 155.594 18.7656 155.426 18.6328 155.297C18.5039 155.168 18.3535 155.075 18.1816 155.016C18.0137 154.953 17.8242 154.922 17.6133 154.922C17.3555 154.922 17.127 154.971 16.9277 155.069C16.7285 155.162 16.5605 155.313 16.4238 155.52C16.291 155.727 16.1895 155.998 16.1191 156.334C16.0488 156.67 16.0137 157.078 16.0137 157.559V159.217C16.0137 159.6 16.0352 159.938 16.0781 160.231C16.125 160.524 16.1934 160.778 16.2832 160.993C16.373 161.203 16.4824 161.377 16.6113 161.514C16.7402 161.651 16.8887 161.752 17.0566 161.819C17.2285 161.881 17.418 161.912 17.625 161.912C17.8906 161.912 18.123 161.862 18.3223 161.76C18.5215 161.659 18.6875 161.5 18.8203 161.286C18.957 161.067 19.0586 160.787 19.125 160.448C19.1914 160.104 19.2246 159.694 19.2246 159.217Z" fill="#333333"/>
<path d="M13.7227 78.3117V78.9211L10.1895 86.843H9.04688L12.5742 79.2023H7.95703V78.3117H13.7227ZM16.3301 82.7824L15.4629 82.5598L15.8906 78.3117H20.2676V79.3137H16.8105L16.5527 81.634C16.709 81.5441 16.9062 81.4601 17.1445 81.382C17.3867 81.3039 17.6641 81.2648 17.9766 81.2648C18.3711 81.2648 18.7246 81.3332 19.0371 81.4699C19.3496 81.6027 19.6152 81.7941 19.834 82.0441C20.0566 82.2941 20.2266 82.5949 20.3438 82.9465C20.4609 83.298 20.5195 83.6906 20.5195 84.1242C20.5195 84.5344 20.4629 84.9113 20.3496 85.2551C20.2402 85.5988 20.0742 85.8996 19.8516 86.1574C19.6289 86.4113 19.3477 86.6086 19.0078 86.7492C18.6719 86.8898 18.2754 86.9601 17.8184 86.9601C17.4746 86.9601 17.1484 86.9133 16.8398 86.8195C16.5352 86.7219 16.2617 86.5754 16.0195 86.3801C15.7812 86.1808 15.5859 85.9348 15.4336 85.6418C15.2852 85.3449 15.1914 84.9973 15.1523 84.5988H16.1836C16.2305 84.9191 16.3242 85.1887 16.4648 85.4074C16.6055 85.6262 16.7891 85.7922 17.0156 85.9055C17.2461 86.0148 17.5137 86.0695 17.8184 86.0695C18.0762 86.0695 18.3047 86.0246 18.5039 85.9348C18.7031 85.8449 18.8711 85.716 19.0078 85.548C19.1445 85.3801 19.248 85.1769 19.3184 84.9387C19.3926 84.7004 19.4297 84.4328 19.4297 84.1359C19.4297 83.8664 19.3926 83.6164 19.3184 83.3859C19.2441 83.1555 19.1328 82.9543 18.9844 82.7824C18.8398 82.6105 18.6621 82.4777 18.4512 82.384C18.2402 82.2863 17.998 82.2375 17.7246 82.2375C17.3613 82.2375 17.0859 82.2863 16.8984 82.384C16.7148 82.4816 16.5254 82.6144 16.3301 82.7824Z" fill="#333333"/>
<path d="M5.02148 2.42188V11H3.9375V3.77539L1.75195 4.57227V3.59375L4.85156 2.42188H5.02148ZM13.5645 6.05469V7.35547C13.5645 8.05469 13.502 8.64453 13.377 9.125C13.252 9.60547 13.0723 9.99219 12.8379 10.2852C12.6035 10.5781 12.3203 10.791 11.9883 10.9238C11.6602 11.0527 11.2891 11.1172 10.875 11.1172C10.5469 11.1172 10.2441 11.0762 9.9668 10.9941C9.68945 10.9121 9.43945 10.7812 9.2168 10.6016C8.99805 10.418 8.81055 10.1797 8.6543 9.88672C8.49805 9.59375 8.37891 9.23828 8.29688 8.82031C8.21484 8.40234 8.17383 7.91406 8.17383 7.35547V6.05469C8.17383 5.35547 8.23633 4.76953 8.36133 4.29688C8.49023 3.82422 8.67188 3.44531 8.90625 3.16016C9.14062 2.87109 9.42188 2.66406 9.75 2.53906C10.082 2.41406 10.4531 2.35156 10.8633 2.35156C11.1953 2.35156 11.5 2.39258 11.7773 2.47461C12.0586 2.55273 12.3086 2.67969 12.5273 2.85547C12.7461 3.02734 12.9316 3.25781 13.084 3.54688C13.2402 3.83203 13.3594 4.18164 13.4414 4.5957C13.5234 5.00977 13.5645 5.49609 13.5645 6.05469ZM12.4746 7.53125V5.87305C12.4746 5.49023 12.4512 5.1543 12.4043 4.86523C12.3613 4.57227 12.2969 4.32227 12.2109 4.11523C12.125 3.9082 12.0156 3.74023 11.8828 3.61133C11.7539 3.48242 11.6035 3.38867 11.4316 3.33008C11.2637 3.26758 11.0742 3.23633 10.8633 3.23633C10.6055 3.23633 10.377 3.28516 10.1777 3.38281C9.97852 3.47656 9.81055 3.62695 9.67383 3.83398C9.54102 4.04102 9.43945 4.3125 9.36914 4.64844C9.29883 4.98438 9.26367 5.39258 9.26367 5.87305V7.53125C9.26367 7.91406 9.28516 8.25195 9.32812 8.54492C9.375 8.83789 9.44336 9.0918 9.5332 9.30664C9.62305 9.51758 9.73242 9.69141 9.86133 9.82812C9.99023 9.96484 10.1387 10.0664 10.3066 10.1328C10.4785 10.1953 10.668 10.2266 10.875 10.2266C11.1406 10.2266 11.373 10.1758 11.5723 10.0742C11.7715 9.97266 11.9375 9.81445 12.0703 9.59961C12.207 9.38086 12.3086 9.10156 12.375 8.76172C12.4414 8.41797 12.4746 8.00781 12.4746 7.53125ZM20.3145 6.05469V7.35547C20.3145 8.05469 20.252 8.64453 20.127 9.125C20.002 9.60547 19.8223 9.99219 19.5879 10.2852C19.3535 10.5781 19.0703 10.791 18.7383 10.9238C18.4102 11.0527 18.0391 11.1172 17.625 11.1172C17.2969 11.1172 16.9941 11.0762 16.7168 10.9941C16.4395 10.9121 16.1895 10.7812 15.9668 10.6016C15.748 10.418 15.5605 10.1797 15.4043 9.88672C15.248 9.59375 15.1289 9.23828 15.0469 8.82031C14.9648 8.40234 14.9238 7.91406 14.9238 7.35547V6.05469C14.9238 5.35547 14.9863 4.76953 15.1113 4.29688C15.2402 3.82422 15.4219 3.44531 15.6562 3.16016C15.8906 2.87109 16.1719 2.66406 16.5 2.53906C16.832 2.41406 17.2031 2.35156 17.6133 2.35156C17.9453 2.35156 18.25 2.39258 18.5273 2.47461C18.8086 2.55273 19.0586 2.67969 19.2773 2.85547C19.4961 3.02734 19.6816 3.25781 19.834 3.54688C19.9902 3.83203 20.1094 4.18164 20.1914 4.5957C20.2734 5.00977 20.3145 5.49609 20.3145 6.05469ZM19.2246 7.53125V5.87305C19.2246 5.49023 19.2012 5.1543 19.1543 4.86523C19.1113 4.57227 19.0469 4.32227 18.9609 4.11523C18.875 3.9082 18.7656 3.74023 18.6328 3.61133C18.5039 3.48242 18.3535 3.38867 18.1816 3.33008C18.0137 3.26758 17.8242 3.23633 17.6133 3.23633C17.3555 3.23633 17.127 3.28516 16.9277 3.38281C16.7285 3.47656 16.5605 3.62695 16.4238 3.83398C16.291 4.04102 16.1895 4.3125 16.1191 4.64844C16.0488 4.98438 16.0137 5.39258 16.0137 5.87305V7.53125C16.0137 7.91406 16.0352 8.25195 16.0781 8.54492C16.125 8.83789 16.1934 9.0918 16.2832 9.30664C16.373 9.51758 16.4824 9.69141 16.6113 9.82812C16.7402 9.96484 16.8887 10.0664 17.0566 10.1328C17.2285 10.1953 17.418 10.2266 17.625 10.2266C17.8906 10.2266 18.123 10.1758 18.3223 10.0742C18.5215 9.97266 18.6875 9.81445 18.8203 9.59961C18.957 9.38086 19.0586 9.10156 19.125 8.76172C19.1914 8.41797 19.2246 8.00781 19.2246 7.53125Z" fill="#333333"/>
<path d="M11.4258 318.155H12.5215L15.3164 325.11L18.1055 318.155H19.207L15.7383 326.686H14.8828L11.4258 318.155ZM11.0684 318.155H12.0352L12.1934 323.358V326.686H11.0684V318.155ZM18.5918 318.155H19.5586V326.686H18.4336V323.358L18.5918 318.155ZM21.0938 323.586V323.452C21.0938 322.995 21.1602 322.571 21.293 322.18C21.4258 321.786 21.6172 321.444 21.8672 321.155C22.1172 320.862 22.4199 320.635 22.7754 320.475C23.1309 320.311 23.5293 320.229 23.9707 320.229C24.416 320.229 24.8164 320.311 25.1719 320.475C25.5312 320.635 25.8359 320.862 26.0859 321.155C26.3398 321.444 26.5332 321.786 26.666 322.18C26.7988 322.571 26.8652 322.995 26.8652 323.452V323.586C26.8652 324.043 26.7988 324.467 26.666 324.858C26.5332 325.248 26.3398 325.59 26.0859 325.883C25.8359 326.172 25.5332 326.399 25.1777 326.563C24.8262 326.723 24.4277 326.803 23.9824 326.803C23.5371 326.803 23.1367 326.723 22.7812 326.563C22.4258 326.399 22.1211 326.172 21.8672 325.883C21.6172 325.59 21.4258 325.248 21.293 324.858C21.1602 324.467 21.0938 324.043 21.0938 323.586ZM22.1777 323.452V323.586C22.1777 323.903 22.2148 324.202 22.2891 324.483C22.3633 324.76 22.4746 325.006 22.623 325.221C22.7754 325.436 22.9648 325.606 23.1914 325.731C23.418 325.852 23.6816 325.912 23.9824 325.912C24.2793 325.912 24.5391 325.852 24.7617 325.731C24.9883 325.606 25.1758 325.436 25.3242 325.221C25.4727 325.006 25.584 324.76 25.6582 324.483C25.7363 324.202 25.7754 323.903 25.7754 323.586V323.452C25.7754 323.139 25.7363 322.844 25.6582 322.567C25.584 322.286 25.4707 322.037 25.3184 321.823C25.1699 321.604 24.9824 321.432 24.7559 321.307C24.5332 321.182 24.2715 321.12 23.9707 321.12C23.6738 321.12 23.4121 321.182 23.1855 321.307C22.9629 321.432 22.7754 321.604 22.623 321.823C22.4746 322.037 22.3633 322.286 22.2891 322.567C22.2148 322.844 22.1777 323.139 22.1777 323.452ZM29.3086 321.7V326.686H28.2246V320.346H29.25L29.3086 321.7ZM29.0508 323.276L28.5996 323.258C28.6035 322.825 28.668 322.424 28.793 322.057C28.918 321.686 29.0938 321.364 29.3203 321.09C29.5469 320.817 29.8164 320.606 30.1289 320.457C30.4453 320.305 30.7949 320.229 31.1777 320.229C31.4902 320.229 31.7715 320.272 32.0215 320.358C32.2715 320.44 32.4844 320.573 32.6602 320.756C32.8398 320.94 32.9766 321.178 33.0703 321.471C33.1641 321.76 33.2109 322.114 33.2109 322.532V326.686H32.1211V322.52C32.1211 322.188 32.0723 321.922 31.9746 321.723C31.877 321.52 31.7344 321.373 31.5469 321.284C31.3594 321.19 31.1289 321.143 30.8555 321.143C30.5859 321.143 30.3398 321.2 30.1172 321.313C29.8984 321.426 29.709 321.582 29.5488 321.782C29.3926 321.981 29.2695 322.209 29.1797 322.467C29.0938 322.721 29.0508 322.991 29.0508 323.276ZM38.8535 325.455V317.686H39.9434V326.686H38.9473L38.8535 325.455ZM34.5879 323.586V323.463C34.5879 322.979 34.6465 322.539 34.7637 322.145C34.8848 321.746 35.0547 321.405 35.2734 321.12C35.4961 320.834 35.7598 320.616 36.0645 320.463C36.373 320.307 36.7168 320.229 37.0957 320.229C37.4941 320.229 37.8418 320.299 38.1387 320.44C38.4395 320.577 38.6934 320.778 38.9004 321.043C39.1113 321.305 39.2773 321.621 39.3984 321.993C39.5195 322.364 39.6035 322.784 39.6504 323.252V323.791C39.6074 324.256 39.5234 324.674 39.3984 325.045C39.2773 325.416 39.1113 325.733 38.9004 325.995C38.6934 326.256 38.4395 326.457 38.1387 326.598C37.8379 326.735 37.4863 326.803 37.084 326.803C36.7129 326.803 36.373 326.723 36.0645 326.563C35.7598 326.403 35.4961 326.178 35.2734 325.889C35.0547 325.6 34.8848 325.26 34.7637 324.87C34.6465 324.475 34.5879 324.047 34.5879 323.586ZM35.6777 323.463V323.586C35.6777 323.903 35.709 324.2 35.7715 324.477C35.8379 324.754 35.9395 324.998 36.0762 325.209C36.2129 325.42 36.3867 325.586 36.5977 325.707C36.8086 325.825 37.0605 325.883 37.3535 325.883C37.7129 325.883 38.0078 325.807 38.2383 325.655C38.4727 325.502 38.6602 325.301 38.8008 325.051C38.9414 324.801 39.0508 324.53 39.1289 324.237V322.825C39.082 322.61 39.0137 322.403 38.9238 322.203C38.8379 322 38.7246 321.821 38.584 321.664C38.4473 321.504 38.2773 321.377 38.0742 321.284C37.875 321.19 37.6387 321.143 37.3652 321.143C37.0684 321.143 36.8125 321.205 36.5977 321.33C36.3867 321.452 36.2129 321.62 36.0762 321.834C35.9395 322.045 35.8379 322.291 35.7715 322.573C35.709 322.85 35.6777 323.147 35.6777 323.463ZM45.3691 325.602V322.338C45.3691 322.088 45.3184 321.871 45.2168 321.688C45.1191 321.5 44.9707 321.356 44.7715 321.254C44.5723 321.153 44.3262 321.102 44.0332 321.102C43.7598 321.102 43.5195 321.149 43.3125 321.243C43.1094 321.336 42.9492 321.459 42.832 321.612C42.7188 321.764 42.6621 321.928 42.6621 322.104H41.5781C41.5781 321.877 41.6367 321.653 41.7539 321.43C41.8711 321.207 42.0391 321.006 42.2578 320.827C42.4805 320.643 42.7461 320.498 43.0547 320.393C43.3672 320.284 43.7148 320.229 44.0977 320.229C44.5586 320.229 44.9648 320.307 45.3164 320.463C45.6719 320.62 45.9492 320.856 46.1484 321.172C46.3516 321.485 46.4531 321.877 46.4531 322.35V325.303C46.4531 325.514 46.4707 325.739 46.5059 325.977C46.5449 326.215 46.6016 326.42 46.6758 326.592V326.686H45.5449C45.4902 326.561 45.4473 326.395 45.416 326.188C45.3848 325.977 45.3691 325.782 45.3691 325.602ZM45.5566 322.842L45.5684 323.604H44.4727C44.1641 323.604 43.8887 323.629 43.6465 323.68C43.4043 323.727 43.2012 323.799 43.0371 323.897C42.873 323.995 42.748 324.118 42.6621 324.266C42.5762 324.411 42.5332 324.58 42.5332 324.776C42.5332 324.975 42.5781 325.157 42.668 325.321C42.7578 325.485 42.8926 325.616 43.0723 325.713C43.2559 325.807 43.4805 325.854 43.7461 325.854C44.0781 325.854 44.3711 325.784 44.625 325.643C44.8789 325.502 45.0801 325.33 45.2285 325.127C45.3809 324.924 45.4629 324.727 45.4746 324.536L45.9375 325.057C45.9102 325.221 45.8359 325.403 45.7148 325.602C45.5938 325.801 45.4316 325.993 45.2285 326.176C45.0293 326.356 44.791 326.506 44.5137 326.627C44.2402 326.745 43.9316 326.803 43.5879 326.803C43.1582 326.803 42.7812 326.719 42.457 326.551C42.1367 326.383 41.8867 326.159 41.707 325.877C41.5312 325.592 41.4434 325.274 41.4434 324.922C41.4434 324.582 41.5098 324.284 41.6426 324.026C41.7754 323.764 41.9668 323.547 42.2168 323.375C42.4668 323.2 42.7676 323.067 43.1191 322.977C43.4707 322.887 43.8633 322.842 44.2969 322.842H45.5566ZM49.8457 326.03L51.6094 320.346H52.7695L50.2266 327.664C50.168 327.821 50.0898 327.989 49.9922 328.168C49.8984 328.352 49.7773 328.526 49.6289 328.69C49.4805 328.854 49.3008 328.987 49.0898 329.088C48.8828 329.194 48.6348 329.246 48.3457 329.246C48.2598 329.246 48.1504 329.235 48.0176 329.211C47.8848 329.188 47.791 329.168 47.7363 329.153L47.7305 328.274C47.7617 328.278 47.8105 328.282 47.877 328.286C47.9473 328.293 47.9961 328.297 48.0234 328.297C48.2695 328.297 48.4785 328.264 48.6504 328.198C48.8223 328.135 48.9668 328.028 49.084 327.875C49.2051 327.727 49.3086 327.522 49.3945 327.26L49.8457 326.03ZM48.5508 320.346L50.1973 325.268L50.4785 326.411L49.6992 326.809L47.3672 320.346H48.5508Z" fill="#333333"/>
<path d="M114.807 318.155V326.686H113.693V318.155H114.807ZM117.549 318.155V319.08H110.957V318.155H117.549ZM121.967 325.221V320.346H123.057V326.686H122.02L121.967 325.221ZM122.172 323.885L122.623 323.873C122.623 324.295 122.578 324.686 122.488 325.045C122.402 325.401 122.262 325.709 122.066 325.971C121.871 326.233 121.615 326.438 121.299 326.586C120.982 326.731 120.598 326.803 120.145 326.803C119.836 326.803 119.553 326.758 119.295 326.668C119.041 326.578 118.822 326.44 118.639 326.252C118.455 326.065 118.312 325.821 118.211 325.52C118.113 325.219 118.064 324.858 118.064 324.436V320.346H119.148V324.448C119.148 324.733 119.18 324.969 119.242 325.157C119.309 325.34 119.396 325.487 119.506 325.596C119.619 325.702 119.744 325.776 119.881 325.819C120.021 325.862 120.166 325.883 120.314 325.883C120.775 325.883 121.141 325.795 121.41 325.62C121.68 325.44 121.873 325.2 121.99 324.899C122.111 324.594 122.172 324.256 122.172 323.885ZM127.34 326.803C126.898 326.803 126.498 326.729 126.139 326.58C125.783 326.428 125.477 326.215 125.219 325.942C124.965 325.668 124.77 325.344 124.633 324.969C124.496 324.594 124.428 324.184 124.428 323.739V323.493C124.428 322.977 124.504 322.518 124.656 322.116C124.809 321.709 125.016 321.366 125.277 321.084C125.539 320.803 125.836 320.59 126.168 320.446C126.5 320.301 126.844 320.229 127.199 320.229C127.652 320.229 128.043 320.307 128.371 320.463C128.703 320.62 128.975 320.838 129.186 321.12C129.396 321.397 129.553 321.725 129.654 322.104C129.756 322.479 129.807 322.889 129.807 323.334V323.821H125.072V322.936H128.723V322.854C128.707 322.573 128.648 322.299 128.547 322.034C128.449 321.768 128.293 321.549 128.078 321.377C127.863 321.205 127.57 321.12 127.199 321.12C126.953 321.12 126.727 321.172 126.52 321.278C126.312 321.379 126.135 321.532 125.986 321.735C125.838 321.938 125.723 322.186 125.641 322.479C125.559 322.772 125.518 323.11 125.518 323.493V323.739C125.518 324.039 125.559 324.323 125.641 324.588C125.727 324.85 125.85 325.08 126.01 325.28C126.174 325.479 126.371 325.635 126.602 325.748C126.836 325.862 127.102 325.918 127.398 325.918C127.781 325.918 128.105 325.84 128.371 325.684C128.637 325.528 128.869 325.319 129.068 325.057L129.725 325.578C129.588 325.786 129.414 325.983 129.203 326.17C128.992 326.358 128.732 326.51 128.424 326.627C128.119 326.745 127.758 326.803 127.34 326.803ZM134.764 325.004C134.764 324.848 134.729 324.703 134.658 324.571C134.592 324.434 134.453 324.311 134.242 324.202C134.035 324.088 133.723 323.991 133.305 323.909C132.953 323.834 132.635 323.746 132.35 323.645C132.068 323.543 131.828 323.42 131.629 323.276C131.434 323.131 131.283 322.961 131.178 322.766C131.072 322.571 131.02 322.342 131.02 322.08C131.02 321.83 131.074 321.594 131.184 321.371C131.297 321.149 131.455 320.952 131.658 320.78C131.865 320.608 132.113 320.473 132.402 320.375C132.691 320.278 133.014 320.229 133.369 320.229C133.877 320.229 134.311 320.319 134.67 320.498C135.029 320.678 135.305 320.918 135.496 321.219C135.688 321.516 135.783 321.846 135.783 322.209H134.699C134.699 322.034 134.646 321.864 134.541 321.7C134.439 321.532 134.289 321.393 134.09 321.284C133.895 321.174 133.654 321.12 133.369 321.12C133.068 321.12 132.824 321.166 132.637 321.26C132.453 321.35 132.318 321.465 132.232 321.606C132.15 321.746 132.109 321.895 132.109 322.051C132.109 322.168 132.129 322.274 132.168 322.368C132.211 322.457 132.285 322.541 132.391 322.62C132.496 322.694 132.645 322.764 132.836 322.83C133.027 322.897 133.271 322.963 133.568 323.03C134.088 323.147 134.516 323.287 134.852 323.452C135.188 323.616 135.438 323.817 135.602 324.055C135.766 324.293 135.848 324.582 135.848 324.922C135.848 325.2 135.789 325.453 135.672 325.684C135.559 325.914 135.393 326.114 135.174 326.282C134.959 326.446 134.701 326.575 134.4 326.668C134.104 326.758 133.77 326.803 133.398 326.803C132.84 326.803 132.367 326.703 131.98 326.504C131.594 326.305 131.301 326.047 131.102 325.731C130.902 325.414 130.803 325.08 130.803 324.729H131.893C131.908 325.026 131.994 325.262 132.15 325.438C132.307 325.61 132.498 325.733 132.725 325.807C132.951 325.877 133.176 325.912 133.398 325.912C133.695 325.912 133.943 325.873 134.143 325.795C134.346 325.717 134.5 325.61 134.605 325.473C134.711 325.336 134.764 325.18 134.764 325.004ZM141.268 325.455V317.686H142.357V326.686H141.361L141.268 325.455ZM137.002 323.586V323.463C137.002 322.979 137.061 322.539 137.178 322.145C137.299 321.746 137.469 321.405 137.688 321.12C137.91 320.834 138.174 320.616 138.479 320.463C138.787 320.307 139.131 320.229 139.51 320.229C139.908 320.229 140.256 320.299 140.553 320.44C140.854 320.577 141.107 320.778 141.314 321.043C141.525 321.305 141.691 321.621 141.812 321.993C141.934 322.364 142.018 322.784 142.064 323.252V323.791C142.021 324.256 141.938 324.674 141.812 325.045C141.691 325.416 141.525 325.733 141.314 325.995C141.107 326.256 140.854 326.457 140.553 326.598C140.252 326.735 139.9 326.803 139.498 326.803C139.127 326.803 138.787 326.723 138.479 326.563C138.174 326.403 137.91 326.178 137.688 325.889C137.469 325.6 137.299 325.26 137.178 324.87C137.061 324.475 137.002 324.047 137.002 323.586ZM138.092 323.463V323.586C138.092 323.903 138.123 324.2 138.186 324.477C138.252 324.754 138.354 324.998 138.49 325.209C138.627 325.42 138.801 325.586 139.012 325.707C139.223 325.825 139.475 325.883 139.768 325.883C140.127 325.883 140.422 325.807 140.652 325.655C140.887 325.502 141.074 325.301 141.215 325.051C141.355 324.801 141.465 324.53 141.543 324.237V322.825C141.496 322.61 141.428 322.403 141.338 322.203C141.252 322 141.139 321.821 140.998 321.664C140.861 321.504 140.691 321.377 140.488 321.284C140.289 321.19 140.053 321.143 139.779 321.143C139.482 321.143 139.227 321.205 139.012 321.33C138.801 321.452 138.627 321.62 138.49 321.834C138.354 322.045 138.252 322.291 138.186 322.573C138.123 322.85 138.092 323.147 138.092 323.463ZM147.783 325.602V322.338C147.783 322.088 147.732 321.871 147.631 321.688C147.533 321.5 147.385 321.356 147.186 321.254C146.986 321.153 146.74 321.102 146.447 321.102C146.174 321.102 145.934 321.149 145.727 321.243C145.523 321.336 145.363 321.459 145.246 321.612C145.133 321.764 145.076 321.928 145.076 322.104H143.992C143.992 321.877 144.051 321.653 144.168 321.43C144.285 321.207 144.453 321.006 144.672 320.827C144.895 320.643 145.16 320.498 145.469 320.393C145.781 320.284 146.129 320.229 146.512 320.229C146.973 320.229 147.379 320.307 147.73 320.463C148.086 320.62 148.363 320.856 148.562 321.172C148.766 321.485 148.867 321.877 148.867 322.35V325.303C148.867 325.514 148.885 325.739 148.92 325.977C148.959 326.215 149.016 326.42 149.09 326.592V326.686H147.959C147.904 326.561 147.861 326.395 147.83 326.188C147.799 325.977 147.783 325.782 147.783 325.602ZM147.971 322.842L147.982 323.604H146.887C146.578 323.604 146.303 323.629 146.061 323.68C145.818 323.727 145.615 323.799 145.451 323.897C145.287 323.995 145.162 324.118 145.076 324.266C144.99 324.411 144.947 324.58 144.947 324.776C144.947 324.975 144.992 325.157 145.082 325.321C145.172 325.485 145.307 325.616 145.486 325.713C145.67 325.807 145.895 325.854 146.16 325.854C146.492 325.854 146.785 325.784 147.039 325.643C147.293 325.502 147.494 325.33 147.643 325.127C147.795 324.924 147.877 324.727 147.889 324.536L148.352 325.057C148.324 325.221 148.25 325.403 148.129 325.602C148.008 325.801 147.846 325.993 147.643 326.176C147.443 326.356 147.205 326.506 146.928 326.627C146.654 326.745 146.346 326.803 146.002 326.803C145.572 326.803 145.195 326.719 144.871 326.551C144.551 326.383 144.301 326.159 144.121 325.877C143.945 325.592 143.857 325.274 143.857 324.922C143.857 324.582 143.924 324.284 144.057 324.026C144.189 323.764 144.381 323.547 144.631 323.375C144.881 323.2 145.182 323.067 145.533 322.977C145.885 322.887 146.277 322.842 146.711 322.842H147.971ZM152.26 326.03L154.023 320.346H155.184L152.641 327.664C152.582 327.821 152.504 327.989 152.406 328.168C152.312 328.352 152.191 328.526 152.043 328.69C151.895 328.854 151.715 328.987 151.504 329.088C151.297 329.194 151.049 329.246 150.76 329.246C150.674 329.246 150.564 329.235 150.432 329.211C150.299 329.188 150.205 329.168 150.15 329.153L150.145 328.274C150.176 328.278 150.225 328.282 150.291 328.286C150.361 328.293 150.41 328.297 150.438 328.297C150.684 328.297 150.893 328.264 151.064 328.198C151.236 328.135 151.381 328.028 151.498 327.875C151.619 327.727 151.723 327.522 151.809 327.26L152.26 326.03ZM150.965 320.346L152.611 325.268L152.893 326.411L152.113 326.809L149.781 320.346H150.965Z" fill="#333333"/>
<path d="M205.891 324.108L207.584 318.155H208.404L207.93 320.469L206.107 326.686H205.293L205.891 324.108ZM204.139 318.155L205.486 323.991L205.891 326.686H205.082L203.014 318.155H204.139ZM210.596 323.985L211.914 318.155H213.045L210.982 326.686H210.174L210.596 323.985ZM208.527 318.155L210.174 324.108L210.771 326.686H209.957L208.199 320.469L207.719 318.155H208.527ZM216.578 326.803C216.137 326.803 215.736 326.729 215.377 326.58C215.021 326.428 214.715 326.215 214.457 325.942C214.203 325.668 214.008 325.344 213.871 324.969C213.734 324.594 213.666 324.184 213.666 323.739V323.493C213.666 322.977 213.742 322.518 213.895 322.116C214.047 321.709 214.254 321.366 214.516 321.084C214.777 320.803 215.074 320.59 215.406 320.446C215.738 320.301 216.082 320.229 216.438 320.229C216.891 320.229 217.281 320.307 217.609 320.463C217.941 320.62 218.213 320.838 218.424 321.12C218.635 321.397 218.791 321.725 218.893 322.104C218.994 322.479 219.045 322.889 219.045 323.334V323.821H214.311V322.936H217.961V322.854C217.945 322.573 217.887 322.299 217.785 322.034C217.688 321.768 217.531 321.549 217.316 321.377C217.102 321.205 216.809 321.12 216.438 321.12C216.191 321.12 215.965 321.172 215.758 321.278C215.551 321.379 215.373 321.532 215.225 321.735C215.076 321.938 214.961 322.186 214.879 322.479C214.797 322.772 214.756 323.11 214.756 323.493V323.739C214.756 324.039 214.797 324.323 214.879 324.588C214.965 324.85 215.088 325.08 215.248 325.28C215.412 325.479 215.609 325.635 215.84 325.748C216.074 325.862 216.34 325.918 216.637 325.918C217.02 325.918 217.344 325.84 217.609 325.684C217.875 325.528 218.107 325.319 218.307 325.057L218.963 325.578C218.826 325.786 218.652 325.983 218.441 326.17C218.23 326.358 217.971 326.51 217.662 326.627C217.357 326.745 216.996 326.803 216.578 326.803ZM224.307 325.455V317.686H225.396V326.686H224.4L224.307 325.455ZM220.041 323.586V323.463C220.041 322.979 220.1 322.539 220.217 322.145C220.338 321.746 220.508 321.405 220.727 321.12C220.949 320.834 221.213 320.616 221.518 320.463C221.826 320.307 222.17 320.229 222.549 320.229C222.947 320.229 223.295 320.299 223.592 320.44C223.893 320.577 224.146 320.778 224.354 321.043C224.564 321.305 224.73 321.621 224.852 321.993C224.973 322.364 225.057 322.784 225.104 323.252V323.791C225.061 324.256 224.977 324.674 224.852 325.045C224.73 325.416 224.564 325.733 224.354 325.995C224.146 326.256 223.893 326.457 223.592 326.598C223.291 326.735 222.939 326.803 222.537 326.803C222.166 326.803 221.826 326.723 221.518 326.563C221.213 326.403 220.949 326.178 220.727 325.889C220.508 325.6 220.338 325.26 220.217 324.87C220.1 324.475 220.041 324.047 220.041 323.586ZM221.131 323.463V323.586C221.131 323.903 221.162 324.2 221.225 324.477C221.291 324.754 221.393 324.998 221.529 325.209C221.666 325.42 221.84 325.586 222.051 325.707C222.262 325.825 222.514 325.883 222.807 325.883C223.166 325.883 223.461 325.807 223.691 325.655C223.926 325.502 224.113 325.301 224.254 325.051C224.395 324.801 224.504 324.53 224.582 324.237V322.825C224.535 322.61 224.467 322.403 224.377 322.203C224.291 322 224.178 321.821 224.037 321.664C223.9 321.504 223.73 321.377 223.527 321.284C223.328 321.19 223.092 321.143 222.818 321.143C222.521 321.143 222.266 321.205 222.051 321.33C221.84 321.452 221.666 321.62 221.529 321.834C221.393 322.045 221.291 322.291 221.225 322.573C221.162 322.85 221.131 323.147 221.131 323.463ZM228.168 321.7V326.686H227.084V320.346H228.109L228.168 321.7ZM227.91 323.276L227.459 323.258C227.463 322.825 227.527 322.424 227.652 322.057C227.777 321.686 227.953 321.364 228.18 321.09C228.406 320.817 228.676 320.606 228.988 320.457C229.305 320.305 229.654 320.229 230.037 320.229C230.35 320.229 230.631 320.272 230.881 320.358C231.131 320.44 231.344 320.573 231.52 320.756C231.699 320.94 231.836 321.178 231.93 321.471C232.023 321.76 232.07 322.114 232.07 322.532V326.686H230.98V322.52C230.98 322.188 230.932 321.922 230.834 321.723C230.736 321.52 230.594 321.373 230.406 321.284C230.219 321.19 229.988 321.143 229.715 321.143C229.445 321.143 229.199 321.2 228.977 321.313C228.758 321.426 228.568 321.582 228.408 321.782C228.252 321.981 228.129 322.209 228.039 322.467C227.953 322.721 227.91 322.991 227.91 323.276ZM236.348 326.803C235.906 326.803 235.506 326.729 235.146 326.58C234.791 326.428 234.484 326.215 234.227 325.942C233.973 325.668 233.777 325.344 233.641 324.969C233.504 324.594 233.436 324.184 233.436 323.739V323.493C233.436 322.977 233.512 322.518 233.664 322.116C233.816 321.709 234.023 321.366 234.285 321.084C234.547 320.803 234.844 320.59 235.176 320.446C235.508 320.301 235.852 320.229 236.207 320.229C236.66 320.229 237.051 320.307 237.379 320.463C237.711 320.62 237.982 320.838 238.193 321.12C238.404 321.397 238.561 321.725 238.662 322.104C238.764 322.479 238.814 322.889 238.814 323.334V323.821H234.08V322.936H237.73V322.854C237.715 322.573 237.656 322.299 237.555 322.034C237.457 321.768 237.301 321.549 237.086 321.377C236.871 321.205 236.578 321.12 236.207 321.12C235.961 321.12 235.734 321.172 235.527 321.278C235.32 321.379 235.143 321.532 234.994 321.735C234.846 321.938 234.73 322.186 234.648 322.479C234.566 322.772 234.525 323.11 234.525 323.493V323.739C234.525 324.039 234.566 324.323 234.648 324.588C234.734 324.85 234.857 325.08 235.018 325.28C235.182 325.479 235.379 325.635 235.609 325.748C235.844 325.862 236.109 325.918 236.406 325.918C236.789 325.918 237.113 325.84 237.379 325.684C237.645 325.528 237.877 325.319 238.076 325.057L238.732 325.578C238.596 325.786 238.422 325.983 238.211 326.17C238 326.358 237.74 326.51 237.432 326.627C237.127 326.745 236.766 326.803 236.348 326.803ZM243.771 325.004C243.771 324.848 243.736 324.703 243.666 324.571C243.6 324.434 243.461 324.311 243.25 324.202C243.043 324.088 242.73 323.991 242.312 323.909C241.961 323.834 241.643 323.746 241.357 323.645C241.076 323.543 240.836 323.42 240.637 323.276C240.441 323.131 240.291 322.961 240.186 322.766C240.08 322.571 240.027 322.342 240.027 322.08C240.027 321.83 240.082 321.594 240.191 321.371C240.305 321.149 240.463 320.952 240.666 320.78C240.873 320.608 241.121 320.473 241.41 320.375C241.699 320.278 242.021 320.229 242.377 320.229C242.885 320.229 243.318 320.319 243.678 320.498C244.037 320.678 244.312 320.918 244.504 321.219C244.695 321.516 244.791 321.846 244.791 322.209H243.707C243.707 322.034 243.654 321.864 243.549 321.7C243.447 321.532 243.297 321.393 243.098 321.284C242.902 321.174 242.662 321.12 242.377 321.12C242.076 321.12 241.832 321.166 241.645 321.26C241.461 321.35 241.326 321.465 241.24 321.606C241.158 321.746 241.117 321.895 241.117 322.051C241.117 322.168 241.137 322.274 241.176 322.368C241.219 322.457 241.293 322.541 241.398 322.62C241.504 322.694 241.652 322.764 241.844 322.83C242.035 322.897 242.279 322.963 242.576 323.03C243.096 323.147 243.523 323.287 243.859 323.452C244.195 323.616 244.445 323.817 244.609 324.055C244.773 324.293 244.855 324.582 244.855 324.922C244.855 325.2 244.797 325.453 244.68 325.684C244.566 325.914 244.4 326.114 244.182 326.282C243.967 326.446 243.709 326.575 243.408 326.668C243.111 326.758 242.777 326.803 242.406 326.803C241.848 326.803 241.375 326.703 240.988 326.504C240.602 326.305 240.309 326.047 240.109 325.731C239.91 325.414 239.811 325.08 239.811 324.729H240.9C240.916 325.026 241.002 325.262 241.158 325.438C241.314 325.61 241.506 325.733 241.732 325.807C241.959 325.877 242.184 325.912 242.406 325.912C242.703 325.912 242.951 325.873 243.15 325.795C243.354 325.717 243.508 325.61 243.613 325.473C243.719 325.336 243.771 325.18 243.771 325.004ZM250.275 325.455V317.686H251.365V326.686H250.369L250.275 325.455ZM246.01 323.586V323.463C246.01 322.979 246.068 322.539 246.186 322.145C246.307 321.746 246.477 321.405 246.695 321.12C246.918 320.834 247.182 320.616 247.486 320.463C247.795 320.307 248.139 320.229 248.518 320.229C248.916 320.229 249.264 320.299 249.561 320.44C249.861 320.577 250.115 320.778 250.322 321.043C250.533 321.305 250.699 321.621 250.82 321.993C250.941 322.364 251.025 322.784 251.072 323.252V323.791C251.029 324.256 250.945 324.674 250.82 325.045C250.699 325.416 250.533 325.733 250.322 325.995C250.115 326.256 249.861 326.457 249.561 326.598C249.26 326.735 248.908 326.803 248.506 326.803C248.135 326.803 247.795 326.723 247.486 326.563C247.182 326.403 246.918 326.178 246.695 325.889C246.477 325.6 246.307 325.26 246.186 324.87C246.068 324.475 246.01 324.047 246.01 323.586ZM247.1 323.463V323.586C247.1 323.903 247.131 324.2 247.193 324.477C247.26 324.754 247.361 324.998 247.498 325.209C247.635 325.42 247.809 325.586 248.02 325.707C248.23 325.825 248.482 325.883 248.775 325.883C249.135 325.883 249.43 325.807 249.66 325.655C249.895 325.502 250.082 325.301 250.223 325.051C250.363 324.801 250.473 324.53 250.551 324.237V322.825C250.504 322.61 250.436 322.403 250.346 322.203C250.26 322 250.146 321.821 250.006 321.664C249.869 321.504 249.699 321.377 249.496 321.284C249.297 321.19 249.061 321.143 248.787 321.143C248.49 321.143 248.234 321.205 248.02 321.33C247.809 321.452 247.635 321.62 247.498 321.834C247.361 322.045 247.26 322.291 247.193 322.573C247.131 322.85 247.1 323.147 247.1 323.463ZM256.791 325.602V322.338C256.791 322.088 256.74 321.871 256.639 321.688C256.541 321.5 256.393 321.356 256.193 321.254C255.994 321.153 255.748 321.102 255.455 321.102C255.182 321.102 254.941 321.149 254.734 321.243C254.531 321.336 254.371 321.459 254.254 321.612C254.141 321.764 254.084 321.928 254.084 322.104H253C253 321.877 253.059 321.653 253.176 321.43C253.293 321.207 253.461 321.006 253.68 320.827C253.902 320.643 254.168 320.498 254.477 320.393C254.789 320.284 255.137 320.229 255.52 320.229C255.98 320.229 256.387 320.307 256.738 320.463C257.094 320.62 257.371 320.856 257.57 321.172C257.773 321.485 257.875 321.877 257.875 322.35V325.303C257.875 325.514 257.893 325.739 257.928 325.977C257.967 326.215 258.023 326.42 258.098 326.592V326.686H256.967C256.912 326.561 256.869 326.395 256.838 326.188C256.807 325.977 256.791 325.782 256.791 325.602ZM256.979 322.842L256.99 323.604H255.895C255.586 323.604 255.311 323.629 255.068 323.68C254.826 323.727 254.623 323.799 254.459 323.897C254.295 323.995 254.17 324.118 254.084 324.266C253.998 324.411 253.955 324.58 253.955 324.776C253.955 324.975 254 325.157 254.09 325.321C254.18 325.485 254.314 325.616 254.494 325.713C254.678 325.807 254.902 325.854 255.168 325.854C255.5 325.854 255.793 325.784 256.047 325.643C256.301 325.502 256.502 325.33 256.65 325.127C256.803 324.924 256.885 324.727 256.896 324.536L257.359 325.057C257.332 325.221 257.258 325.403 257.137 325.602C257.016 325.801 256.854 325.993 256.65 326.176C256.451 326.356 256.213 326.506 255.936 326.627C255.662 326.745 255.354 326.803 255.01 326.803C254.58 326.803 254.203 326.719 253.879 326.551C253.559 326.383 253.309 326.159 253.129 325.877C252.953 325.592 252.865 325.274 252.865 324.922C252.865 324.582 252.932 324.284 253.064 324.026C253.197 323.764 253.389 323.547 253.639 323.375C253.889 323.2 254.189 323.067 254.541 322.977C254.893 322.887 255.285 322.842 255.719 322.842H256.979ZM261.268 326.03L263.031 320.346H264.191L261.648 327.664C261.59 327.821 261.512 327.989 261.414 328.168C261.32 328.352 261.199 328.526 261.051 328.69C260.902 328.854 260.723 328.987 260.512 329.088C260.305 329.194 260.057 329.246 259.768 329.246C259.682 329.246 259.572 329.235 259.439 329.211C259.307 329.188 259.213 329.168 259.158 329.153L259.152 328.274C259.184 328.278 259.232 328.282 259.299 328.286C259.369 328.293 259.418 328.297 259.445 328.297C259.691 328.297 259.9 328.264 260.072 328.198C260.244 328.135 260.389 328.028 260.506 327.875C260.627 327.727 260.73 327.522 260.816 327.26L261.268 326.03ZM259.973 320.346L261.619 325.268L261.9 326.411L261.121 326.809L258.789 320.346H259.973Z" fill="#333333"/>
<path d="M314.869 318.155V326.686H313.756V318.155H314.869ZM317.611 318.155V319.08H311.02V318.155H317.611ZM319.797 317.686V326.686H318.713V317.686H319.797ZM319.539 323.276L319.088 323.258C319.092 322.825 319.156 322.424 319.281 322.057C319.406 321.686 319.582 321.364 319.809 321.09C320.035 320.817 320.305 320.606 320.617 320.457C320.934 320.305 321.283 320.229 321.666 320.229C321.979 320.229 322.26 320.272 322.51 320.358C322.76 320.44 322.973 320.573 323.148 320.756C323.328 320.94 323.465 321.178 323.559 321.471C323.652 321.76 323.699 322.114 323.699 322.532V326.686H322.609V322.52C322.609 322.188 322.561 321.922 322.463 321.723C322.365 321.52 322.223 321.373 322.035 321.284C321.848 321.19 321.617 321.143 321.344 321.143C321.074 321.143 320.828 321.2 320.605 321.313C320.387 321.426 320.197 321.582 320.037 321.782C319.881 321.981 319.758 322.209 319.668 322.467C319.582 322.721 319.539 322.991 319.539 323.276ZM329.201 325.221V320.346H330.291V326.686H329.254L329.201 325.221ZM329.406 323.885L329.857 323.873C329.857 324.295 329.812 324.686 329.723 325.045C329.637 325.401 329.496 325.709 329.301 325.971C329.105 326.233 328.85 326.438 328.533 326.586C328.217 326.731 327.832 326.803 327.379 326.803C327.07 326.803 326.787 326.758 326.529 326.668C326.275 326.578 326.057 326.44 325.873 326.252C325.689 326.065 325.547 325.821 325.445 325.52C325.348 325.219 325.299 324.858 325.299 324.436V320.346H326.383V324.448C326.383 324.733 326.414 324.969 326.477 325.157C326.543 325.34 326.631 325.487 326.74 325.596C326.854 325.702 326.979 325.776 327.115 325.819C327.256 325.862 327.4 325.883 327.549 325.883C328.01 325.883 328.375 325.795 328.645 325.62C328.914 325.44 329.107 325.2 329.225 324.899C329.346 324.594 329.406 324.256 329.406 323.885ZM333.027 321.342V326.686H331.943V320.346H332.998L333.027 321.342ZM335.008 320.311L335.002 321.319C334.912 321.299 334.826 321.287 334.744 321.284C334.666 321.276 334.576 321.272 334.475 321.272C334.225 321.272 334.004 321.311 333.812 321.389C333.621 321.467 333.459 321.577 333.326 321.717C333.193 321.858 333.088 322.026 333.01 322.221C332.936 322.412 332.887 322.623 332.863 322.854L332.559 323.03C332.559 322.647 332.596 322.287 332.67 321.952C332.748 321.616 332.867 321.319 333.027 321.061C333.188 320.799 333.391 320.596 333.637 320.452C333.887 320.303 334.184 320.229 334.527 320.229C334.605 320.229 334.695 320.239 334.797 320.258C334.898 320.274 334.969 320.291 335.008 320.311ZM339.701 325.004C339.701 324.848 339.666 324.703 339.596 324.571C339.529 324.434 339.391 324.311 339.18 324.202C338.973 324.088 338.66 323.991 338.242 323.909C337.891 323.834 337.572 323.746 337.287 323.645C337.006 323.543 336.766 323.42 336.566 323.276C336.371 323.131 336.221 322.961 336.115 322.766C336.01 322.571 335.957 322.342 335.957 322.08C335.957 321.83 336.012 321.594 336.121 321.371C336.234 321.149 336.393 320.952 336.596 320.78C336.803 320.608 337.051 320.473 337.34 320.375C337.629 320.278 337.951 320.229 338.307 320.229C338.814 320.229 339.248 320.319 339.607 320.498C339.967 320.678 340.242 320.918 340.434 321.219C340.625 321.516 340.721 321.846 340.721 322.209H339.637C339.637 322.034 339.584 321.864 339.479 321.7C339.377 321.532 339.227 321.393 339.027 321.284C338.832 321.174 338.592 321.12 338.307 321.12C338.006 321.12 337.762 321.166 337.574 321.26C337.391 321.35 337.256 321.465 337.17 321.606C337.088 321.746 337.047 321.895 337.047 322.051C337.047 322.168 337.066 322.274 337.105 322.368C337.148 322.457 337.223 322.541 337.328 322.62C337.434 322.694 337.582 322.764 337.773 322.83C337.965 322.897 338.209 322.963 338.506 323.03C339.025 323.147 339.453 323.287 339.789 323.452C340.125 323.616 340.375 323.817 340.539 324.055C340.703 324.293 340.785 324.582 340.785 324.922C340.785 325.2 340.727 325.453 340.609 325.684C340.496 325.914 340.33 326.114 340.111 326.282C339.896 326.446 339.639 326.575 339.338 326.668C339.041 326.758 338.707 326.803 338.336 326.803C337.777 326.803 337.305 326.703 336.918 326.504C336.531 326.305 336.238 326.047 336.039 325.731C335.84 325.414 335.74 325.08 335.74 324.729H336.83C336.846 325.026 336.932 325.262 337.088 325.438C337.244 325.61 337.436 325.733 337.662 325.807C337.889 325.877 338.113 325.912 338.336 325.912C338.633 325.912 338.881 325.873 339.08 325.795C339.283 325.717 339.438 325.61 339.543 325.473C339.648 325.336 339.701 325.18 339.701 325.004ZM346.205 325.455V317.686H347.295V326.686H346.299L346.205 325.455ZM341.939 323.586V323.463C341.939 322.979 341.998 322.539 342.115 322.145C342.236 321.746 342.406 321.405 342.625 321.12C342.848 320.834 343.111 320.616 343.416 320.463C343.725 320.307 344.068 320.229 344.447 320.229C344.846 320.229 345.193 320.299 345.49 320.44C345.791 320.577 346.045 320.778 346.252 321.043C346.463 321.305 346.629 321.621 346.75 321.993C346.871 322.364 346.955 322.784 347.002 323.252V323.791C346.959 324.256 346.875 324.674 346.75 325.045C346.629 325.416 346.463 325.733 346.252 325.995C346.045 326.256 345.791 326.457 345.49 326.598C345.189 326.735 344.838 326.803 344.436 326.803C344.064 326.803 343.725 326.723 343.416 326.563C343.111 326.403 342.848 326.178 342.625 325.889C342.406 325.6 342.236 325.26 342.115 324.87C341.998 324.475 341.939 324.047 341.939 323.586ZM343.029 323.463V323.586C343.029 323.903 343.061 324.2 343.123 324.477C343.189 324.754 343.291 324.998 343.428 325.209C343.564 325.42 343.738 325.586 343.949 325.707C344.16 325.825 344.412 325.883 344.705 325.883C345.064 325.883 345.359 325.807 345.59 325.655C345.824 325.502 346.012 325.301 346.152 325.051C346.293 324.801 346.402 324.53 346.48 324.237V322.825C346.434 322.61 346.365 322.403 346.275 322.203C346.189 322 346.076 321.821 345.936 321.664C345.799 321.504 345.629 321.377 345.426 321.284C345.227 321.19 344.99 321.143 344.717 321.143C344.42 321.143 344.164 321.205 343.949 321.33C343.738 321.452 343.564 321.62 343.428 321.834C343.291 322.045 343.189 322.291 343.123 322.573C343.061 322.85 343.029 323.147 343.029 323.463ZM352.721 325.602V322.338C352.721 322.088 352.67 321.871 352.568 321.688C352.471 321.5 352.322 321.356 352.123 321.254C351.924 321.153 351.678 321.102 351.385 321.102C351.111 321.102 350.871 321.149 350.664 321.243C350.461 321.336 350.301 321.459 350.184 321.612C350.07 321.764 350.014 321.928 350.014 322.104H348.93C348.93 321.877 348.988 321.653 349.105 321.43C349.223 321.207 349.391 321.006 349.609 320.827C349.832 320.643 350.098 320.498 350.406 320.393C350.719 320.284 351.066 320.229 351.449 320.229C351.91 320.229 352.316 320.307 352.668 320.463C353.023 320.62 353.301 320.856 353.5 321.172C353.703 321.485 353.805 321.877 353.805 322.35V325.303C353.805 325.514 353.822 325.739 353.857 325.977C353.896 326.215 353.953 326.42 354.027 326.592V326.686H352.896C352.842 326.561 352.799 326.395 352.768 326.188C352.736 325.977 352.721 325.782 352.721 325.602ZM352.908 322.842L352.92 323.604H351.824C351.516 323.604 351.24 323.629 350.998 323.68C350.756 323.727 350.553 323.799 350.389 323.897C350.225 323.995 350.1 324.118 350.014 324.266C349.928 324.411 349.885 324.58 349.885 324.776C349.885 324.975 349.93 325.157 350.02 325.321C350.109 325.485 350.244 325.616 350.424 325.713C350.607 325.807 350.832 325.854 351.098 325.854C351.43 325.854 351.723 325.784 351.977 325.643C352.23 325.502 352.432 325.33 352.58 325.127C352.732 324.924 352.814 324.727 352.826 324.536L353.289 325.057C353.262 325.221 353.188 325.403 353.066 325.602C352.945 325.801 352.783 325.993 352.58 326.176C352.381 326.356 352.143 326.506 351.865 326.627C351.592 326.745 351.283 326.803 350.939 326.803C350.51 326.803 350.133 326.719 349.809 326.551C349.488 326.383 349.238 326.159 349.059 325.877C348.883 325.592 348.795 325.274 348.795 324.922C348.795 324.582 348.861 324.284 348.994 324.026C349.127 323.764 349.318 323.547 349.568 323.375C349.818 323.2 350.119 323.067 350.471 322.977C350.822 322.887 351.215 322.842 351.648 322.842H352.908ZM357.197 326.03L358.961 320.346H360.121L357.578 327.664C357.52 327.821 357.441 327.989 357.344 328.168C357.25 328.352 357.129 328.526 356.98 328.69C356.832 328.854 356.652 328.987 356.441 329.088C356.234 329.194 355.986 329.246 355.697 329.246C355.611 329.246 355.502 329.235 355.369 329.211C355.236 329.188 355.143 329.168 355.088 329.153L355.082 328.274C355.113 328.278 355.162 328.282 355.229 328.286C355.299 328.293 355.348 328.297 355.375 328.297C355.621 328.297 355.83 328.264 356.002 328.198C356.174 328.135 356.318 328.028 356.436 327.875C356.557 327.727 356.66 327.522 356.746 327.26L357.197 326.03ZM355.902 320.346L357.549 325.268L357.83 326.411L357.051 326.809L354.719 320.346H355.902Z" fill="#333333"/>
<path d="M422.943 318.155V326.686H421.812V318.155H422.943ZM426.518 321.993V322.918H422.697V321.993H426.518ZM427.098 318.155V319.08H422.697V318.155H427.098ZM429.213 321.342V326.686H428.129V320.346H429.184L429.213 321.342ZM431.193 320.311L431.188 321.319C431.098 321.299 431.012 321.287 430.93 321.284C430.852 321.276 430.762 321.272 430.66 321.272C430.41 321.272 430.189 321.311 429.998 321.389C429.807 321.467 429.645 321.577 429.512 321.717C429.379 321.858 429.273 322.026 429.195 322.221C429.121 322.412 429.072 322.623 429.049 322.854L428.744 323.03C428.744 322.647 428.781 322.287 428.855 321.952C428.934 321.616 429.053 321.319 429.213 321.061C429.373 320.799 429.576 320.596 429.822 320.452C430.072 320.303 430.369 320.229 430.713 320.229C430.791 320.229 430.881 320.239 430.982 320.258C431.084 320.274 431.154 320.291 431.193 320.311ZM433.373 320.346V326.686H432.283V320.346H433.373ZM432.201 318.664C432.201 318.489 432.254 318.34 432.359 318.219C432.469 318.098 432.629 318.037 432.84 318.037C433.047 318.037 433.205 318.098 433.314 318.219C433.428 318.34 433.484 318.489 433.484 318.664C433.484 318.832 433.428 318.977 433.314 319.098C433.205 319.215 433.047 319.274 432.84 319.274C432.629 319.274 432.469 319.215 432.359 319.098C432.254 318.977 432.201 318.832 432.201 318.664ZM439.109 325.455V317.686H440.199V326.686H439.203L439.109 325.455ZM434.844 323.586V323.463C434.844 322.979 434.902 322.539 435.02 322.145C435.141 321.746 435.311 321.405 435.529 321.12C435.752 320.834 436.016 320.616 436.32 320.463C436.629 320.307 436.973 320.229 437.352 320.229C437.75 320.229 438.098 320.299 438.395 320.44C438.695 320.577 438.949 320.778 439.156 321.043C439.367 321.305 439.533 321.621 439.654 321.993C439.775 322.364 439.859 322.784 439.906 323.252V323.791C439.863 324.256 439.779 324.674 439.654 325.045C439.533 325.416 439.367 325.733 439.156 325.995C438.949 326.256 438.695 326.457 438.395 326.598C438.094 326.735 437.742 326.803 437.34 326.803C436.969 326.803 436.629 326.723 436.32 326.563C436.016 326.403 435.752 326.178 435.529 325.889C435.311 325.6 435.141 325.26 435.02 324.87C434.902 324.475 434.844 324.047 434.844 323.586ZM435.934 323.463V323.586C435.934 323.903 435.965 324.2 436.027 324.477C436.094 324.754 436.195 324.998 436.332 325.209C436.469 325.42 436.643 325.586 436.854 325.707C437.064 325.825 437.316 325.883 437.609 325.883C437.969 325.883 438.264 325.807 438.494 325.655C438.729 325.502 438.916 325.301 439.057 325.051C439.197 324.801 439.307 324.53 439.385 324.237V322.825C439.338 322.61 439.27 322.403 439.18 322.203C439.094 322 438.98 321.821 438.84 321.664C438.703 321.504 438.533 321.377 438.33 321.284C438.131 321.19 437.895 321.143 437.621 321.143C437.324 321.143 437.068 321.205 436.854 321.33C436.643 321.452 436.469 321.62 436.332 321.834C436.195 322.045 436.094 322.291 436.027 322.573C435.965 322.85 435.934 323.147 435.934 323.463ZM445.625 325.602V322.338C445.625 322.088 445.574 321.871 445.473 321.688C445.375 321.5 445.227 321.356 445.027 321.254C444.828 321.153 444.582 321.102 444.289 321.102C444.016 321.102 443.775 321.149 443.568 321.243C443.365 321.336 443.205 321.459 443.088 321.612C442.975 321.764 442.918 321.928 442.918 322.104H441.834C441.834 321.877 441.893 321.653 442.01 321.43C442.127 321.207 442.295 321.006 442.514 320.827C442.736 320.643 443.002 320.498 443.311 320.393C443.623 320.284 443.971 320.229 444.354 320.229C444.814 320.229 445.221 320.307 445.572 320.463C445.928 320.62 446.205 320.856 446.404 321.172C446.607 321.485 446.709 321.877 446.709 322.35V325.303C446.709 325.514 446.727 325.739 446.762 325.977C446.801 326.215 446.857 326.42 446.932 326.592V326.686H445.801C445.746 326.561 445.703 326.395 445.672 326.188C445.641 325.977 445.625 325.782 445.625 325.602ZM445.812 322.842L445.824 323.604H444.729C444.42 323.604 444.145 323.629 443.902 323.68C443.66 323.727 443.457 323.799 443.293 323.897C443.129 323.995 443.004 324.118 442.918 324.266C442.832 324.411 442.789 324.58 442.789 324.776C442.789 324.975 442.834 325.157 442.924 325.321C443.014 325.485 443.148 325.616 443.328 325.713C443.512 325.807 443.736 325.854 444.002 325.854C444.334 325.854 444.627 325.784 444.881 325.643C445.135 325.502 445.336 325.33 445.484 325.127C445.637 324.924 445.719 324.727 445.73 324.536L446.193 325.057C446.166 325.221 446.092 325.403 445.971 325.602C445.85 325.801 445.688 325.993 445.484 326.176C445.285 326.356 445.047 326.506 444.77 326.627C444.496 326.745 444.188 326.803 443.844 326.803C443.414 326.803 443.037 326.719 442.713 326.551C442.393 326.383 442.143 326.159 441.963 325.877C441.787 325.592 441.699 325.274 441.699 324.922C441.699 324.582 441.766 324.284 441.898 324.026C442.031 323.764 442.223 323.547 442.473 323.375C442.723 323.2 443.023 323.067 443.375 322.977C443.727 322.887 444.119 322.842 444.553 322.842H445.812ZM450.102 326.03L451.865 320.346H453.025L450.482 327.664C450.424 327.821 450.346 327.989 450.248 328.168C450.154 328.352 450.033 328.526 449.885 328.69C449.736 328.854 449.557 328.987 449.346 329.088C449.139 329.194 448.891 329.246 448.602 329.246C448.516 329.246 448.406 329.235 448.273 329.211C448.141 329.188 448.047 329.168 447.992 329.153L447.986 328.274C448.018 328.278 448.066 328.282 448.133 328.286C448.203 328.293 448.252 328.297 448.279 328.297C448.525 328.297 448.734 328.264 448.906 328.198C449.078 328.135 449.223 328.028 449.34 327.875C449.461 327.727 449.564 327.522 449.65 327.26L450.102 326.03ZM448.807 320.346L450.453 325.268L450.734 326.411L449.955 326.809L447.623 320.346H448.807Z" fill="#333333"/>
<path d="M520.018 324.53C520.018 324.33 519.986 324.155 519.924 324.002C519.865 323.846 519.76 323.705 519.607 323.58C519.459 323.455 519.252 323.336 518.986 323.223C518.725 323.11 518.393 322.995 517.99 322.877C517.568 322.752 517.188 322.614 516.848 322.461C516.508 322.305 516.217 322.127 515.975 321.928C515.732 321.729 515.547 321.5 515.418 321.243C515.289 320.985 515.225 320.69 515.225 320.358C515.225 320.026 515.293 319.719 515.43 319.438C515.566 319.157 515.762 318.912 516.016 318.705C516.273 318.495 516.58 318.33 516.936 318.213C517.291 318.096 517.688 318.037 518.125 318.037C518.766 318.037 519.309 318.161 519.754 318.407C520.203 318.649 520.545 318.967 520.779 319.362C521.014 319.752 521.131 320.17 521.131 320.616H520.006C520.006 320.295 519.938 320.012 519.801 319.766C519.664 319.516 519.457 319.321 519.18 319.18C518.902 319.036 518.551 318.963 518.125 318.963C517.723 318.963 517.391 319.024 517.129 319.145C516.867 319.266 516.672 319.43 516.543 319.637C516.418 319.844 516.355 320.08 516.355 320.346C516.355 320.526 516.393 320.69 516.467 320.838C516.545 320.983 516.664 321.118 516.824 321.243C516.988 321.368 517.195 321.483 517.445 321.588C517.699 321.694 518.002 321.795 518.354 321.893C518.838 322.03 519.256 322.182 519.607 322.35C519.959 322.518 520.248 322.707 520.475 322.918C520.705 323.125 520.875 323.362 520.984 323.627C521.098 323.889 521.154 324.186 521.154 324.518C521.154 324.866 521.084 325.18 520.943 325.461C520.803 325.743 520.602 325.983 520.34 326.182C520.078 326.381 519.764 326.536 519.396 326.645C519.033 326.75 518.627 326.803 518.178 326.803C517.783 326.803 517.395 326.748 517.012 326.639C516.633 326.53 516.287 326.366 515.975 326.147C515.666 325.928 515.418 325.659 515.23 325.338C515.047 325.014 514.955 324.639 514.955 324.213H516.08C516.08 324.506 516.137 324.758 516.25 324.969C516.363 325.176 516.518 325.348 516.713 325.485C516.912 325.621 517.137 325.723 517.387 325.789C517.641 325.852 517.904 325.883 518.178 325.883C518.572 325.883 518.906 325.828 519.18 325.719C519.453 325.61 519.66 325.453 519.801 325.25C519.945 325.047 520.018 324.807 520.018 324.53ZM526.17 325.602V322.338C526.17 322.088 526.119 321.871 526.018 321.688C525.92 321.5 525.771 321.356 525.572 321.254C525.373 321.153 525.127 321.102 524.834 321.102C524.561 321.102 524.32 321.149 524.113 321.243C523.91 321.336 523.75 321.459 523.633 321.612C523.52 321.764 523.463 321.928 523.463 322.104H522.379C522.379 321.877 522.438 321.653 522.555 321.43C522.672 321.207 522.84 321.006 523.059 320.827C523.281 320.643 523.547 320.498 523.855 320.393C524.168 320.284 524.516 320.229 524.898 320.229C525.359 320.229 525.766 320.307 526.117 320.463C526.473 320.62 526.75 320.856 526.949 321.172C527.152 321.485 527.254 321.877 527.254 322.35V325.303C527.254 325.514 527.271 325.739 527.307 325.977C527.346 326.215 527.402 326.42 527.477 326.592V326.686H526.346C526.291 326.561 526.248 326.395 526.217 326.188C526.186 325.977 526.17 325.782 526.17 325.602ZM526.357 322.842L526.369 323.604H525.273C524.965 323.604 524.689 323.629 524.447 323.68C524.205 323.727 524.002 323.799 523.838 323.897C523.674 323.995 523.549 324.118 523.463 324.266C523.377 324.411 523.334 324.58 523.334 324.776C523.334 324.975 523.379 325.157 523.469 325.321C523.559 325.485 523.693 325.616 523.873 325.713C524.057 325.807 524.281 325.854 524.547 325.854C524.879 325.854 525.172 325.784 525.426 325.643C525.68 325.502 525.881 325.33 526.029 325.127C526.182 324.924 526.264 324.727 526.275 324.536L526.738 325.057C526.711 325.221 526.637 325.403 526.516 325.602C526.395 325.801 526.232 325.993 526.029 326.176C525.83 326.356 525.592 326.506 525.314 326.627C525.041 326.745 524.732 326.803 524.389 326.803C523.959 326.803 523.582 326.719 523.258 326.551C522.938 326.383 522.688 326.159 522.508 325.877C522.332 325.592 522.244 325.274 522.244 324.922C522.244 324.582 522.311 324.284 522.443 324.026C522.576 323.764 522.768 323.547 523.018 323.375C523.268 323.2 523.568 323.067 523.92 322.977C524.271 322.887 524.664 322.842 525.098 322.842H526.357ZM531.613 320.346V321.178H528.186V320.346H531.613ZM529.346 318.805H530.43V325.116C530.43 325.33 530.463 325.493 530.529 325.602C530.596 325.711 530.682 325.784 530.787 325.819C530.893 325.854 531.006 325.871 531.127 325.871C531.217 325.871 531.311 325.864 531.408 325.848C531.51 325.828 531.586 325.813 531.637 325.801L531.643 326.686C531.557 326.713 531.443 326.739 531.303 326.762C531.166 326.789 531 326.803 530.805 326.803C530.539 326.803 530.295 326.75 530.072 326.645C529.85 326.539 529.672 326.364 529.539 326.118C529.41 325.868 529.346 325.532 529.346 325.11V318.805ZM536.764 325.221V320.346H537.854V326.686H536.816L536.764 325.221ZM536.969 323.885L537.42 323.873C537.42 324.295 537.375 324.686 537.285 325.045C537.199 325.401 537.059 325.709 536.863 325.971C536.668 326.233 536.412 326.438 536.096 326.586C535.779 326.731 535.395 326.803 534.941 326.803C534.633 326.803 534.35 326.758 534.092 326.668C533.838 326.578 533.619 326.44 533.436 326.252C533.252 326.065 533.109 325.821 533.008 325.52C532.91 325.219 532.861 324.858 532.861 324.436V320.346H533.945V324.448C533.945 324.733 533.977 324.969 534.039 325.157C534.105 325.34 534.193 325.487 534.303 325.596C534.416 325.702 534.541 325.776 534.678 325.819C534.818 325.862 534.963 325.883 535.111 325.883C535.572 325.883 535.938 325.795 536.207 325.62C536.477 325.44 536.67 325.2 536.787 324.899C536.908 324.594 536.969 324.256 536.969 323.885ZM540.59 321.342V326.686H539.506V320.346H540.561L540.59 321.342ZM542.57 320.311L542.564 321.319C542.475 321.299 542.389 321.287 542.307 321.284C542.229 321.276 542.139 321.272 542.037 321.272C541.787 321.272 541.566 321.311 541.375 321.389C541.184 321.467 541.021 321.577 540.889 321.717C540.756 321.858 540.65 322.026 540.572 322.221C540.498 322.412 540.449 322.623 540.426 322.854L540.121 323.03C540.121 322.647 540.158 322.287 540.232 321.952C540.311 321.616 540.43 321.319 540.59 321.061C540.75 320.799 540.953 320.596 541.199 320.452C541.449 320.303 541.746 320.229 542.09 320.229C542.168 320.229 542.258 320.239 542.359 320.258C542.461 320.274 542.531 320.291 542.57 320.311ZM547.451 325.455V317.686H548.541V326.686H547.545L547.451 325.455ZM543.186 323.586V323.463C543.186 322.979 543.244 322.539 543.361 322.145C543.482 321.746 543.652 321.405 543.871 321.12C544.094 320.834 544.357 320.616 544.662 320.463C544.971 320.307 545.314 320.229 545.693 320.229C546.092 320.229 546.439 320.299 546.736 320.44C547.037 320.577 547.291 320.778 547.498 321.043C547.709 321.305 547.875 321.621 547.996 321.993C548.117 322.364 548.201 322.784 548.248 323.252V323.791C548.205 324.256 548.121 324.674 547.996 325.045C547.875 325.416 547.709 325.733 547.498 325.995C547.291 326.256 547.037 326.457 546.736 326.598C546.436 326.735 546.084 326.803 545.682 326.803C545.311 326.803 544.971 326.723 544.662 326.563C544.357 326.403 544.094 326.178 543.871 325.889C543.652 325.6 543.482 325.26 543.361 324.87C543.244 324.475 543.186 324.047 543.186 323.586ZM544.275 323.463V323.586C544.275 323.903 544.307 324.2 544.369 324.477C544.436 324.754 544.537 324.998 544.674 325.209C544.811 325.42 544.984 325.586 545.195 325.707C545.406 325.825 545.658 325.883 545.951 325.883C546.311 325.883 546.605 325.807 546.836 325.655C547.07 325.502 547.258 325.301 547.398 325.051C547.539 324.801 547.648 324.53 547.727 324.237V322.825C547.68 322.61 547.611 322.403 547.521 322.203C547.436 322 547.322 321.821 547.182 321.664C547.045 321.504 546.875 321.377 546.672 321.284C546.473 321.19 546.236 321.143 545.963 321.143C545.666 321.143 545.41 321.205 545.195 321.33C544.984 321.452 544.811 321.62 544.674 321.834C544.537 322.045 544.436 322.291 544.369 322.573C544.307 322.85 544.275 323.147 544.275 323.463ZM553.967 325.602V322.338C553.967 322.088 553.916 321.871 553.814 321.688C553.717 321.5 553.568 321.356 553.369 321.254C553.17 321.153 552.924 321.102 552.631 321.102C552.357 321.102 552.117 321.149 551.91 321.243C551.707 321.336 551.547 321.459 551.43 321.612C551.316 321.764 551.26 321.928 551.26 322.104H550.176C550.176 321.877 550.234 321.653 550.352 321.43C550.469 321.207 550.637 321.006 550.855 320.827C551.078 320.643 551.344 320.498 551.652 320.393C551.965 320.284 552.312 320.229 552.695 320.229C553.156 320.229 553.562 320.307 553.914 320.463C554.27 320.62 554.547 320.856 554.746 321.172C554.949 321.485 555.051 321.877 555.051 322.35V325.303C555.051 325.514 555.068 325.739 555.104 325.977C555.143 326.215 555.199 326.42 555.273 326.592V326.686H554.143C554.088 326.561 554.045 326.395 554.014 326.188C553.982 325.977 553.967 325.782 553.967 325.602ZM554.154 322.842L554.166 323.604H553.07C552.762 323.604 552.486 323.629 552.244 323.68C552.002 323.727 551.799 323.799 551.635 323.897C551.471 323.995 551.346 324.118 551.26 324.266C551.174 324.411 551.131 324.58 551.131 324.776C551.131 324.975 551.176 325.157 551.266 325.321C551.355 325.485 551.49 325.616 551.67 325.713C551.854 325.807 552.078 325.854 552.344 325.854C552.676 325.854 552.969 325.784 553.223 325.643C553.477 325.502 553.678 325.33 553.826 325.127C553.979 324.924 554.061 324.727 554.072 324.536L554.535 325.057C554.508 325.221 554.434 325.403 554.312 325.602C554.191 325.801 554.029 325.993 553.826 326.176C553.627 326.356 553.389 326.506 553.111 326.627C552.838 326.745 552.529 326.803 552.186 326.803C551.756 326.803 551.379 326.719 551.055 326.551C550.734 326.383 550.484 326.159 550.305 325.877C550.129 325.592 550.041 325.274 550.041 324.922C550.041 324.582 550.107 324.284 550.24 324.026C550.373 323.764 550.564 323.547 550.814 323.375C551.064 323.2 551.365 323.067 551.717 322.977C552.068 322.887 552.461 322.842 552.895 322.842H554.154ZM558.443 326.03L560.207 320.346H561.367L558.824 327.664C558.766 327.821 558.688 327.989 558.59 328.168C558.496 328.352 558.375 328.526 558.227 328.69C558.078 328.854 557.898 328.987 557.688 329.088C557.48 329.194 557.232 329.246 556.943 329.246C556.857 329.246 556.748 329.235 556.615 329.211C556.482 329.188 556.389 329.168 556.334 329.153L556.328 328.274C556.359 328.278 556.408 328.282 556.475 328.286C556.545 328.293 556.594 328.297 556.621 328.297C556.867 328.297 557.076 328.264 557.248 328.198C557.42 328.135 557.564 328.028 557.682 327.875C557.803 327.727 557.906 327.522 557.992 327.26L558.443 326.03ZM557.148 320.346L558.795 325.268L559.076 326.411L558.297 326.809L555.965 320.346H557.148Z" fill="#333333"/>
<path d="M625.402 324.53C625.402 324.33 625.371 324.155 625.309 324.002C625.25 323.846 625.145 323.705 624.992 323.58C624.844 323.455 624.637 323.336 624.371 323.223C624.109 323.11 623.777 322.995 623.375 322.877C622.953 322.752 622.572 322.614 622.232 322.461C621.893 322.305 621.602 322.127 621.359 321.928C621.117 321.729 620.932 321.5 620.803 321.243C620.674 320.985 620.609 320.69 620.609 320.358C620.609 320.026 620.678 319.719 620.814 319.438C620.951 319.157 621.146 318.912 621.4 318.705C621.658 318.495 621.965 318.33 622.32 318.213C622.676 318.096 623.072 318.037 623.51 318.037C624.15 318.037 624.693 318.161 625.139 318.407C625.588 318.649 625.93 318.967 626.164 319.362C626.398 319.752 626.516 320.17 626.516 320.616H625.391C625.391 320.295 625.322 320.012 625.186 319.766C625.049 319.516 624.842 319.321 624.564 319.18C624.287 319.036 623.936 318.963 623.51 318.963C623.107 318.963 622.775 319.024 622.514 319.145C622.252 319.266 622.057 319.43 621.928 319.637C621.803 319.844 621.74 320.08 621.74 320.346C621.74 320.526 621.777 320.69 621.852 320.838C621.93 320.983 622.049 321.118 622.209 321.243C622.373 321.368 622.58 321.483 622.83 321.588C623.084 321.694 623.387 321.795 623.738 321.893C624.223 322.03 624.641 322.182 624.992 322.35C625.344 322.518 625.633 322.707 625.859 322.918C626.09 323.125 626.26 323.362 626.369 323.627C626.482 323.889 626.539 324.186 626.539 324.518C626.539 324.866 626.469 325.18 626.328 325.461C626.188 325.743 625.986 325.983 625.725 326.182C625.463 326.381 625.148 326.536 624.781 326.645C624.418 326.75 624.012 326.803 623.562 326.803C623.168 326.803 622.779 326.748 622.396 326.639C622.018 326.53 621.672 326.366 621.359 326.147C621.051 325.928 620.803 325.659 620.615 325.338C620.432 325.014 620.34 324.639 620.34 324.213H621.465C621.465 324.506 621.521 324.758 621.635 324.969C621.748 325.176 621.902 325.348 622.098 325.485C622.297 325.621 622.521 325.723 622.771 325.789C623.025 325.852 623.289 325.883 623.562 325.883C623.957 325.883 624.291 325.828 624.564 325.719C624.838 325.61 625.045 325.453 625.186 325.25C625.33 325.047 625.402 324.807 625.402 324.53ZM631.695 325.221V320.346H632.785V326.686H631.748L631.695 325.221ZM631.9 323.885L632.352 323.873C632.352 324.295 632.307 324.686 632.217 325.045C632.131 325.401 631.99 325.709 631.795 325.971C631.6 326.233 631.344 326.438 631.027 326.586C630.711 326.731 630.326 326.803 629.873 326.803C629.564 326.803 629.281 326.758 629.023 326.668C628.77 326.578 628.551 326.44 628.367 326.252C628.184 326.065 628.041 325.821 627.939 325.52C627.842 325.219 627.793 324.858 627.793 324.436V320.346H628.877V324.448C628.877 324.733 628.908 324.969 628.971 325.157C629.037 325.34 629.125 325.487 629.234 325.596C629.348 325.702 629.473 325.776 629.609 325.819C629.75 325.862 629.895 325.883 630.043 325.883C630.504 325.883 630.869 325.795 631.139 325.62C631.408 325.44 631.602 325.2 631.719 324.899C631.84 324.594 631.9 324.256 631.9 323.885ZM635.521 321.7V326.686H634.438V320.346H635.463L635.521 321.7ZM635.264 323.276L634.812 323.258C634.816 322.825 634.881 322.424 635.006 322.057C635.131 321.686 635.307 321.364 635.533 321.09C635.76 320.817 636.029 320.606 636.342 320.457C636.658 320.305 637.008 320.229 637.391 320.229C637.703 320.229 637.984 320.272 638.234 320.358C638.484 320.44 638.697 320.573 638.873 320.756C639.053 320.94 639.189 321.178 639.283 321.471C639.377 321.76 639.424 322.114 639.424 322.532V326.686H638.334V322.52C638.334 322.188 638.285 321.922 638.188 321.723C638.09 321.52 637.947 321.373 637.76 321.284C637.572 321.19 637.342 321.143 637.068 321.143C636.799 321.143 636.553 321.2 636.33 321.313C636.111 321.426 635.922 321.582 635.762 321.782C635.605 321.981 635.482 322.209 635.393 322.467C635.307 322.721 635.264 322.991 635.264 323.276ZM645.066 325.455V317.686H646.156V326.686H645.16L645.066 325.455ZM640.801 323.586V323.463C640.801 322.979 640.859 322.539 640.977 322.145C641.098 321.746 641.268 321.405 641.486 321.12C641.709 320.834 641.973 320.616 642.277 320.463C642.586 320.307 642.93 320.229 643.309 320.229C643.707 320.229 644.055 320.299 644.352 320.44C644.652 320.577 644.906 320.778 645.113 321.043C645.324 321.305 645.49 321.621 645.611 321.993C645.732 322.364 645.816 322.784 645.863 323.252V323.791C645.82 324.256 645.736 324.674 645.611 325.045C645.49 325.416 645.324 325.733 645.113 325.995C644.906 326.256 644.652 326.457 644.352 326.598C644.051 326.735 643.699 326.803 643.297 326.803C642.926 326.803 642.586 326.723 642.277 326.563C641.973 326.403 641.709 326.178 641.486 325.889C641.268 325.6 641.098 325.26 640.977 324.87C640.859 324.475 640.801 324.047 640.801 323.586ZM641.891 323.463V323.586C641.891 323.903 641.922 324.2 641.984 324.477C642.051 324.754 642.152 324.998 642.289 325.209C642.426 325.42 642.6 325.586 642.811 325.707C643.021 325.825 643.273 325.883 643.566 325.883C643.926 325.883 644.221 325.807 644.451 325.655C644.686 325.502 644.873 325.301 645.014 325.051C645.154 324.801 645.264 324.53 645.342 324.237V322.825C645.295 322.61 645.227 322.403 645.137 322.203C645.051 322 644.938 321.821 644.797 321.664C644.66 321.504 644.49 321.377 644.287 321.284C644.088 321.19 643.852 321.143 643.578 321.143C643.281 321.143 643.025 321.205 642.811 321.33C642.6 321.452 642.426 321.62 642.289 321.834C642.152 322.045 642.051 322.291 641.984 322.573C641.922 322.85 641.891 323.147 641.891 323.463ZM651.582 325.602V322.338C651.582 322.088 651.531 321.871 651.43 321.688C651.332 321.5 651.184 321.356 650.984 321.254C650.785 321.153 650.539 321.102 650.246 321.102C649.973 321.102 649.732 321.149 649.525 321.243C649.322 321.336 649.162 321.459 649.045 321.612C648.932 321.764 648.875 321.928 648.875 322.104H647.791C647.791 321.877 647.85 321.653 647.967 321.43C648.084 321.207 648.252 321.006 648.471 320.827C648.693 320.643 648.959 320.498 649.268 320.393C649.58 320.284 649.928 320.229 650.311 320.229C650.771 320.229 651.178 320.307 651.529 320.463C651.885 320.62 652.162 320.856 652.361 321.172C652.564 321.485 652.666 321.877 652.666 322.35V325.303C652.666 325.514 652.684 325.739 652.719 325.977C652.758 326.215 652.814 326.42 652.889 326.592V326.686H651.758C651.703 326.561 651.66 326.395 651.629 326.188C651.598 325.977 651.582 325.782 651.582 325.602ZM651.77 322.842L651.781 323.604H650.686C650.377 323.604 650.102 323.629 649.859 323.68C649.617 323.727 649.414 323.799 649.25 323.897C649.086 323.995 648.961 324.118 648.875 324.266C648.789 324.411 648.746 324.58 648.746 324.776C648.746 324.975 648.791 325.157 648.881 325.321C648.971 325.485 649.105 325.616 649.285 325.713C649.469 325.807 649.693 325.854 649.959 325.854C650.291 325.854 650.584 325.784 650.838 325.643C651.092 325.502 651.293 325.33 651.441 325.127C651.594 324.924 651.676 324.727 651.688 324.536L652.15 325.057C652.123 325.221 652.049 325.403 651.928 325.602C651.807 325.801 651.645 325.993 651.441 326.176C651.242 326.356 651.004 326.506 650.727 326.627C650.453 326.745 650.145 326.803 649.801 326.803C649.371 326.803 648.994 326.719 648.67 326.551C648.35 326.383 648.1 326.159 647.92 325.877C647.744 325.592 647.656 325.274 647.656 324.922C647.656 324.582 647.723 324.284 647.855 324.026C647.988 323.764 648.18 323.547 648.43 323.375C648.68 323.2 648.98 323.067 649.332 322.977C649.684 322.887 650.076 322.842 650.51 322.842H651.77ZM656.059 326.03L657.822 320.346H658.982L656.439 327.664C656.381 327.821 656.303 327.989 656.205 328.168C656.111 328.352 655.99 328.526 655.842 328.69C655.693 328.854 655.514 328.987 655.303 329.088C655.096 329.194 654.848 329.246 654.559 329.246C654.473 329.246 654.363 329.235 654.23 329.211C654.098 329.188 654.004 329.168 653.949 329.153L653.943 328.274C653.975 328.278 654.023 328.282 654.09 328.286C654.16 328.293 654.209 328.297 654.236 328.297C654.482 328.297 654.691 328.264 654.863 328.198C655.035 328.135 655.18 328.028 655.297 327.875C655.418 327.727 655.521 327.522 655.607 327.26L656.059 326.03ZM654.764 320.346L656.41 325.268L656.691 326.411L655.912 326.809L653.58 320.346H654.764Z" fill="#333333"/>
<path d="M31 280.548L132.5 219.683L234 158.818L335.5 97.9539L437 250.115L538.5 189.251L640 128.386" stroke="#BA18AA" stroke-width="2" stroke-linejoin="round"/>
<path d="M31 283.925C32.8851 283.925 34.5 282.46 34.5 280.548C34.5 278.635 32.8851 277.17 31 277.17C29.1149 277.17 27.5 278.635 27.5 280.548C27.5 282.46 29.1149 283.925 31 283.925Z" fill="white" stroke="#0E9CFF" stroke-width="2"/>
<path d="M132.5 223.061C134.385 223.061 136 221.595 136 219.683C136 217.771 134.385 216.305 132.5 216.305C130.615 216.305 129 217.771 129 219.683C129 221.595 130.615 223.061 132.5 223.061Z" fill="white" stroke="#0E9CFF" stroke-width="2"/>
<path d="M234 162.196C235.885 162.196 237.5 160.731 237.5 158.818C237.5 156.906 235.885 155.441 234 155.441C232.115 155.441 230.5 156.906 230.5 158.818C230.5 160.731 232.115 162.196 234 162.196Z" fill="white" stroke="#0E9CFF" stroke-width="2"/>
<path d="M335.5 101.331C337.385 101.331 339 99.866 339 97.9539C339 96.0418 337.385 94.5764 335.5 94.5764C333.615 94.5764 332 96.0418 332 97.9539C332 99.866 333.615 101.331 335.5 101.331Z" fill="white" stroke="#0E9CFF" stroke-width="2"/>
<path d="M437 253.493C438.885 253.493 440.5 252.027 440.5 250.115C440.5 248.203 438.885 246.738 437 246.738C435.115 246.738 433.5 248.203 433.5 250.115C433.5 252.027 435.115 253.493 437 253.493Z" fill="white" stroke="#0E9CFF" stroke-width="2"/>
<path d="M538.5 192.628C540.385 192.628 542 191.163 542 189.251C542 187.339 540.385 185.873 538.5 185.873C536.615 185.873 535 187.339 535 189.251C535 191.163 536.615 192.628 538.5 192.628Z" fill="white" stroke="#0E9CFF" stroke-width="2"/>
<path d="M640 131.764C641.885 131.764 643.5 130.298 643.5 128.386C643.5 126.474 641.885 125.009 640 125.009C638.115 125.009 636.5 126.474 636.5 128.386C636.5 130.298 638.115 131.764 640 131.764Z" fill="white" stroke="#0E9CFF" stroke-width="2"/>
</svg>
