<svg width="34" height="34" viewBox="0 0 34 34" fill="none" xmlns="http://www.w3.org/2000/svg">
<path d="M1.88889 18.8889H13.2222C13.7232 18.8889 14.2036 18.6899 14.5579 18.3356C14.9121 17.9814 15.1111 17.501 15.1111 17V1.88889C15.1111 1.38792 14.9121 0.907478 14.5579 0.553243C14.2036 0.199007 13.7232 0 13.2222 0H1.88889C1.38792 0 0.907478 0.199007 0.553243 0.553243C0.199007 0.907478 0 1.38792 0 1.88889V17C0 17.501 0.199007 17.9814 0.553243 18.3356C0.907478 18.6899 1.38792 18.8889 1.88889 18.8889ZM0 32.1111C0 32.6121 0.199007 33.0925 0.553243 33.4468C0.907478 33.801 1.38792 34 1.88889 34H13.2222C13.7232 34 14.2036 33.801 14.5579 33.4468C14.9121 33.0925 15.1111 32.6121 15.1111 32.1111V24.5556C15.1111 24.0546 14.9121 23.5741 14.5579 23.2199C14.2036 22.8657 13.7232 22.6667 13.2222 22.6667H1.88889C1.38792 22.6667 0.907478 22.8657 0.553243 23.2199C0.199007 23.5741 0 24.0546 0 24.5556V32.1111ZM18.8889 32.1111C18.8889 32.6121 19.0879 33.0925 19.4421 33.4468C19.7964 33.801 20.2768 34 20.7778 34H32.1111C32.6121 34 33.0925 33.801 33.4468 33.4468C33.801 33.0925 34 32.6121 34 32.1111V18.8889C34 18.3879 33.801 17.9075 33.4468 17.5532C33.0925 17.199 32.6121 17 32.1111 17H20.7778C20.2768 17 19.7964 17.199 19.4421 17.5532C19.0879 17.9075 18.8889 18.3879 18.8889 18.8889V32.1111ZM20.7778 13.2222H32.1111C32.6121 13.2222 33.0925 13.0232 33.4468 12.669C33.801 12.3147 34 11.8343 34 11.3333V1.88889C34 1.38792 33.801 0.907478 33.4468 0.553243C33.0925 0.199007 32.6121 0 32.1111 0H20.7778C20.2768 0 19.7964 0.199007 19.4421 0.553243C19.0879 0.907478 18.8889 1.38792 18.8889 1.88889V11.3333C18.8889 11.8343 19.0879 12.3147 19.4421 12.669C19.7964 13.0232 20.2768 13.2222 20.7778 13.2222Z" fill="white"/>
</svg>
