<svg width="269" height="33" viewBox="0 0 269 33" fill="none" xmlns="http://www.w3.org/2000/svg">
<path d="M0.602667 3.072C3.78844 1.99111 7.088 1.45066 10.5013 1.45066C13.9147 1.45066 16.7449 2.176 18.992 3.62666C21.2391 5.07733 22.3627 7.296 22.3627 10.2827C22.3627 13.2693 21.3102 15.7867 19.2053 17.8347C17.1004 19.8542 14.5689 20.864 11.6107 20.864C9.44889 20.864 8.368 20.0391 8.368 18.3893C8.368 17.8773 8.46756 17.3369 8.66667 16.768C9.43467 16.9671 10.1316 17.0667 10.7573 17.0667C12.72 17.0667 14.1991 16.5262 15.1947 15.4453C16.2187 14.3644 16.7307 12.8711 16.7307 10.9653C16.7307 9.03111 16.1902 7.59466 15.1093 6.656C14.0284 5.71733 12.5209 5.248 10.5867 5.248C9.59111 5.248 8.38222 5.41866 6.96 5.76C6.73245 9.25867 6.61867 12.3591 6.61867 15.0613C6.61867 22.6276 6.91733 28.1031 7.51467 31.488C6.60445 31.8293 5.63733 32 4.61333 32C3.58933 32 2.69333 31.6729 1.92533 31.0187C1.18578 30.3644 0.816 29.4969 0.816 28.416C0.816 27.3351 0.958222 25.4578 1.24267 22.784C1.52711 20.0818 1.66933 17.92 1.66933 16.2987C1.66933 11.3493 1.31378 6.94044 0.602667 3.072ZM31.699 31.488C30.8172 31.8293 29.8786 32 28.883 32C27.8874 32 27.0768 31.7724 26.451 31.3173C25.8537 30.8338 25.555 30.1796 25.555 29.3547C25.555 28.5013 25.683 26.9653 25.939 24.7467C26.195 22.528 26.323 20.3804 26.323 18.304C26.323 16.1991 25.9959 13.7387 25.3417 10.9227C26.2519 10.5813 27.1479 10.4107 28.0297 10.4107C28.9114 10.4107 29.6652 10.7093 30.291 11.3067C30.9452 11.904 31.2723 12.7004 31.2723 13.696C31.2723 14.208 31.187 14.976 31.0163 16C30.8457 16.9956 30.7461 17.7493 30.7177 18.2613C31.827 15.7298 33.1354 13.7529 34.643 12.3307C36.179 10.88 37.7008 10.1547 39.2083 10.1547C40.2608 10.1547 41.0999 10.5244 41.7257 11.264C42.3514 12.0036 42.6643 12.9422 42.6643 14.08C42.6643 15.1893 42.3799 16.0996 41.811 16.8107C41.2421 17.4933 40.531 17.8347 39.6777 17.8347C38.8528 17.8347 38.1843 17.7493 37.6723 17.5787C37.7577 17.2373 37.8003 16.9244 37.8003 16.64C37.8003 15.4738 37.3879 14.8907 36.563 14.8907C35.3114 14.8907 34.131 16.1564 33.0217 18.688C31.9408 21.1911 31.2154 23.5378 30.8457 25.728C30.9879 27.8613 31.2723 29.7813 31.699 31.488ZM64.4257 11.904C63.6577 15.1751 63.2737 18.4604 63.2737 21.76C63.2737 25.0311 63.6434 28.2738 64.383 31.488C63.359 31.8293 62.3066 32 61.2257 32C60.1448 32 59.391 31.6871 58.9643 31.0613C58.5377 30.4071 58.3243 29.4827 58.3243 28.288C58.3243 27.0649 58.5092 25.4009 58.879 23.296C56.8594 27.6196 54.911 30.3502 53.0337 31.488C52.1803 32 51.2986 32.256 50.3883 32.256C48.2266 32.256 46.5483 31.4596 45.3537 29.8667C44.159 28.2453 43.5617 26.24 43.5617 23.8507C43.5617 20.2098 44.5714 17.024 46.591 14.2933C48.6106 11.5342 51.2274 10.1547 54.4417 10.1547C57.6843 10.1547 61.0123 10.7378 64.4257 11.904ZM58.8363 14.464C57.3288 14.0089 56.0488 13.7813 54.9963 13.7813C52.863 13.7813 51.2701 14.2507 50.2177 15.1893C49.2506 17.5787 48.767 20.0107 48.767 22.4853C48.767 23.7938 48.9661 25.1164 49.3643 26.4533C49.791 27.7902 50.431 28.4587 51.2843 28.4587C52.2799 28.4587 53.5599 26.9938 55.1243 24.064C56.6888 21.1342 57.9261 17.9342 58.8363 14.464ZM76.6677 32.512C73.6241 32.512 71.2917 31.7013 69.6703 30.08C68.049 28.4587 67.2383 26.1262 67.2383 23.0827C67.2383 19.3849 68.2766 16.2702 70.353 13.7387C72.4294 11.1787 75.1886 9.89867 78.6303 9.89867C80.593 9.89867 82.1859 10.2969 83.409 11.0933C84.6321 11.8613 85.2437 13.0133 85.2437 14.5493C85.2437 15.5449 84.8454 16.4409 84.049 17.2373C83.2526 18.0053 82.3566 18.3893 81.361 18.3893C81.1334 18.3893 80.849 18.3609 80.5077 18.304C80.593 17.9342 80.6357 17.6071 80.6357 17.3227C80.6357 16.2987 80.3654 15.4311 79.825 14.72C79.2846 14.0089 78.3886 13.6533 77.137 13.6533C75.8854 13.6533 74.7192 14.1653 73.6383 15.1893C72.8703 17.1804 72.4863 19.6693 72.4863 22.656C72.4863 26.7236 74.0223 28.7573 77.0943 28.7573C78.7441 28.7573 79.9672 28.2311 80.7637 27.1787C81.5886 26.0978 82.001 24.8889 82.001 23.552C82.9681 23.552 83.8072 23.7938 84.5183 24.2773C85.2294 24.7609 85.585 25.4293 85.585 26.2827C85.585 28.1316 84.6321 29.6391 82.7263 30.8053C80.849 31.9431 78.8294 32.512 76.6677 32.512ZM91.0077 4.13866C91.9179 3.68355 92.8423 3.456 93.781 3.456C94.7197 3.456 95.4734 3.75466 96.0423 4.352C96.6397 4.94933 96.9383 5.83111 96.9383 6.99733C96.9383 8.16355 96.8672 9.48622 96.725 10.9653C98.8583 10.9653 100.892 10.6667 102.826 10.0693C103.168 10.6382 103.338 11.3067 103.338 12.0747C103.338 12.8142 102.997 13.4258 102.314 13.9093C101.66 14.3644 100.992 14.592 100.309 14.592C99.6263 14.592 98.8583 14.5067 98.005 14.336C97.1517 14.1653 96.597 14.0658 96.341 14.0373C96.3126 14.2933 96.2272 14.8053 96.085 15.5733C95.9712 16.3413 95.8717 17.0098 95.7863 17.5787C95.5588 19.1431 95.445 20.8213 95.445 22.6133C95.445 26.5102 96.7108 28.4587 99.2423 28.4587C100.181 28.4587 101.262 28.1316 102.485 27.4773C102.855 28.0178 103.04 28.7147 103.04 29.568C103.04 30.4213 102.57 31.0898 101.632 31.5733C100.721 32.0284 99.6263 32.256 98.3463 32.256C93.3401 32.256 90.837 29.4116 90.837 23.7227C90.837 22.8978 90.9508 21.4044 91.1783 19.2427C91.4343 17.0809 91.5623 15.3316 91.5623 13.9947C90.197 14.08 89.1019 14.3218 88.277 14.72C87.9357 14.208 87.765 13.6249 87.765 12.9707C87.765 12.288 88.0068 11.7333 88.4903 11.3067C88.9739 10.8516 89.5712 10.624 90.2823 10.624C90.9934 10.624 91.4628 10.6382 91.6903 10.6667C91.7188 10.4391 91.733 10.1404 91.733 9.77066C91.733 7.63733 91.4912 5.76 91.0077 4.13866ZM106.348 10.7947C107.258 10.5387 108.168 10.4107 109.078 10.4107C110.017 10.4107 110.813 10.6951 111.468 11.264C112.122 11.8329 112.449 12.5724 112.449 13.4827C112.449 14.3644 112.293 15.9147 111.98 18.1333C111.695 20.3236 111.553 22.0302 111.553 23.2533C111.553 26.4391 111.852 29.184 112.449 31.488C111.567 31.8293 110.614 32 109.59 32C108.566 32 107.756 31.7724 107.158 31.3173C106.561 30.8338 106.262 30.1511 106.262 29.2693C106.262 28.3591 106.433 26.88 106.774 24.832C107.116 22.784 107.286 21.0916 107.286 19.7547C107.286 16.1991 106.973 13.2124 106.348 10.7947ZM106.902 1.152C107.898 0.696887 108.879 0.469331 109.846 0.469331C110.813 0.469331 111.525 0.725332 111.98 1.23733C112.463 1.72089 112.705 2.44622 112.705 3.41333C112.705 4.38044 112.378 5.23378 111.724 5.97333C111.098 6.71289 110.273 7.08266 109.249 7.08266C107.144 7.08266 106.092 5.98755 106.092 3.79733C106.092 2.83022 106.362 1.94844 106.902 1.152ZM125.543 32.512C122.499 32.512 120.167 31.7013 118.545 30.08C116.924 28.4587 116.113 26.1262 116.113 23.0827C116.113 19.3849 117.152 16.2702 119.228 13.7387C121.304 11.1787 124.064 9.89867 127.505 9.89867C129.468 9.89867 131.061 10.2969 132.284 11.0933C133.507 11.8613 134.119 13.0133 134.119 14.5493C134.119 15.5449 133.72 16.4409 132.924 17.2373C132.128 18.0053 131.232 18.3893 130.236 18.3893C130.008 18.3893 129.724 18.3609 129.383 18.304C129.468 17.9342 129.511 17.6071 129.511 17.3227C129.511 16.2987 129.24 15.4311 128.7 14.72C128.16 14.0089 127.264 13.6533 126.012 13.6533C124.76 13.6533 123.594 14.1653 122.513 15.1893C121.745 17.1804 121.361 19.6693 121.361 22.656C121.361 26.7236 122.897 28.7573 125.969 28.7573C127.619 28.7573 128.842 28.2311 129.639 27.1787C130.464 26.0978 130.876 24.8889 130.876 23.552C131.843 23.552 132.682 23.7938 133.393 24.2773C134.104 24.7609 134.46 25.4293 134.46 26.2827C134.46 28.1316 133.507 29.6391 131.601 30.8053C129.724 31.9431 127.704 32.512 125.543 32.512ZM157.717 11.904C156.949 15.1751 156.565 18.4604 156.565 21.76C156.565 25.0311 156.935 28.2738 157.675 31.488C156.651 31.8293 155.598 32 154.517 32C153.436 32 152.683 31.6871 152.256 31.0613C151.829 30.4071 151.616 29.4827 151.616 28.288C151.616 27.0649 151.801 25.4009 152.171 23.296C150.151 27.6196 148.203 30.3502 146.325 31.488C145.472 32 144.59 32.256 143.68 32.256C141.518 32.256 139.84 31.4596 138.645 29.8667C137.451 28.2453 136.853 26.24 136.853 23.8507C136.853 20.2098 137.863 17.024 139.883 14.2933C141.902 11.5342 144.519 10.1547 147.733 10.1547C150.976 10.1547 154.304 10.7378 157.717 11.904ZM152.128 14.464C150.62 14.0089 149.34 13.7813 148.288 13.7813C146.155 13.7813 144.562 14.2507 143.509 15.1893C142.542 17.5787 142.059 20.0107 142.059 22.4853C142.059 23.7938 142.258 25.1164 142.656 26.4533C143.083 27.7902 143.723 28.4587 144.576 28.4587C145.572 28.4587 146.852 26.9938 148.416 24.064C149.98 21.1342 151.218 17.9342 152.128 14.464ZM161.938 0.511998C162.848 0.170664 163.787 -3.49681e-06 164.754 -3.49681e-06C165.721 -3.49681e-06 166.518 0.327108 167.143 0.98133C167.798 1.60711 168.125 2.47466 168.125 3.584C168.125 4.66489 167.968 6.85511 167.655 10.1547C167.371 13.4258 167.229 16 167.229 17.8773C167.229 22.5138 167.556 27.0507 168.21 31.488C167.3 31.8293 166.333 32 165.309 32C163.118 32 162.023 30.9333 162.023 28.8C162.023 27.776 162.18 25.7707 162.493 22.784C162.806 19.7689 162.962 17.3511 162.962 15.5307C162.962 9.472 162.621 4.46578 161.938 0.511998ZM180.01 31.488C179.099 31.8293 178.132 32 177.108 32C176.084 32 175.188 31.6729 174.42 31.0187C173.681 30.3644 173.311 29.4684 173.311 28.3307C173.311 27.1929 173.453 25.0169 173.738 21.8027C174.022 18.56 174.164 15.9716 174.164 14.0373C174.164 9.05955 173.866 5.12 173.268 2.21867C174.179 1.87733 175.146 1.70666 176.17 1.70666C177.194 1.70666 178.075 2.03378 178.815 2.688C179.583 3.34222 179.967 4.15289 179.967 5.12C179.967 6.05867 179.924 6.96889 179.839 7.85066C179.782 8.73244 179.697 9.74222 179.583 10.88C179.469 12.0178 179.384 13.0133 179.327 13.8667C180.465 13.9804 182.427 14.0373 185.215 14.0373C188.003 14.0373 190.15 13.9236 191.658 13.696C191.658 9.17333 191.359 5.26222 190.762 1.96266C191.672 1.62133 192.639 1.45066 193.663 1.45066C194.687 1.45066 195.569 1.77778 196.308 2.432C197.076 3.08622 197.46 3.99644 197.46 5.16267C197.46 6.30044 197.318 8.33422 197.034 11.264C196.749 14.1938 196.607 16.5404 196.607 18.304C196.607 23.8791 196.906 28.3591 197.503 31.744C196.593 32.0853 195.626 32.256 194.602 32.256C193.578 32.256 192.682 31.9289 191.914 31.2747C191.174 30.6204 190.804 29.7529 190.804 28.672C190.804 27.5911 190.918 25.8276 191.146 23.3813C191.373 20.9351 191.515 19.2569 191.572 18.3467C188.785 18.1476 184.632 18.048 179.114 18.048V19.1573C179.114 24.192 179.412 28.3022 180.01 31.488ZM210.067 32.512C206.938 32.512 204.634 31.6018 203.155 29.7813C201.676 27.9324 200.937 25.3724 200.937 22.1013C200.937 18.8018 201.918 15.9431 203.881 13.5253C205.843 11.1076 208.361 9.89867 211.433 9.89867C217.747 9.89867 220.905 13.4542 220.905 20.5653C220.905 23.8933 219.881 26.7236 217.833 29.056C215.785 31.36 213.196 32.512 210.067 32.512ZM206.995 14.592C206.483 16.2418 206.227 17.8916 206.227 19.5413C206.227 21.1911 206.284 22.4711 206.398 23.3813C206.512 24.2916 206.725 25.2018 207.038 26.112C207.692 27.9609 208.972 28.8853 210.878 28.8853C212.812 28.8853 214.078 28.3733 214.675 27.3493C215.301 26.3253 215.614 24.7467 215.614 22.6133C215.614 16.5547 214.178 13.5253 211.305 13.5253C209.655 13.5253 208.218 13.8809 206.995 14.592ZM225.924 4.13866C226.835 3.68355 227.759 3.456 228.698 3.456C229.636 3.456 230.39 3.75466 230.959 4.352C231.556 4.94933 231.855 5.83111 231.855 6.99733C231.855 8.16355 231.784 9.48622 231.642 10.9653C233.775 10.9653 235.809 10.6667 237.743 10.0693C238.084 10.6382 238.255 11.3067 238.255 12.0747C238.255 12.8142 237.914 13.4258 237.231 13.9093C236.577 14.3644 235.908 14.592 235.226 14.592C234.543 14.592 233.775 14.5067 232.922 14.336C232.068 14.1653 231.514 14.0658 231.258 14.0373C231.229 14.2933 231.144 14.8053 231.002 15.5733C230.888 16.3413 230.788 17.0098 230.703 17.5787C230.475 19.1431 230.362 20.8213 230.362 22.6133C230.362 26.5102 231.627 28.4587 234.159 28.4587C235.098 28.4587 236.179 28.1316 237.402 27.4773C237.771 28.0178 237.956 28.7147 237.956 29.568C237.956 30.4213 237.487 31.0898 236.548 31.5733C235.638 32.0284 234.543 32.256 233.263 32.256C228.257 32.256 225.754 29.4116 225.754 23.7227C225.754 22.8978 225.867 21.4044 226.095 19.2427C226.351 17.0809 226.479 15.3316 226.479 13.9947C225.114 14.08 224.019 14.3218 223.194 14.72C222.852 14.208 222.682 13.6249 222.682 12.9707C222.682 12.288 222.923 11.7333 223.407 11.3067C223.891 10.8516 224.488 10.624 225.199 10.624C225.91 10.624 226.379 10.6382 226.607 10.6667C226.635 10.4391 226.65 10.1404 226.65 9.77066C226.65 7.63733 226.408 5.76 225.924 4.13866ZM244.934 22.3147C244.934 24.3627 245.261 25.984 245.915 27.1787C246.569 28.3449 247.664 28.928 249.2 28.928C250.736 28.928 251.931 28.416 252.784 27.392C253.666 26.3396 254.107 25.0738 254.107 23.5947C255.074 23.5947 255.913 23.8364 256.624 24.32C257.335 24.8036 257.691 25.472 257.691 26.3253C257.691 28.0889 256.752 29.568 254.875 30.7627C252.998 31.9289 251.021 32.512 248.944 32.512C245.702 32.512 243.355 31.6444 241.904 29.9093C240.454 28.1458 239.728 25.5431 239.728 22.1013C239.728 18.6596 240.695 15.7724 242.63 13.44C244.592 11.0791 247.195 9.89867 250.438 9.89867C252.656 9.89867 254.434 10.4107 255.771 11.4347C257.136 12.4302 257.819 13.9947 257.819 16.128C257.819 18.2329 256.852 19.8258 254.918 20.9067C253.012 21.9591 250.679 22.4853 247.92 22.4853C246.953 22.4853 245.958 22.4284 244.934 22.3147ZM244.976 18.944C245.83 19.1147 246.726 19.2 247.664 19.2C249.712 19.2 251.433 18.816 252.827 18.048C252.998 17.3653 253.083 16.8249 253.083 16.4267C253.083 15.4311 252.727 14.6773 252.016 14.1653C251.305 13.6533 250.324 13.3973 249.072 13.3973C247.849 13.3973 246.74 13.7956 245.744 14.592C245.232 16.0711 244.976 17.5218 244.976 18.944ZM262.313 0.511998C263.223 0.170664 264.162 -3.49681e-06 265.129 -3.49681e-06C266.096 -3.49681e-06 266.893 0.327108 267.518 0.98133C268.173 1.60711 268.5 2.47466 268.5 3.584C268.5 4.66489 268.343 6.85511 268.03 10.1547C267.746 13.4258 267.604 16 267.604 17.8773C267.604 22.5138 267.931 27.0507 268.585 31.488C267.675 31.8293 266.708 32 265.684 32C263.493 32 262.398 30.9333 262.398 28.8C262.398 27.776 262.555 25.7707 262.868 22.784C263.181 19.7689 263.337 17.3511 263.337 15.5307C263.337 9.472 262.996 4.46578 262.313 0.511998Z" fill="black"/>
</svg>
