<svg width="217" height="263" viewBox="0 0 217 263" fill="none" xmlns="http://www.w3.org/2000/svg">
<circle cx="108.25" cy="108.25" r="108.25" fill="#F5F5F5"/>
<rect x="83.6715" y="114.732" width="91.0627" height="127.254" rx="7" transform="rotate(2.5 83.6715 114.732)" fill="#EEEEEE" stroke="white" stroke-width="2"/>
<rect x="30.4908" y="107.712" width="95.0627" height="131.254" rx="9" transform="rotate(-7.5 30.4908 107.712)" fill="#F5F5F5" stroke="white" stroke-width="2"/>
<path d="M32.657 116.505C32.0803 112.124 35.1639 108.106 39.5444 107.529L115.948 97.4704C120.328 96.8937 124.347 99.9773 124.924 104.358L127.76 125.9L35.4931 138.047L32.657 116.505Z" fill="#EEEEEE"/>
<rect x="143.945" y="100.303" width="3.87761" height="12.9254" rx="1.93881" transform="rotate(82.5 143.945 100.303)" fill="#F5F5F5"/>
<rect x="108.534" y="78.891" width="3.87761" height="12.9254" rx="1.93881" transform="rotate(-7.5 108.534 78.891)" fill="#F5F5F5"/>
<rect x="131.254" y="82.4183" width="3.87761" height="12.9254" rx="1.93881" transform="rotate(37.5 131.254 82.4183)" fill="#F5F5F5"/>
<rect x="45.1384" y="141.992" width="74.9672" height="5.17015" rx="2" transform="rotate(-7.5 45.1384 141.992)" fill="#DCDCDC"/>
<rect x="48.5125" y="167.622" width="74.9672" height="5.17015" rx="2" transform="rotate(-7.5 48.5125 167.622)" fill="#DCDCDC"/>
<rect x="51.8865" y="193.251" width="74.9672" height="5.17015" rx="2" transform="rotate(-7.5 51.8865 193.251)" fill="#DCDCDC"/>
<rect x="46.4878" y="152.244" width="27.1433" height="5.17015" rx="2" transform="rotate(-7.5 46.4878 152.244)" fill="#EEEEEE"/>
<rect x="49.8623" y="177.874" width="27.1433" height="5.17015" rx="2" transform="rotate(-7.5 49.8623 177.874)" fill="#EEEEEE"/>
<rect x="53.2363" y="203.503" width="27.1433" height="5.17015" rx="2" transform="rotate(-7.5 53.2363 203.503)" fill="#EEEEEE"/>
</svg>
