<svg width="32" height="32" viewBox="0 0 32 32" fill="none" xmlns="http://www.w3.org/2000/svg">
<path d="M0 5.45455C0 4.00791 0.574674 2.62053 1.5976 1.5976C2.62053 0.574674 4.00791 0 5.45455 0H26.5455C27.9921 0 29.3795 0.574674 30.4024 1.5976C31.4253 2.62053 32 4.00791 32 5.45455V26.5455C32 27.9921 31.4253 29.3795 30.4024 30.4024C29.3795 31.4253 27.9921 32 26.5455 32H16.6167C17.3435 31.2898 17.9208 30.4413 18.3145 29.5045C18.7082 28.5677 18.9104 27.5616 18.9091 26.5455V20.7273C18.9091 16.5091 15.4909 13.0909 11.2727 13.0909H5.45455C4.43839 13.0896 3.43226 13.2918 2.49547 13.6855C1.55868 14.0792 0.710184 14.6565 0 15.3833V5.45455ZM0 20.7273V26.5455C0 27.9921 0.574674 29.3795 1.5976 30.4024C2.62053 31.4253 4.00791 32 5.45455 32H11.2727C12.7194 32 14.1067 31.4253 15.1297 30.4024C16.1526 29.3795 16.7273 27.9921 16.7273 26.5455V20.7273C16.7273 19.2806 16.1526 17.8933 15.1297 16.8703C14.1067 15.8474 12.7194 15.2727 11.2727 15.2727H5.45455C4.00791 15.2727 2.62053 15.8474 1.5976 16.8703C0.574674 17.8933 0 19.2806 0 20.7273Z" fill="white"/>
</svg>
