<svg width="36" height="34" viewBox="0 0 36 34" fill="none" xmlns="http://www.w3.org/2000/svg">
<path d="M31.0345 9.71429C30.0524 9.71429 29.0924 9.42942 28.2758 8.89571C27.4592 8.362 26.8228 7.60342 26.4469 6.71589C26.0711 5.82837 25.9728 4.85176 26.1644 3.90956C26.356 2.96737 26.8289 2.10191 27.5233 1.42263C28.2178 0.743343 29.1025 0.280745 30.0658 0.0933308C31.029 -0.0940831 32.0274 0.00210451 32.9347 0.36973C33.842 0.737356 34.6175 1.35991 35.1632 2.15866C35.7088 2.95741 36 3.89649 36 4.85714C35.9985 6.14489 35.4749 7.37949 34.544 8.29006C33.6131 9.20064 32.351 9.71284 31.0345 9.71429ZM31.0345 2.42857C30.5434 2.42857 30.0634 2.57101 29.6551 2.83786C29.2468 3.10472 28.9286 3.48401 28.7407 3.92777C28.5528 4.37153 28.5036 4.85984 28.5994 5.33094C28.6952 5.80203 28.9317 6.23476 29.2789 6.5744C29.6261 6.91405 30.0685 7.14534 30.5501 7.23905C31.0317 7.33276 31.5309 7.28466 31.9846 7.10085C32.4383 6.91704 32.826 6.60576 33.0988 6.20639C33.3716 5.80701 33.5172 5.33747 33.5172 4.85714C33.5165 4.21327 33.2547 3.59597 32.7892 3.14068C32.3238 2.6854 31.6927 2.4293 31.0345 2.42857ZM18 2.03847e-06C18.9821 2.03847e-06 19.9421 0.284869 20.7587 0.818578C21.5753 1.35229 22.2117 2.11087 22.5875 2.9984C22.9634 3.88592 23.0617 4.86253 22.8701 5.80473C22.6785 6.74692 22.2056 7.61238 21.5112 8.29166C20.8167 8.97095 19.9319 9.43354 18.9687 9.62096C18.0055 9.80837 17.0071 9.71218 16.0998 9.34456C15.1924 8.97693 14.4169 8.35438 13.8713 7.55563C13.3257 6.75687 13.0345 5.8178 13.0345 4.85714C13.036 3.56939 13.5596 2.3348 14.4905 1.42422C15.4214 0.513646 16.6835 0.00144832 18 2.03847e-06ZM18 7.28572C18.491 7.28572 18.9711 7.14328 19.3793 6.87643C19.7876 6.60957 20.1059 6.23028 20.2938 5.78652C20.4817 5.34275 20.5309 4.85445 20.4351 4.38335C20.3393 3.91226 20.1028 3.47953 19.7556 3.13988C19.4084 2.80024 18.966 2.56894 18.4844 2.47524C18.0028 2.38153 17.5036 2.42962 17.0499 2.61344C16.5962 2.79725 16.2085 3.10853 15.9357 3.5079C15.6629 3.90728 15.5172 4.37682 15.5172 4.85714C15.518 5.50102 15.7798 6.11832 16.2452 6.5736C16.7107 7.02889 17.3418 7.28499 18 7.28572ZM4.96552 9.71429C3.98343 9.71429 3.0234 9.42942 2.20683 8.89571C1.39025 8.362 0.753807 7.60342 0.377979 6.71589C0.00215149 5.82837 -0.0961838 4.85176 0.0954132 3.90956C0.28701 2.96737 0.75993 2.10191 1.45437 1.42263C2.14881 0.743343 3.03358 0.280745 3.9968 0.0933308C4.96001 -0.0940831 5.95841 0.00210451 6.86574 0.36973C7.77307 0.737356 8.54858 1.35991 9.09419 2.15866C9.63981 2.95741 9.93104 3.89649 9.93104 4.85714C9.92956 6.14489 9.40593 7.37949 8.47504 8.29006C7.54414 9.20064 6.282 9.71284 4.96552 9.71429ZM4.96552 2.42857C4.47448 2.42857 3.99446 2.57101 3.58617 2.83786C3.17788 3.10472 2.85966 3.48401 2.67175 3.92777C2.48383 4.37153 2.43467 4.85984 2.53047 5.33094C2.62626 5.80203 2.86272 6.23476 3.20995 6.5744C3.55716 6.91405 3.99955 7.14534 4.48116 7.23905C4.96276 7.33276 5.46197 7.28466 5.91563 7.10085C6.3693 6.91704 6.75705 6.60576 7.02986 6.20639C7.30267 5.80701 7.44828 5.33747 7.44828 4.85714C7.44754 4.21327 7.18572 3.59597 6.72028 3.14068C6.25483 2.6854 5.62376 2.4293 4.96552 2.42857ZM31.0345 12.1429C32.0166 12.1429 32.9766 12.4277 33.7932 12.9614C34.6097 13.4951 35.2462 14.2537 35.622 15.1413C35.9978 16.0288 36.0962 17.0054 35.9046 17.9476C35.713 18.8898 35.2401 19.7552 34.5456 20.4345C33.8512 21.1138 32.9664 21.5764 32.0032 21.7638C31.04 21.9512 30.0416 21.855 29.1343 21.4874C28.2269 21.1198 27.4514 20.4972 26.9058 19.6985C26.3602 18.8997 26.069 17.9607 26.069 17C26.0704 15.7122 26.5941 14.4777 27.525 13.5671C28.4559 12.6565 29.718 12.1443 31.0345 12.1429ZM31.0345 19.4286C31.5255 19.4286 32.0055 19.2861 32.4138 19.0193C32.8221 18.7524 33.1403 18.3731 33.3283 17.9294C33.5162 17.4856 33.5653 16.9973 33.4695 16.5262C33.3737 16.0551 33.1373 15.6224 32.7901 15.2827C32.4428 14.9431 32.0005 14.7118 31.5188 14.6181C31.0372 14.5244 30.538 14.5725 30.0844 14.7563C29.6307 14.9401 29.243 15.2514 28.9701 15.6508C28.6973 16.0501 28.5517 16.5197 28.5517 17C28.5525 17.6439 28.8143 18.2612 29.2797 18.7165C29.7452 19.1717 30.3762 19.4278 31.0345 19.4286ZM18 12.1429C18.9821 12.1429 19.9421 12.4277 20.7587 12.9614C21.5753 13.4951 22.2117 14.2537 22.5875 15.1413C22.9634 16.0288 23.0617 17.0054 22.8701 17.9476C22.6785 18.8898 22.2056 19.7552 21.5112 20.4345C20.8167 21.1138 19.9319 21.5764 18.9687 21.7638C18.0055 21.9512 17.0071 21.855 16.0998 21.4874C15.1924 21.1198 14.4169 20.4972 13.8713 19.6985C13.3257 18.8997 13.0345 17.9607 13.0345 17C13.036 15.7122 13.5596 14.4777 14.4905 13.5671C15.4214 12.6565 16.6835 12.1443 18 12.1429ZM18 19.4286C18.491 19.4286 18.9711 19.2861 19.3793 19.0193C19.7876 18.7524 20.1059 18.3731 20.2938 17.9294C20.4817 17.4856 20.5309 16.9973 20.4351 16.5262C20.3393 16.0551 20.1028 15.6224 19.7556 15.2827C19.4084 14.9431 18.966 14.7118 18.4844 14.6181C18.0028 14.5244 17.5036 14.5725 17.0499 14.7563C16.5962 14.9401 16.2085 15.2514 15.9357 15.6508C15.6629 16.0501 15.5172 16.5197 15.5172 17C15.518 17.6439 15.7798 18.2612 16.2452 18.7165C16.7107 19.1717 17.3418 19.4278 18 19.4286ZM4.96552 12.1429C5.94761 12.1429 6.90764 12.4277 7.72421 12.9614C8.54079 13.4951 9.17723 14.2537 9.55306 15.1413C9.92889 16.0288 10.0272 17.0054 9.83562 17.9476C9.64403 18.8898 9.17111 19.7552 8.47667 20.4345C7.78223 21.1138 6.89746 21.5764 5.93424 21.7638C4.97103 21.9512 3.97263 21.855 3.0653 21.4874C2.15797 21.1198 1.38246 20.4972 0.836842 19.6985C0.291225 18.8997 3.8147e-06 17.9607 3.8147e-06 17C0.0014801 15.7122 0.525105 14.4777 1.456 13.5671C2.38689 12.6565 3.64904 12.1443 4.96552 12.1429ZM4.96552 19.4286C5.45656 19.4286 5.93658 19.2861 6.34487 19.0193C6.75315 18.7524 7.07137 18.3731 7.25929 17.9294C7.4472 17.4856 7.49637 16.9973 7.40057 16.5262C7.30478 16.0551 7.06831 15.6224 6.72109 15.2827C6.37387 14.9431 5.93149 14.7118 5.44988 14.6181C4.96827 14.5244 4.46907 14.5725 4.01541 14.7563C3.56174 14.9401 3.17399 15.2514 2.90118 15.6508C2.62837 16.0501 2.48276 16.5197 2.48276 17C2.4835 17.6439 2.74532 18.2612 3.21076 18.7165C3.67621 19.1717 4.30728 19.4278 4.96552 19.4286ZM4.96552 24.2857C5.94761 24.2857 6.90764 24.5706 7.72421 25.1043C8.54079 25.638 9.17723 26.3966 9.55306 27.2841C9.92889 28.1716 10.0272 29.1482 9.83562 30.0904C9.64403 31.0326 9.17111 31.8981 8.47667 32.5774C7.78223 33.2567 6.89746 33.7193 5.93424 33.9067C4.97103 34.0941 3.97263 33.9979 3.0653 33.6303C2.15797 33.2626 1.38246 32.6401 0.836842 31.8413C0.291225 31.0426 3.8147e-06 30.1035 3.8147e-06 29.1429C0.0014801 27.8551 0.525105 26.6205 1.456 25.7099C2.38689 24.7994 3.64904 24.2872 4.96552 24.2857ZM4.96552 31.5714C5.45656 31.5714 5.93658 31.429 6.34487 31.1621C6.75315 30.8953 7.07137 30.516 7.25929 30.0722C7.4472 29.6285 7.49637 29.1402 7.40057 28.6691C7.30478 28.198 7.06831 27.7652 6.72109 27.4256C6.37387 27.086 5.93149 26.8547 5.44988 26.7609C4.96827 26.6672 4.46907 26.7153 4.01541 26.8991C3.56174 27.083 3.17399 27.3942 2.90118 27.7936C2.62837 28.193 2.48276 28.6625 2.48276 29.1429C2.4835 29.7867 2.74532 30.404 3.21076 30.8593C3.67621 31.3146 4.30728 31.5707 4.96552 31.5714ZM33.5172 28.5357H31.0345V30.9643H33.5172V28.5357ZM26.069 28.5357H23.5862V30.9643H26.069V28.5357ZM18.6207 28.5357H16.1379V30.9643H18.6207V28.5357Z" fill="white"/>
</svg>
