<svg width="44" height="36" viewBox="0 0 44 36" fill="none" xmlns="http://www.w3.org/2000/svg">
<path d="M17.9592 33.3C17.9592 33.375 17.9685 33.5625 17.9872 33.8625C18.006 34.1625 18.0106 34.4109 18.0013 34.6078C17.9919 34.8047 17.9639 35.025 17.9171 35.2687C17.8703 35.5125 17.7768 35.6953 17.6365 35.8172C17.4962 35.9391 17.3044 36 17.0612 36H8.08163C5.85544 36 3.95196 35.2078 2.37117 33.6234C0.790391 32.0391 0 30.1312 0 27.9V8.1C0 5.86875 0.790391 3.96094 2.37117 2.37656C3.95196 0.792188 5.85544 0 8.08163 0H17.0612C17.3044 0 17.5149 0.0890625 17.6926 0.267188C17.8703 0.445312 17.9592 0.65625 17.9592 0.9C17.9592 0.975 17.9685 1.1625 17.9872 1.4625C18.006 1.7625 18.0106 2.01094 18.0013 2.20781C17.9919 2.40469 17.9639 2.625 17.9171 2.86875C17.8703 3.1125 17.7768 3.29531 17.6365 3.41719C17.4962 3.53906 17.3044 3.6 17.0612 3.6H8.08163C6.84694 3.6 5.78997 4.04063 4.91071 4.92188C4.03146 5.80312 3.59184 6.8625 3.59184 8.1V27.9C3.59184 29.1375 4.03146 30.1969 4.91071 31.0781C5.78997 31.9594 6.84694 32.4 8.08163 32.4H16.8367L17.1594 32.4281L17.4821 32.5125L17.7066 32.6672L17.9031 32.9203L17.9592 33.3ZM44 18C44 18.4875 43.8223 18.9094 43.4668 19.2656L28.2015 34.5656C27.8461 34.9219 27.4252 35.1 26.9388 35.1C26.4524 35.1 26.0315 34.9219 25.676 34.5656C25.3206 34.2094 25.1429 33.7875 25.1429 33.3V25.2H12.5714C12.085 25.2 11.6641 25.0219 11.3087 24.6656C10.9532 24.3094 10.7755 23.8875 10.7755 23.4V12.6C10.7755 12.1125 10.9532 11.6906 11.3087 11.3344C11.6641 10.9781 12.085 10.8 12.5714 10.8H25.1429V2.7C25.1429 2.2125 25.3206 1.79062 25.676 1.43437C26.0315 1.07812 26.4524 0.9 26.9388 0.9C27.4252 0.9 27.8461 1.07812 28.2015 1.43437L43.4668 16.7344C43.8223 17.0906 44 17.5125 44 18Z" fill="#7E57C2"/>
</svg>
