<svg width="1436" height="677" viewBox="0 0 1436 677" fill="none" xmlns="http://www.w3.org/2000/svg">
<path d="M-28.9898 936.938C179.251 903.469 413.929 816.951 557.64 773.092C743.404 716.421 800.001 713.651 835.905 721.475L1023.36 1028.21C1029.1 1037.7 1036.66 1045.96 1045.61 1052.51C1054.56 1059.06 1064.72 1063.78 1075.5 1066.38L1207.4 1098.2C1209.18 1098.66 1210.85 1099.48 1212.3 1100.62C1213.74 1101.76 1214.94 1103.19 1215.8 1104.81L1238.18 1145.93C1239.63 1148.6 1240.37 1151.6 1240.34 1154.65L1239.1 1221.78C1239.05 1224.74 1239.77 1227.65 1241.2 1230.24C1246.06 1239.17 1258.37 1261.76 1268.63 1280.61C1272.44 1287.65 1277.93 1293.63 1284.61 1298.04C1291.29 1302.44 1298.95 1305.13 1306.92 1305.87L1343.89 1309.22L1360.05 1290.48L1355.84 1284.42L1340.66 1279.91C1333.3 1277.71 1327.11 1272.69 1323.45 1265.94L1291.33 1206.94L1327.27 1096.99C1328.65 1092.8 1329.15 1088.38 1328.75 1083.99C1328.35 1079.6 1327.05 1075.34 1324.94 1071.46L1299.7 1025.09C1298.5 1022.88 1296.84 1020.95 1294.83 1019.43C1292.82 1017.92 1290.5 1016.85 1288.05 1016.31L1208.96 998.572C1197.27 995.944 1186.29 990.846 1176.74 983.621C1167.19 976.396 1159.3 967.212 1153.59 956.684L970.433 618.941C950.577 584.852 923.423 566.022 786.639 570.479C649.856 574.936 383.629 631.907 280.416 637.343C177.204 642.778 -11.4909 637.178 3.12949 406.837L2.00843 407.159C-82.91 484.653 -155.596 569.797 -210.497 659.472C-255.786 733.638 -285.459 805.352 -300.598 872.803C-296.482 878.774 -230.4 969.281 -28.9898 936.938Z" fill="#7E57C2"/>
<path opacity="0.7" d="M-28.9898 936.938C179.251 903.469 413.929 816.951 557.64 773.092C743.404 716.421 800.001 713.651 835.905 721.475L1023.36 1028.21C1029.1 1037.7 1036.66 1045.96 1045.61 1052.51C1054.56 1059.06 1064.72 1063.78 1075.5 1066.38L1207.4 1098.2C1209.18 1098.66 1210.85 1099.48 1212.3 1100.62C1213.74 1101.76 1214.94 1103.19 1215.8 1104.81L1238.18 1145.93C1239.63 1148.6 1240.37 1151.6 1240.34 1154.65L1239.1 1221.78C1239.05 1224.74 1239.77 1227.65 1241.2 1230.24C1246.06 1239.17 1258.37 1261.76 1268.63 1280.61C1272.44 1287.65 1277.93 1293.63 1284.61 1298.04C1291.29 1302.44 1298.95 1305.13 1306.92 1305.87L1343.89 1309.22L1360.05 1290.48L1355.84 1284.42L1340.66 1279.91C1333.3 1277.71 1327.11 1272.69 1323.45 1265.94L1291.33 1206.94L1327.27 1096.99C1328.65 1092.8 1329.15 1088.38 1328.75 1083.99C1328.35 1079.6 1327.05 1075.34 1324.94 1071.46L1299.7 1025.09C1298.5 1022.88 1296.84 1020.95 1294.83 1019.43C1292.82 1017.92 1290.5 1016.85 1288.05 1016.31L1208.96 998.572C1197.27 995.944 1186.29 990.846 1176.74 983.621C1167.19 976.396 1159.3 967.212 1153.59 956.684L970.433 618.941C950.577 584.852 923.423 566.022 786.639 570.479C649.856 574.936 383.629 631.907 280.416 637.343C177.204 642.778 -11.4909 637.178 3.12949 406.837L2.00843 407.159C-82.91 484.653 -155.596 569.797 -210.497 659.472C-255.786 733.638 -285.459 805.352 -300.598 872.803C-296.482 878.774 -230.4 969.281 -28.9898 936.938Z" fill="white"/>
<g opacity="0.4">
<path d="M-62.518 517.345C-29.3355 523.962 -38.3222 544.941 -52.6537 570.127C-66.1662 593.906 -91.3069 616.526 -78.8071 643.719C-69.2273 664.578 -51.6784 665.588 -30.3306 668.371C29.4619 676.059 88.7898 666.664 147.04 653.438C101.526 706.022 254.128 671.967 274.487 670.199C266.48 681.953 252.003 691.084 247.667 704.729C272.879 716.55 329.813 689.97 353.718 681.133C405.013 662.187 456.053 644.626 508.913 629.966C559.483 615.687 609.117 597.836 660.077 584.449C667.989 582.399 675.873 580.652 684.023 579.48C543.446 596.903 361.474 633.021 280.413 637.249C177.274 642.644 -11.4941 637.083 3.12634 406.743L2.00527 407.065C-33.6428 439.59 -67.4817 474.044 -99.3591 510.272C-89.5836 513.497 -77.1709 514.422 -62.518 517.345Z" fill="white"/>
<path d="M-300.52 872.857C-296.482 878.774 -230.572 969.23 -28.9897 936.938C179.251 903.469 413.929 816.951 557.64 773.092C580.328 766.166 601.063 760.063 620.068 754.662C621.664 752.362 622.599 749.668 622.771 746.873C622.943 744.079 622.345 741.291 621.043 738.812C606.849 713.359 546.961 762.386 527.644 763.155C534.141 727.637 465.748 772.508 452.974 776.917C430.615 784.624 408.015 791.359 386.842 801.685C335.718 826.59 276.03 860.815 218.34 863.604C219.104 850.894 246.485 830.801 234.264 821.32C219.079 809.659 138.119 848.118 120.922 853.928C78.2983 868.25 35.2716 881.831 -8.11697 893.16C-32.0736 899.432 -69.7152 913.203 -93.396 902.518C-88.3198 893.319 -65.4838 882.519 -75.069 868.53C-81.6317 858.945 -109.213 864.646 -120.542 863.947C-157.42 861.744 -198.425 854.343 -225.834 829.313C-245.039 811.678 -260.055 795.123 -267.069 769.361C-281.234 802.812 -292.427 837.444 -300.52 872.857Z" fill="white"/>
<path d="M-97.7168 703.715C-86.2993 707.486 -74.6813 708.892 -63.0543 711.638C-57.5353 712.955 -50.4182 715.179 -48.3056 721.087C-45.975 727.838 -52.0868 735.487 -55.5678 740.648C-59.3378 746.123 -63.4202 751.376 -67.7949 756.381C-71.7332 760.878 -77.1353 765.067 -79.1224 770.855C-84.267 785.661 -64.0688 790.655 -53.3695 791.697C-39.7396 792.596 -26.0509 791.82 -12.61 789.386C1.77742 787.411 16.0922 784.98 30.3345 782.092C89.1225 770.206 146.146 751.022 202.759 731.436C237.218 719.494 271.089 706.384 304.971 693.027C320.795 686.813 336.378 680.154 352.182 673.902C369.173 667.755 385.835 660.735 402.102 652.871C402.768 652.508 402.265 651.053 401.554 651.248C387.101 655.131 372.964 660.475 359.002 665.436C343.901 670.776 328.727 675.627 313.52 680.594C284.512 690.288 255.416 699.646 226.431 709.472C172.697 727.73 119.138 746.662 64.044 760.57C36.9633 767.565 9.48172 772.905 -18.2479 776.561C-30.3696 778.685 -42.7033 779.337 -54.9815 778.504C-59.1514 777.99 -71.9913 776.721 -67.439 770.353C-63.3518 764.718 -58.0097 759.889 -53.7878 754.325C-47.3962 746.043 -37.8248 734.782 -37.5301 723.769C-37.2354 712.756 -46.6655 706.989 -55.9902 704.239C-66.7653 701.029 -78.0943 700.33 -88.8863 697.178C-100.131 693.932 -110.899 689.219 -120.912 683.161C-142.009 670.253 -158.749 650.267 -163.516 625.635C-168.283 601.003 -161.344 572.734 -141.123 556.779C-138.863 555.021 -143.031 551.863 -145.078 553.218C-181.843 577.508 -181.996 630.941 -156.774 663.597C-141.506 682.534 -120.947 696.499 -97.7168 703.715ZM-198.517 736.073C-186.536 746.789 -172.803 746.611 -149.09 750.652C-140.832 752.062 -131.584 754.759 -125.941 761.242C-120.298 767.726 -122.564 776.883 -125.182 784.07C-130.036 797.47 -136.864 812.712 -124.823 824.596C-114.202 835.284 -96.4508 836.137 -82.2947 837.265C-49.7357 839.828 -16.9768 837.59 14.9311 830.623C52.0631 823.124 87.9818 810.533 121.669 793.207C122.558 792.723 121.362 790.878 120.395 791.308C67.216 814.642 -1.63633 831.239 -64.6946 828.931C-79.1137 828.378 -95.7985 828.338 -109.194 822.522C-116.973 819.17 -122.74 812.898 -121.996 803.945C-120.849 797.352 -118.94 790.914 -116.306 784.761C-112.001 771.324 -113.499 759.223 -126.735 752.023C-141.532 743.896 -161.609 743.446 -180.002 737.181C-212.549 726.088 -219.087 681.004 -205.277 634.925C-204.771 633.209 -213.449 641.967 -214.154 643.936C-224.88 673.449 -221.426 715.603 -198.517 736.073ZM206.17 805.882C144.956 843.388 80.2066 876.959 9.57835 891.882C0.960186 893.692 -7.81923 895.207 -16.6794 896.573C-19.0257 896.938 -16.7193 900.292 -14.7837 900.055C55.1551 892.951 120.433 863.173 181.271 829.475C245.184 794.102 304.706 751.372 368.918 716.46C401.204 698.458 435.037 683.381 470.011 671.41C473.893 670.161 490.468 663.297 491.415 670.945C492.362 678.593 480.896 684.259 476.04 687.335C465.372 694.2 452.651 703.911 452.869 718.246C453.086 732.582 465.936 738.455 478.259 738.421C493.58 738.339 509.304 731.939 523.673 727.285C558.778 716 592.899 701.937 626.896 687.558C660.893 673.178 694.995 658.022 729.344 644.555C760.872 631.903 795.235 618.814 829.49 618.844C838.846 618.926 848.153 620.218 857.178 622.689C858.187 622.956 857.751 621.273 857.082 621.013C828.673 608.964 796.137 614.913 767.618 622.949C731.587 633.549 696.183 646.171 661.572 660.755C626.627 674.979 592.171 690.28 556.772 703.407C539.483 709.842 522.026 715.793 504.297 720.979C495.106 723.678 473.42 732.268 466.114 721.407C458.14 709.23 480.404 698.261 487.47 693.069C493.41 689.153 498.113 683.628 501.03 677.139C503.384 671.055 502.677 663.229 496.26 660C490.396 657.826 483.919 657.998 478.178 660.48C468.677 663.492 459.247 666.898 449.931 670.337C432.805 676.748 416.02 683.933 399.577 691.893C332.126 724.294 269.992 766.814 206.17 805.882ZM1117.47 939.469L1136.51 972.322C1141.82 982.311 1148.07 991.773 1155.16 1000.58C1170.14 1017.59 1193.09 1020.85 1214.39 1021.16C1214.39 1021.16 1214.47 1020.88 1214.25 1020.9C1193.38 1017.86 1171.08 1015.88 1157.03 997.838C1150.34 988.202 1144.33 978.108 1139.05 967.629L1121.31 936.373C1097.67 894.546 1074.37 852.538 1050.22 810.994C1035.76 786.116 1021.61 761.019 1007.01 736.221C1006.75 735.739 1006.49 736.503 1006.59 736.688C1029.78 782.984 1054.31 828.742 1079.7 873.886C1092.24 895.742 1104.83 917.604 1117.47 939.469ZM1157.99 1040.34C1158.21 1040.22 1158.15 1039.68 1157.85 1039.65C1118 1034.02 1107.56 1005.32 1093.74 980.818C1076.6 950.484 1059.87 919.835 1041.21 890.422C1040.99 890.015 1040.77 890.664 1040.77 890.664C1057.74 924.929 1077.17 958.051 1095.92 991.348C1108.38 1013.52 1118.83 1035.54 1157.99 1040.34ZM1050.12 1011.82C1038.9 991.226 1026.93 970.997 1015.22 950.628C991.669 909.761 968.231 868.739 944.5 827.973C930.224 803.428 915.985 778.863 900.565 755.037C900.202 754.37 899.898 755.4 900.022 755.716C922.717 800.312 948.342 843.409 973.259 886.794C997.591 929.106 1021.37 971.72 1046.46 1013.57C1052.59 1023.77 1058.96 1033.18 1069.37 1039.51C1078.98 1044.85 1089.42 1048.55 1100.25 1050.46C1100.59 1050.56 1100.45 1049.77 1100.2 1049.67C1089.82 1046.68 1079.83 1042.44 1070.47 1037.04C1060.87 1030.79 1055.5 1021.62 1050.12 1011.82ZM1269.78 1190.91C1269.68 1191.25 1270.2 1191.69 1270.28 1191.21C1272.76 1180.5 1275.21 1169.75 1277.75 1159.06C1279.85 1150.04 1283.46 1140.53 1283.53 1131.23C1283.6 1121.92 1279.17 1114.39 1275.47 1106.8C1270.84 1096.89 1266.2 1086.69 1260.64 1077.28C1260.12 1076.31 1259.37 1077.15 1259.6 1077.84C1263.06 1087.1 1267.01 1096.18 1271.42 1105.02C1275.63 1114.06 1281.12 1122.84 1280.41 1133.07C1279.38 1142.1 1277.84 1151.06 1275.81 1159.92L1269.78 1190.91ZM1257.13 1157.27C1257.13 1157.27 1257.49 1157.94 1257.37 1157.71C1258.85 1154.45 1259.95 1151.03 1260.66 1147.52C1260.8 1143.93 1259.81 1140.39 1257.83 1137.39C1255.82 1133.69 1254.13 1129.8 1252.19 1126.06C1250.56 1122.16 1248.53 1118.43 1246.14 1114.94C1245.9 1114.5 1245.58 1114.96 1245.59 1115.25C1246.69 1118.62 1248.11 1121.88 1249.83 1124.99C1251.75 1128.51 1253.39 1132.22 1255.16 1135.82C1257.47 1139.1 1258.86 1142.93 1259.19 1146.93C1258.68 1150.41 1257.99 1153.86 1257.13 1157.27Z" fill="white"/>
</g>
<path d="M793.919 742.701C794.914 745.623 796.602 748.261 798.839 750.388C801.076 752.516 803.795 754.069 806.764 754.916C812.398 755.738 820.348 752.082 820.066 746.185C823.073 749.83 827.123 752.468 831.673 753.744C839.305 755.591 845.41 755.869 850.451 749.427C857.503 740.065 851.639 732.645 845.188 725.737C847.375 726.006 849.584 725.454 851.388 724.189C853.191 722.923 854.461 721.033 854.952 718.885C855.327 717.409 855.341 715.865 854.994 714.382C854.646 712.9 853.947 711.523 852.956 710.367C859.824 715.752 870.895 715.006 868.881 704.338C869.462 707.383 870.676 710.272 872.442 712.82C873.645 713.965 875.075 714.845 876.639 715.402C878.203 715.959 879.867 716.181 881.523 716.054C883.179 715.927 884.789 715.453 886.25 714.663C887.711 713.874 888.99 712.786 890.003 711.47C891.972 709.556 893.37 707.132 894.04 704.469C894.71 701.806 894.627 699.009 893.798 696.391C892.994 693.754 891.556 691.355 889.61 689.403C897.437 695.754 905.717 683.707 902.454 676.216C908.599 682.474 921.786 687.204 929.508 677.573C933.521 672.507 932.216 666.495 929.387 661.12C931.84 662.82 934.729 663.78 937.712 663.887C940.568 663.628 943.291 662.558 945.56 660.804C947.829 659.049 949.55 656.684 950.52 653.984C951.734 651.633 952.214 648.971 951.897 646.344C951.58 643.716 950.48 641.245 948.741 639.25C953.5 643.186 959.421 645.446 965.592 645.682C969.491 646.545 973.564 646.126 977.206 644.489C980.848 642.853 983.864 640.085 985.808 636.597C989.237 629.929 984.466 618.696 978.059 616.806C992.372 614.872 983.807 587.938 970.119 598.607C966.605 590.388 958.13 589.288 950.278 593.035C947.437 594.595 944.982 596.771 943.092 599.404C941.201 602.037 939.924 605.059 939.354 608.25C938.614 610.737 938.24 613.319 938.244 615.913C934.356 614.008 929.969 613.364 925.697 614.071C921.425 614.778 917.48 616.802 914.414 619.86C910.792 623.099 908.35 627.452 907.475 632.233C906.6 637.013 907.34 641.948 909.58 646.261C908.381 644.896 906.873 643.836 905.183 643.17C903.492 642.503 901.667 642.25 899.859 642.43C898.774 642.645 897.75 643.096 896.859 643.751C895.967 644.406 895.231 645.249 894.701 646.22C894.172 647.19 893.862 648.266 893.794 649.37C893.726 650.474 893.901 651.579 894.307 652.607C893.337 651.225 892.077 650.071 890.615 649.226C889.152 648.381 887.523 647.866 885.841 647.716C884.159 647.566 882.464 647.786 880.876 648.359C879.287 648.932 877.843 649.846 876.644 651.035C869.827 657.388 868.29 663.651 871.23 670.55C867.843 667.592 861.612 664.261 857.086 666.533C855.925 667.194 854.912 668.084 854.106 669.149C853.301 670.215 852.722 671.433 852.403 672.73C852.085 674.027 852.034 675.375 852.254 676.693C852.474 678.01 852.96 679.268 853.682 680.391C851.158 677.744 847.694 676.197 844.038 676.085C840.382 675.972 836.829 677.304 834.147 679.79C827.889 685.935 829.349 695.32 832.11 703.037C830.339 701.127 827.959 699.893 825.378 699.546C822.798 699.199 820.176 699.76 817.964 701.134C816.991 701.709 816.163 702.5 815.546 703.448C814.929 704.395 814.539 705.471 814.406 706.594C814.274 707.717 814.402 708.855 814.782 709.919C815.162 710.984 815.782 711.947 816.595 712.732C810.875 711.045 804.628 714.83 799.514 720.255C796.699 723.18 794.701 726.792 793.719 730.731C792.737 734.67 792.806 738.797 793.919 742.701Z" fill="white"/>
<g opacity="0.1">
<path d="M982.159 598.583C980.56 598.382 978.942 598.753 977.591 599.63C974.752 601.56 974.903 605.895 974.063 608.849C972.024 606.168 969.406 603.982 966.404 602.455C961.646 600.243 954.666 599.242 950.23 603.001C948.13 605.16 946.594 607.802 945.757 610.694C944.92 613.587 944.808 616.642 945.431 619.588C945.682 620.844 946.05 623.812 946.05 623.812C944.534 622.806 942.951 621.903 941.313 621.109C938.126 619.675 934.618 619.101 931.139 619.445C926.178 619.767 921.365 621.268 917.1 623.823C914.113 625.485 911.383 627.57 908.993 630.014C908.552 630.515 908.154 631.053 907.804 631.622C908.624 626.979 911.032 622.765 914.616 619.702C917.706 616.671 921.654 614.664 925.924 613.955C930.194 613.245 934.579 613.867 938.483 615.735C938.448 613.148 938.81 610.57 939.556 608.092C940.126 604.901 941.404 601.879 943.294 599.246C945.184 596.613 947.64 594.437 950.48 592.877C958.333 589.13 966.807 590.23 970.321 598.449C971.088 597.646 972.012 597.01 973.035 596.579C974.058 596.148 975.159 595.932 976.269 595.944C977.379 595.957 978.475 596.198 979.488 596.652C980.502 597.106 981.411 597.763 982.159 598.583Z" fill="#7E57C2"/>
<path d="M903.006 642.301C901.339 643.208 900.026 644.65 899.28 646.395C898.151 650.848 898.164 655.515 899.32 659.963C896.321 656.767 892.526 654.424 888.325 653.175C885.768 652.647 883.125 652.69 880.585 653.301C878.046 653.911 875.672 655.075 873.634 656.708L871.462 658.275C872.709 655.469 874.531 652.956 876.809 650.897C878.008 649.708 879.452 648.795 881.041 648.221C882.629 647.648 884.324 647.429 886.006 647.578C887.688 647.728 889.317 648.243 890.78 649.088C892.242 649.933 893.502 651.087 894.472 652.47C894.066 651.441 893.891 650.336 893.959 649.232C894.027 648.128 894.337 647.053 894.866 646.082C895.396 645.111 896.132 644.268 897.024 643.613C897.915 642.959 898.939 642.508 900.024 642.292C901.011 642.123 902.02 642.126 903.006 642.301Z" fill="#7E57C2"/>
<path d="M871.98 671.486C870.34 670.433 868.473 669.786 866.534 669.598C864.594 669.409 862.638 669.686 860.826 670.404C859.26 671.152 857.929 672.315 856.975 673.765C856.021 675.215 855.481 676.898 855.414 678.632C855.448 680.719 855.768 682.79 856.365 684.789C854.466 683.341 852.242 682.379 849.886 681.987C847.53 681.596 845.114 681.787 842.849 682.544C837.691 684.345 833.182 687.635 829.893 691.999C829.662 689.719 829.934 687.417 830.69 685.255C831.446 683.093 832.668 681.123 834.269 679.484C836.951 676.997 840.504 675.666 844.16 675.779C847.815 675.891 851.28 677.438 853.804 680.085C853.081 678.962 852.595 677.704 852.375 676.386C852.155 675.069 852.206 673.721 852.525 672.424C852.843 671.127 853.423 669.909 854.228 668.843C855.033 667.778 856.047 666.888 857.208 666.227C861.616 663.827 867.83 667.215 871.254 670.153C871.54 670.572 871.783 671.018 871.98 671.486Z" fill="#7E57C2"/>
</g>
</svg>
